<svg width="84" height="490" viewBox="0 0 84 490" fill="none" xmlns="http://www.w3.org/2000/svg">
<path d="M32.9737 469.39L32.2133 468.625C32.1647 468.577 32.0992 468.55 32.0318 468.55C32.0195 468.55 32.0065 468.551 31.9929 468.553C31.9119 468.565 31.8425 468.616 31.8042 468.688C28.749 474.523 26.5209 479.106 24.5807 483.547C24.5379 483.644 24.56 483.758 24.6345 483.833L25.4131 484.615C25.4734 484.675 25.5602 484.703 25.6426 484.686C25.7262 484.67 25.7968 484.614 25.8299 484.535C27.75 480.11 29.9671 475.531 33.0191 469.692C33.0716 469.593 33.0534 469.471 32.9737 469.39Z" fill="#8CD3E4"/>
<path d="M63.1838 455.577L62.378 454.767C62.3294 454.718 62.264 454.691 62.1965 454.691C62.1777 454.691 62.1576 454.693 62.1388 454.698C62.0526 454.718 61.9826 454.781 61.9541 454.865C58.6337 464.551 54.5205 474.862 49.3799 486.384C49.3364 486.482 49.3572 486.597 49.4324 486.673L50.2096 487.454C50.2693 487.515 50.3548 487.539 50.4372 487.526C50.5201 487.51 50.5908 487.455 50.6252 487.378C55.7652 475.879 59.8933 465.564 63.2441 455.845C63.2772 455.75 63.2532 455.647 63.1838 455.577Z" fill="#8CD3E4"/>
<path d="M36.3998 472.833L35.6343 472.065C35.5856 472.016 35.5202 471.989 35.4527 471.989C35.4391 471.989 35.4249 471.99 35.4119 471.992C35.3309 472.005 35.2602 472.057 35.2233 472.132C32.2776 478.05 30.1105 482.692 28.1955 487.182C28.1547 487.279 28.1761 487.392 28.25 487.466L29.0337 488.254C29.094 488.315 29.1796 488.34 29.2638 488.325C29.3475 488.308 29.4181 488.251 29.4512 488.173C31.3409 483.714 33.5637 478.933 36.4472 473.131C36.4977 473.032 36.4783 472.912 36.3998 472.833Z" fill="#8CD3E4"/>
<path d="M39.115 475.563C39.0664 475.514 39.0009 475.488 38.9335 475.488C38.9193 475.488 38.9043 475.489 38.8901 475.491C38.8078 475.505 38.7377 475.559 38.7014 475.634C36.7567 479.717 35.0764 483.363 33.5647 486.779C33.5147 486.892 33.5523 487.026 33.6541 487.096C33.7559 487.166 33.8933 487.154 33.9808 487.066L36.0034 485.033C36.0248 485.012 36.0429 484.986 36.0553 484.958C37.4419 481.892 38.8577 478.898 39.9351 476.631C39.9824 476.532 39.9623 476.414 39.8852 476.337L39.115 475.563Z" fill="#8CD3E4"/>
<path d="M45.6626 474.887C45.6185 474.856 45.5667 474.841 45.5155 474.841C45.4493 474.841 45.3839 474.866 45.334 474.916L43.2271 477.034C43.2057 477.055 43.1882 477.08 43.1753 477.108L42.2197 479.186C42.1744 479.284 42.1951 479.4 42.2716 479.476L43.0456 480.254C43.1046 480.314 43.1889 480.338 43.2725 480.326C43.3555 480.312 43.4255 480.257 43.4605 480.18L45.7488 475.208C45.8007 475.093 45.765 474.958 45.6626 474.887Z" fill="#8CD3E4"/>
<path d="M66.4283 458.839L65.6108 458.017C65.5622 457.968 65.4967 457.941 65.4293 457.941C65.4092 457.941 65.3891 457.944 65.3697 457.948C65.2822 457.969 65.2128 458.034 65.1849 458.119C61.8082 468.564 57.8389 478.933 53.388 488.939C53.3374 489.052 53.3744 489.187 53.4768 489.257C53.5786 489.327 53.7166 489.315 53.8035 489.227L55.8124 487.208C55.8345 487.186 55.8533 487.159 55.8656 487.13C59.8511 477.955 63.4256 468.525 66.4905 459.101C66.521 459.009 66.4964 458.907 66.4283 458.839Z" fill="#8CD3E4"/>
<path d="M74.0132 489.286L74.6485 489.924C74.749 490.025 74.9111 490.025 75.0115 489.924L75.3726 489.561C75.3992 489.535 75.4193 489.503 75.4323 489.468C77.2286 484.555 78.8356 479.17 80.3441 473.003C80.3655 472.915 80.3402 472.823 80.2767 472.759L79.4249 471.903C79.3763 471.854 79.3108 471.827 79.2434 471.827C79.22 471.827 79.1967 471.831 79.174 471.837C79.0845 471.863 79.0158 471.934 78.9931 472.025C77.4445 478.43 75.7959 483.987 73.9542 489.015C73.9199 489.108 73.9426 489.215 74.0132 489.286Z" fill="#8CD3E4"/>
<path d="M69.7517 462.18L68.9297 461.353C68.8811 461.304 68.8156 461.278 68.7482 461.278C68.7274 461.278 68.7067 461.28 68.6853 461.286C68.5978 461.308 68.5284 461.375 68.5025 461.461C66.5467 467.966 64.4185 474.24 62.1775 480.112C62.134 480.225 62.1755 480.354 62.2773 480.421C62.3804 480.488 62.5133 480.473 62.5988 480.387L63.8837 479.096C63.9407 479.134 64.0114 479.148 64.0775 479.132C64.1631 479.114 64.2331 479.053 64.2635 478.97C66.1966 473.788 68.0649 468.227 69.8159 462.438C69.8437 462.346 69.8191 462.247 69.7517 462.18Z" fill="#8CD3E4"/>
<path d="M73.1971 465.643L72.3628 464.805C72.3142 464.756 72.2487 464.729 72.1813 464.729C72.1599 464.729 72.1379 464.732 72.1165 464.737C72.0283 464.761 71.9583 464.829 71.9337 464.917C70.2281 471.009 68.4869 476.478 66.6115 481.635C66.5771 481.73 66.6005 481.835 66.6711 481.906L67.4724 482.712C67.5339 482.774 67.6221 482.799 67.709 482.781C67.7945 482.763 67.8646 482.701 67.8944 482.619C69.7938 477.437 71.5492 471.966 73.2619 465.895C73.2879 465.805 73.2626 465.708 73.1971 465.643Z" fill="#8CD3E4"/>
<path d="M81.058 483.847L82.5399 482.357C82.5717 482.325 82.5944 482.285 82.6061 482.242C83.0786 480.486 83.5318 478.662 83.9933 476.667C84.0134 476.58 83.9875 476.489 83.9246 476.426L83.0683 475.565C83.0196 475.516 82.9542 475.49 82.8867 475.49C82.8634 475.49 82.8388 475.493 82.8154 475.499C82.726 475.525 82.6573 475.598 82.6365 475.69C81.9973 478.499 81.3413 481.084 80.6295 483.593C80.5971 483.706 80.6451 483.826 80.7462 483.886C80.8467 483.946 80.975 483.93 81.058 483.847Z" fill="#8CD3E4"/>
<path d="M75.6802 468.245C75.6575 468.245 75.6349 468.249 75.6128 468.254C75.524 468.279 75.4546 468.349 75.4319 468.438C73.8016 474.729 72.1181 480.254 70.2867 485.328C70.2524 485.423 70.2757 485.528 70.3464 485.599L71.1496 486.407C71.2118 486.469 71.3039 486.494 71.3862 486.476C71.4717 486.457 71.5424 486.396 71.5722 486.313C73.423 481.238 75.1234 475.71 76.7693 469.414C76.7926 469.325 76.7674 469.231 76.7025 469.165L75.8611 468.32C75.8131 468.272 75.7476 468.245 75.6802 468.245Z" fill="#8CD3E4"/>
<path d="M59.9807 452.357L59.1801 451.552C59.1315 451.504 59.066 451.477 58.9986 451.477C58.9798 451.477 58.9616 451.479 58.9428 451.483C58.8572 451.502 58.7872 451.564 58.7574 451.646C56.9877 456.518 54.9431 461.684 52.5063 467.44C52.4719 467.52 52.481 467.612 52.529 467.683L52.3397 467.874C52.3163 467.897 52.2982 467.924 52.2852 467.955C50.4993 472.16 48.4929 476.727 45.78 482.765C45.7365 482.863 45.7566 482.978 45.8325 483.054L46.6091 483.834C46.6687 483.894 46.7537 483.918 46.8366 483.906C46.9196 483.891 46.9896 483.836 47.0246 483.758C52.2787 472.071 56.5021 462.305 60.0403 452.629C60.074 452.534 60.0513 452.428 59.9807 452.357Z" fill="#8CD3E4"/>
<path d="M41.6753 435.117C41.7232 435.003 41.685 434.87 41.5832 434.801C41.5391 434.771 41.4892 434.757 41.4393 434.757C41.3732 434.757 41.3077 434.782 41.2578 434.832L39.2274 436.873C39.2061 436.894 39.1885 436.92 39.1756 436.947C36.1988 443.429 32.341 449.898 28.611 456.154C23.3296 465.012 17.8687 474.172 13.9267 484.43C13.8832 484.544 13.9247 484.673 14.0265 484.739C14.1276 484.806 14.2618 484.793 14.348 484.705L16.191 482.854C16.215 482.83 16.2338 482.801 16.2468 482.77C20.0592 473.51 25.0786 465.092 29.9327 456.95C34.1685 449.847 38.5481 442.502 41.6753 435.117Z" fill="#8CD3E4"/>
<path d="M32.7656 444.086C32.8305 443.974 32.8019 443.831 32.7002 443.752C32.6541 443.716 32.599 443.699 32.5439 443.699C32.4778 443.699 32.4123 443.724 32.3624 443.774L29.3623 446.801C27.9426 449.144 26.5061 451.437 24.9107 453.977C18.2505 464.58 11.3628 475.543 7.54197 488.473C7.51539 488.564 7.54003 488.662 7.6068 488.729L8.44499 489.571C8.50917 489.636 8.60252 489.662 8.69069 489.639C8.7782 489.616 8.84821 489.548 8.87349 489.46C12.6159 476.453 19.5289 465.447 26.2144 454.804C28.4022 451.318 30.6672 447.713 32.7656 444.086Z" fill="#8CD3E4"/>
<path d="M19.174 457.358C19.126 457.319 19.069 457.3 19.0119 457.3C18.9464 457.3 18.8803 457.326 18.8304 457.376L15.3739 460.859C11.5349 466.985 6.74624 475.228 3.76426 484.672C3.73509 484.764 3.75973 484.865 3.82715 484.933L4.65497 485.764C4.71785 485.828 4.81055 485.854 4.89807 485.832C4.98558 485.811 5.05495 485.744 5.08153 485.657C8.08555 475.889 12.9092 467.416 19.2271 457.699C19.2984 457.59 19.2757 457.442 19.174 457.358Z" fill="#8CD3E4"/>
<path d="M0.0753907 481.161L0.88766 481.978C0.950541 482.041 1.0413 482.069 1.12816 482.046C1.21503 482.026 1.28439 481.962 1.31292 481.877C2.49987 478.325 4.01161 474.785 5.93369 471.054C5.99203 470.941 5.95897 470.803 5.85719 470.728C5.81182 470.694 5.75866 470.677 5.7055 470.677C5.63938 470.677 5.57391 470.703 5.52399 470.753L3.22916 473.06C3.20842 473.081 3.19156 473.105 3.1786 473.132C1.95728 475.72 0.892846 478.331 0.0144586 480.895C-0.0179544 480.988 0.00602761 481.092 0.0753907 481.161Z" fill="#8CD3E4"/>
<path d="M44.8796 437.405C44.9205 437.308 44.8984 437.196 44.8245 437.122L44.0349 436.329C43.9863 436.28 43.9208 436.253 43.8534 436.253C43.8366 436.253 43.8197 436.255 43.8035 436.258C43.7199 436.275 43.6492 436.333 43.6162 436.413C40.5557 443.833 36.32 451.325 32.2243 458.57C28.3834 465.366 24.4116 472.391 20.9868 479.929C20.9421 480.028 20.9635 480.143 21.0387 480.219L21.816 481.001C21.8756 481.06 21.9592 481.084 22.0435 481.072C22.1265 481.057 22.1965 481.002 22.2308 480.924C25.6653 473.308 29.6799 466.205 33.5624 459.335C37.8065 451.83 41.814 444.741 44.8796 437.405Z" fill="#8CD3E4"/>
<path d="M46.6583 461.79C46.7173 461.849 46.799 461.875 46.8832 461.862C46.9656 461.848 47.0356 461.794 47.0719 461.718C49.9787 455.559 52.0635 450.834 53.8306 446.397C53.8688 446.301 53.8468 446.191 53.7742 446.118L52.982 445.322C52.9334 445.273 52.8679 445.247 52.8005 445.247C52.7837 445.247 52.7662 445.248 52.7487 445.252C52.6644 445.269 52.5944 445.329 52.562 445.409C50.8201 449.816 48.6828 454.682 45.8363 460.722C45.7903 460.82 45.8104 460.938 45.8869 461.015L46.6583 461.79Z" fill="#8CD3E4"/>
<path d="M49.9646 465.113C50.0242 465.173 50.1105 465.197 50.1921 465.185C50.2751 465.169 50.3458 465.114 50.3801 465.037C53.0652 459.032 55.139 454.09 56.9048 449.483C56.9411 449.388 56.9184 449.28 56.8465 449.208L56.0517 448.409C56.0031 448.36 55.9376 448.334 55.8702 448.334C55.8527 448.334 55.8346 448.336 55.8164 448.339C55.7315 448.358 55.6615 448.418 55.6304 448.5C53.8865 453.08 51.8212 458.019 49.1329 464.043C49.0894 464.141 49.1102 464.257 49.1854 464.332L49.9646 465.113Z" fill="#8CD3E4"/>
<path d="M34.3387 463.898C34.2785 464.011 34.3096 464.151 34.412 464.227C34.5138 464.303 34.6564 464.293 34.7465 464.202L37.2702 461.666C37.2877 461.648 37.3026 461.628 37.3149 461.606C40.8181 455.063 44.7886 447.649 47.8225 440.363C47.8633 440.266 47.8413 440.154 47.7674 440.081L46.9823 439.292C46.9337 439.243 46.8682 439.216 46.8008 439.216C46.784 439.216 46.7671 439.217 46.7509 439.221C46.6666 439.238 46.5966 439.296 46.5636 439.376C43.5395 446.716 39.5546 454.156 35.7007 461.352L34.3387 463.898Z" fill="#8CD3E4"/>
<path d="M43.4228 458.538C43.4805 458.597 43.5628 458.626 43.6458 458.611C43.7268 458.598 43.7975 458.546 43.8344 458.471C46.8741 452.368 49.0244 447.707 50.8058 443.359C50.8453 443.262 50.8233 443.152 50.75 443.078L49.9611 442.285C49.9125 442.236 49.847 442.209 49.7796 442.209C49.7627 442.209 49.7452 442.211 49.729 442.215C49.6448 442.232 49.5748 442.29 49.5417 442.37C47.7765 446.72 45.6379 451.376 42.6092 457.47C42.56 457.569 42.5794 457.69 42.6572 457.768L43.4228 458.538Z" fill="#8CD3E4"/>
<path d="M55.6636 116.31C55.6143 116.26 55.5488 116.234 55.4821 116.234C55.4516 116.234 55.4205 116.24 55.3907 116.251C40.1715 122.082 23.0193 129.212 12.0884 140.068C12.0398 140.116 12.0119 140.182 12.0119 140.251C12.0119 140.32 12.0392 140.386 12.0871 140.434L12.8132 141.164C12.9123 141.264 13.0738 141.265 13.1755 141.165C23.923 130.491 41.1063 123.37 56.3689 117.533C56.4499 117.502 56.5102 117.432 56.529 117.346C56.5471 117.26 56.5212 117.171 56.459 117.109L55.6636 116.31Z" fill="#8CD3E4"/>
<path d="M31.359 136.677C31.3091 136.627 31.2437 136.601 31.1775 136.601C31.1283 136.601 31.079 136.616 31.0356 136.644C26.1438 139.91 22.0229 143.332 18.7868 146.816C18.6928 146.918 18.6947 147.076 18.7926 147.175L19.5076 147.893C19.5569 147.944 19.6263 147.976 19.6937 147.969C19.7637 147.968 19.8298 147.938 19.8771 147.887C23.064 144.444 27.1583 141.053 32.0462 137.806C32.111 137.763 32.1525 137.694 32.1603 137.617C32.1681 137.54 32.1415 137.464 32.0864 137.408L31.359 136.677Z" fill="#8CD3E4"/>
<path d="M32.1056 160.238C32.0252 160.341 32.0343 160.487 32.1263 160.579L32.8375 161.294C32.8893 161.346 32.9613 161.377 33.0358 161.369C33.1091 161.364 33.1771 161.328 33.2225 161.269C41.3931 150.64 56.6602 140.314 73.0657 134.322C73.148 134.292 73.2096 134.221 73.2284 134.135C73.2472 134.049 73.2212 133.959 73.159 133.897L72.3779 133.111C72.3286 133.062 72.2631 133.036 72.1963 133.036C72.1665 133.036 72.1361 133.041 72.1069 133.052C55.7332 139.144 40.4052 149.562 32.1056 160.238Z" fill="#8CD3E4"/>
<path d="M40.3475 126.864C40.2975 126.794 40.2191 126.756 40.1381 126.756C40.0998 126.756 40.0616 126.764 40.0259 126.781C29.213 132.054 21.1682 137.503 15.4317 143.437C15.3338 143.538 15.3351 143.699 15.4343 143.799L16.1604 144.529C16.2083 144.577 16.2738 144.604 16.3419 144.604C16.3425 144.604 16.3432 144.604 16.3438 144.604C16.4126 144.604 16.478 144.576 16.526 144.526C21.6537 139.216 28.6711 134.31 37.98 129.531C38.004 129.518 38.0254 129.503 38.0449 129.483L40.3202 127.196C40.4084 127.107 40.4201 126.967 40.3475 126.864Z" fill="#8CD3E4"/>
<path d="M69.136 142.407C69.0971 142.407 69.0576 142.416 69.0206 142.435C56.6188 148.699 45.3301 157.884 38.8229 167.005C38.7497 167.107 38.7613 167.248 38.8501 167.338L39.5431 168.034C39.5963 168.088 39.6637 168.113 39.7467 168.109C39.8219 168.103 39.8906 168.064 39.934 168.001C45.6912 159.815 55.7943 151.292 66.9598 145.202C66.9812 145.19 67.0013 145.175 67.0188 145.158L69.3162 142.849C69.4057 142.759 69.4167 142.618 69.3428 142.515C69.2948 142.445 69.2164 142.407 69.136 142.407Z" fill="#8CD3E4"/>
<path d="M63.7602 124.66C58.3447 126.683 53.1081 128.968 48.1956 131.452C48.1217 131.489 48.0705 131.559 48.0575 131.641C48.0439 131.723 48.0711 131.806 48.1295 131.865L48.8776 132.617C48.956 132.694 49.0746 132.715 49.1738 132.665C54.0831 130.202 59.3164 127.939 64.7294 125.94C64.8117 125.91 64.8727 125.839 64.8915 125.753C64.9103 125.667 64.8843 125.578 64.8221 125.516L64.0312 124.72C63.9819 124.67 63.9165 124.644 63.8497 124.644C63.8192 124.644 63.7894 124.649 63.7602 124.66Z" fill="#8CD3E4"/>
<path d="M75.585 136.44C75.585 136.372 75.5577 136.306 75.5098 136.258L75.1487 135.896C75.0994 135.846 75.0339 135.82 74.9672 135.82C74.9374 135.82 74.9069 135.825 74.8777 135.836C59.0661 141.741 43.589 152.641 35.4482 163.605C35.3717 163.708 35.382 163.851 35.4721 163.942L36.2241 164.698C36.276 164.75 36.3499 164.779 36.4244 164.773C36.499 164.767 36.5677 164.729 36.6118 164.669C41.0666 158.655 48.0159 152.412 56.1794 147.091C62.0364 143.274 68.1754 140.108 74.4252 137.682C74.4589 137.669 74.4894 137.649 74.5147 137.623L75.5098 136.623C75.5584 136.575 75.585 136.509 75.585 136.44Z" fill="#8CD3E4"/>
<path d="M55.3077 156.307C55.25 156.307 55.1916 156.327 55.1443 156.366C51.0272 159.789 47.4664 163.369 44.5609 167.005C44.4753 167.112 44.4883 167.268 44.5894 167.359C44.6912 167.451 44.8455 167.447 44.9427 167.349L53.2261 159.023C53.2293 159.02 53.2319 159.016 53.2352 159.013L55.4892 156.748C55.5858 156.65 55.5903 156.493 55.4976 156.391C55.447 156.336 55.3777 156.307 55.3077 156.307Z" fill="#8CD3E4"/>
<path d="M22.1264 150.182C22.0357 150.284 22.0402 150.439 22.1361 150.536L22.8525 151.256C22.9024 151.307 22.9653 151.329 23.0418 151.332C23.1124 151.33 23.1792 151.299 23.2259 151.245C26.3544 147.714 30.3638 144.237 35.1428 140.911C35.2056 140.868 35.2458 140.799 35.2523 140.722C35.2594 140.646 35.2316 140.571 35.1778 140.517L34.4608 139.796C34.4109 139.746 34.3454 139.72 34.2793 139.72C34.2281 139.72 34.1769 139.735 34.1328 139.767C29.3344 143.12 25.2945 146.624 22.1264 150.182Z" fill="#8CD3E4"/>
<path d="M8.65131 136.871C8.65001 136.941 8.67725 137.008 8.72651 137.057L9.45515 137.789C9.55369 137.888 9.71315 137.89 9.81363 137.793C20.504 127.568 37.1338 121.111 51.8057 115.413L53.5774 114.725C53.6585 114.693 53.7181 114.622 53.7356 114.537C53.7538 114.451 53.7272 114.362 53.6656 114.301L53.239 113.872C53.2351 113.867 53.2306 113.863 53.2261 113.858L52.8728 113.503C52.8235 113.453 52.758 113.427 52.6913 113.427C52.6601 113.427 52.6284 113.433 52.5992 113.444L51.2508 113.968C36.4323 119.723 19.636 126.245 8.73105 136.688C8.68048 136.735 8.65196 136.802 8.65131 136.871Z" fill="#8CD3E4"/>
<path d="M42.2767 125.827C42.2625 125.91 42.2891 125.995 42.3481 126.054L43.1201 126.83C43.1966 126.907 43.312 126.927 43.4092 126.882C48.1111 124.698 53.2615 122.556 59.156 120.336C59.2377 120.305 59.298 120.235 59.3168 120.149C59.3356 120.063 59.309 119.974 59.2475 119.912L58.4507 119.111C58.4015 119.061 58.336 119.035 58.2692 119.035C58.2388 119.035 58.2083 119.041 58.1791 119.052C52.2787 121.284 47.1251 123.439 42.422 125.639C42.3455 125.673 42.2917 125.743 42.2767 125.827Z" fill="#8CD3E4"/>
<path d="M30.0542 114.387L28.2313 116.22C28.145 116.306 28.1314 116.442 28.1988 116.544C28.2663 116.646 28.3972 116.687 28.5087 116.641C31.7656 115.327 35.1073 114.062 38.3395 112.84C41.6521 111.587 44.8811 110.358 47.983 109.096C48.0627 109.064 48.1217 108.992 48.1386 108.908C48.1554 108.823 48.1289 108.735 48.0686 108.674L47.2835 107.885C47.2343 107.835 47.1688 107.809 47.102 107.809C47.0696 107.809 47.0372 107.815 47.0061 107.828C43.9664 109.057 40.6888 110.296 37.7976 111.39C35.3141 112.329 32.747 113.3 30.1423 114.329C30.1086 114.342 30.0794 114.362 30.0542 114.387Z" fill="#8CD3E4"/>
<path d="M38.3175 144.094C38.3785 144.049 38.4167 143.981 38.4225 143.905C38.4284 143.83 38.4018 143.756 38.348 143.703L37.6414 142.992C37.5915 142.942 37.526 142.917 37.4599 142.917C37.4074 142.917 37.3542 142.933 37.3088 142.966C32.5727 146.434 28.6041 150.009 25.5145 153.594C25.4263 153.696 25.4315 153.849 25.5268 153.945L26.2334 154.655C26.2839 154.705 26.3611 154.732 26.4246 154.731C26.4959 154.727 26.5633 154.695 26.6094 154.641C29.649 151.091 33.5878 147.543 38.3175 144.094Z" fill="#8CD3E4"/>
<path d="M40.7614 103.918C40.8308 104.02 40.9611 104.059 41.0732 104.013L41.1387 103.985C41.5562 103.812 41.973 103.639 42.384 103.461C42.4618 103.427 42.5182 103.356 42.5344 103.272C42.5506 103.188 42.524 103.102 42.4637 103.042L42.0839 102.66C42.0339 102.61 41.9678 102.584 41.9023 102.584C41.8369 102.584 41.7707 102.61 41.7208 102.66L40.7932 103.592C40.707 103.679 40.694 103.815 40.7614 103.918Z" fill="#8CD3E4"/>
<path d="M34.5361 110.167C34.6002 110.27 34.7279 110.312 34.8407 110.271C38.7737 108.83 42.0377 107.599 45.1863 106.282C45.2654 106.249 45.3224 106.178 45.3393 106.093C45.3561 106.009 45.3295 105.922 45.2692 105.861L44.4836 105.071C44.4343 105.022 44.3688 104.995 44.302 104.995C44.269 104.995 44.2359 105.002 44.2042 105.015C42.0066 105.927 39.597 106.863 36.3907 108.051C36.3557 108.063 36.324 108.084 36.298 108.11L34.5711 109.846C34.4861 109.931 34.4712 110.065 34.5361 110.167Z" fill="#8CD3E4"/>
<path d="M20.0042 124.8C20.0787 124.902 20.2188 124.933 20.3316 124.874C28.0179 120.74 36.3675 117.511 44.4415 114.389C46.5924 113.557 48.7135 112.737 50.7841 111.915C50.8644 111.883 50.9234 111.812 50.9409 111.727C50.9584 111.642 50.9325 111.554 50.8709 111.492L50.0781 110.695C50.0288 110.645 49.9634 110.619 49.8966 110.619C49.8648 110.619 49.8331 110.625 49.8026 110.638C47.8669 111.403 45.8923 112.168 43.8879 112.943C36.794 115.686 29.4584 118.523 22.4864 122.012C22.4611 122.024 22.4384 122.04 22.4189 122.06L20.0282 124.463C19.9394 124.554 19.9283 124.697 20.0042 124.8Z" fill="#8CD3E4"/>
<path d="M41.3654 147.151C41.4244 147.106 41.462 147.038 41.4671 146.963C41.4723 146.888 41.4451 146.815 41.3926 146.762L40.6931 146.059C40.6432 146.009 40.5777 145.983 40.5116 145.983C40.4572 145.983 40.4034 146 40.3573 146.035C35.6996 149.565 31.8114 153.222 28.7996 156.903C28.7153 157.005 28.7231 157.155 28.8164 157.249L29.5282 157.965C29.5801 158.016 29.6533 158.045 29.7227 158.04C29.7953 158.036 29.8627 158.002 29.9087 157.945C32.8713 154.289 36.7264 150.657 41.3654 147.151Z" fill="#8CD3E4"/>
<path d="M45.3174 128.554C45.2428 128.59 45.1897 128.661 45.1761 128.744C45.1624 128.826 45.189 128.91 45.248 128.969L46.0084 129.733C46.0849 129.81 46.2022 129.83 46.3014 129.783C51.1212 127.456 56.3877 125.224 61.9542 123.15C62.0366 123.119 62.0975 123.048 62.1156 122.962C62.1344 122.876 62.1079 122.787 62.0463 122.725L61.2515 121.926C61.2023 121.877 61.1368 121.851 61.07 121.851C61.0402 121.851 61.0091 121.857 60.9805 121.867C55.4049 123.961 50.1359 126.211 45.3174 128.554Z" fill="#8CD3E4"/>
<path d="M48.8593 140.283L45.7243 143.434C45.631 143.528 45.6232 143.677 45.7075 143.78C45.7904 143.883 45.9389 143.904 46.0478 143.832C53.3433 138.979 61.7421 134.741 70.3367 131.578C70.419 131.548 70.4799 131.477 70.4994 131.391C70.5182 131.306 70.4922 131.216 70.43 131.153L69.6456 130.365C69.5963 130.315 69.5309 130.289 69.4641 130.289C69.4343 130.289 69.4038 130.295 69.3746 130.306C62.3385 132.937 55.2608 136.374 48.9079 140.245C48.8904 140.255 48.8742 140.268 48.8593 140.283Z" fill="#8CD3E4"/>
<path d="M52.0863 135.588C57.0209 132.997 62.2089 130.691 67.5077 128.733C67.59 128.703 67.651 128.632 67.6698 128.546C67.6886 128.46 67.6626 128.37 67.6004 128.308L66.8147 127.519C66.7655 127.469 66.7 127.443 66.6332 127.443C66.6034 127.443 66.5723 127.449 66.5438 127.459C61.2326 129.449 56.0407 131.781 51.1107 134.389C51.0388 134.428 50.9888 134.498 50.9765 134.579C50.9642 134.66 50.9908 134.743 51.0485 134.801L51.7855 135.541C51.8646 135.62 51.9865 135.639 52.0863 135.588Z" fill="#8CD3E4"/>
<path d="M43.9803 411.091C43.4326 411.065 42.7117 411.027 41.9896 410.958C41.2499 410.889 40.4499 410.838 39.543 410.804C39.5398 410.804 39.5366 410.804 39.5333 410.804C39.4315 410.804 39.3388 410.864 39.298 410.959C39.2552 411.056 39.2773 411.169 39.3518 411.245L40.4422 412.34C40.4863 412.384 40.5452 412.411 40.6075 412.415L40.9536 412.436C41.2499 412.454 41.5468 412.472 41.8456 412.5C42.0907 412.523 42.339 412.537 42.5872 412.551L42.9846 412.576C43.0546 412.578 43.1305 412.553 43.1836 412.501L44.1502 411.53C44.2221 411.458 44.2448 411.35 44.2085 411.255C44.1709 411.16 44.0815 411.095 43.9803 411.091Z" fill="#8CD3E4"/>
<path d="M75.8138 401.87C75.7638 401.821 75.6984 401.795 75.6329 401.795C75.5843 401.795 75.5357 401.809 75.4922 401.837C70.7172 404.975 65.5642 407.378 60.1759 408.981C60.089 409.006 60.0216 409.076 59.9995 409.164C59.9769 409.252 60.0028 409.346 60.067 409.411L60.8948 410.242C60.9622 410.31 61.0601 410.335 61.1515 410.307C65.2336 409.049 69.2268 407.318 73.0204 405.163C73.0405 405.152 73.0593 405.138 73.0755 405.121L75.8818 402.304C75.9298 402.256 75.957 402.189 75.957 402.121C75.957 402.053 75.9292 401.987 75.8812 401.939L75.8138 401.87Z" fill="#8CD3E4"/>
<path d="M24.3229 386.167L25.4003 385.085C25.4749 385.01 25.4969 384.896 25.4535 384.798C25.4126 384.704 25.3199 384.644 25.2188 384.644C25.2149 384.644 25.211 384.644 25.2065 384.645C21.831 384.804 18.3901 385.325 14.979 386.195C14.8895 386.218 14.8188 386.287 14.7942 386.377C14.7696 386.466 14.7955 386.562 14.8603 386.627L15.6376 387.408C15.7005 387.471 15.7912 387.498 15.8781 387.476C18.5807 386.838 21.3656 386.422 24.1576 386.242C24.2198 386.238 24.2788 386.211 24.3229 386.167Z" fill="#8CD3E4"/>
<path d="M69.6646 395.798C69.6212 395.798 69.5771 395.809 69.5369 395.833C64.4481 398.772 59.0345 400.914 53.4472 402.199C53.3558 402.22 53.2832 402.289 53.2579 402.379C53.2319 402.47 53.2566 402.567 53.3234 402.633L54.1752 403.489C54.238 403.552 54.3307 403.577 54.417 403.557C60.0121 402.202 65.436 400.005 70.5397 397.028C70.6091 396.988 70.6551 396.918 70.6655 396.838C70.6752 396.758 70.6487 396.679 70.5923 396.622L69.8468 395.874C69.7962 395.824 69.7307 395.798 69.6646 395.798Z" fill="#8CD3E4"/>
<path d="M64.4545 413.614L64.6373 413.554C64.6736 413.541 64.7073 413.521 64.7345 413.493L66.4634 411.758C66.549 411.672 66.5632 411.536 66.4971 411.435C66.4485 411.36 66.3668 411.317 66.2819 411.317C66.2508 411.317 66.219 411.323 66.1892 411.335C65.3231 411.673 64.411 412 63.4795 412.309C63.3946 412.337 63.3304 412.408 63.3097 412.495C63.2889 412.582 63.3148 412.673 63.3777 412.737L64.19 413.552C64.2593 413.622 64.3585 413.646 64.4545 413.614Z" fill="#8CD3E4"/>
<path d="M32.9723 404.833C33.0229 404.884 33.0949 404.915 33.1642 404.909C34.9683 404.838 36.5721 404.858 38.0683 404.972C42.3682 405.3 46.8463 405.042 51.3854 404.204C51.4366 404.194 51.4833 404.169 51.5203 404.132L52.807 402.841C52.8874 402.76 52.9056 402.635 52.8511 402.535C52.8057 402.45 52.7182 402.4 52.6255 402.4C52.608 402.4 52.5899 402.402 52.5724 402.406C47.7066 403.443 42.8654 403.787 38.1843 403.428C36.2143 403.278 34.18 403.264 32.1374 403.387C32.0363 403.393 31.9487 403.458 31.9124 403.553C31.8768 403.649 31.9001 403.756 31.9714 403.828L32.9723 404.833Z" fill="#8CD3E4"/>
<path d="M57.8751 407.025C63.3522 405.542 68.6478 403.214 73.6141 400.108C73.6802 400.066 73.7243 399.996 73.7334 399.918C73.7418 399.839 73.7146 399.761 73.6595 399.706L72.9153 398.958C72.8653 398.908 72.7999 398.883 72.7337 398.883C72.6871 398.883 72.6404 398.895 72.5989 398.921C67.6339 402 62.3558 404.277 56.9105 405.688C56.821 405.712 56.751 405.781 56.727 405.87C56.703 405.96 56.7283 406.055 56.7931 406.121L57.6268 406.958C57.6916 407.023 57.785 407.048 57.8751 407.025Z" fill="#8CD3E4"/>
<path d="M16.4453 371.373C18.0225 371.212 19.5802 371.118 21.0745 371.093C24.9906 371.029 32.9499 370.555 42.2556 368.096C42.2997 368.084 42.3399 368.061 42.3723 368.029L43.8432 366.55C43.9261 366.467 43.9424 366.338 43.8827 366.237C43.836 366.156 43.7511 366.11 43.6617 366.11C43.6383 366.11 43.6143 366.113 43.5916 366.119C33.7518 368.939 25.2453 369.476 21.0498 369.544C19.8856 369.564 18.7038 369.621 17.5382 369.715C17.4773 369.72 17.4202 369.746 17.3774 369.79L16.2391 370.934C16.1626 371.011 16.1425 371.129 16.1885 371.227C16.2339 371.325 16.3273 371.385 16.4453 371.373Z" fill="#8CD3E4"/>
<path d="M20.8707 389.01C20.8571 389.01 20.8428 389.011 20.8292 389.013C19.9683 389.155 19.1107 389.318 18.279 389.497C18.1869 389.518 18.1136 389.586 18.0871 389.677C18.0605 389.767 18.0851 389.866 18.1519 389.932L19.0167 390.801C19.0776 390.862 19.1645 390.889 19.2481 390.871L19.6591 390.787C19.709 390.777 19.7557 390.752 19.792 390.716L21.0522 389.45C21.1306 389.371 21.1501 389.249 21.0995 389.15C21.0541 389.063 20.966 389.01 20.8707 389.01Z" fill="#8CD3E4"/>
<path d="M57.4479 383.416C57.3986 383.366 57.3332 383.34 57.2664 383.34C57.2333 383.34 57.1996 383.347 57.1679 383.36C51.3939 385.764 45.4066 387.329 39.3719 388.014C39.2734 388.025 39.1911 388.092 39.158 388.186C39.1256 388.28 39.1489 388.383 39.2189 388.453L40.1427 389.381C40.1991 389.438 40.2789 389.469 40.3566 389.455C46.4029 388.691 52.3902 387.066 58.1519 384.626C58.2304 384.593 58.2881 384.522 58.3036 384.438C58.3205 384.354 58.2939 384.266 58.2336 384.206L57.4479 383.416Z" fill="#8CD3E4"/>
<path d="M48.7921 361.575L50.5605 359.799C50.6467 359.712 50.6603 359.577 50.5936 359.475C50.545 359.4 50.4633 359.358 50.379 359.358C50.3472 359.358 50.3155 359.364 50.285 359.376C38.4375 364.089 27.2025 365.346 21.5608 365.674C21.4979 365.677 21.4389 365.704 21.3942 365.749L20.3116 366.839C20.237 366.914 20.215 367.028 20.2584 367.125C20.3012 367.222 20.3855 367.299 20.5048 367.278C25.954 367.035 36.8629 365.977 48.6994 361.635C48.7337 361.622 48.7655 361.602 48.7921 361.575Z" fill="#8CD3E4"/>
<path d="M26.737 382.386C27.0235 382.39 27.312 382.387 27.6011 382.385L27.9855 382.383C28.0529 382.383 28.1177 382.355 28.1664 382.307L29.1913 381.278C29.2658 381.203 29.2872 381.091 29.2457 380.994C29.2049 380.898 29.1245 380.844 29.0052 380.837C28.2532 380.851 27.5058 380.851 26.7616 380.837C26.4841 380.833 26.2073 380.831 25.9292 380.831C21.1315 380.831 16.3285 381.509 11.6423 382.85C11.5548 382.875 11.4867 382.944 11.464 383.033C11.4413 383.122 11.4673 383.216 11.5315 383.281L12.3865 384.14C12.4513 384.205 12.5486 384.23 12.6361 384.206C17.3223 382.916 22.0747 382.306 26.737 382.386Z" fill="#8CD3E4"/>
<path d="M12.8134 374.375L11.5136 375.682C11.4326 375.763 11.4151 375.888 11.4702 375.988C11.5246 376.088 11.6355 376.138 11.7509 376.116C15.433 375.301 19.2045 374.877 22.9618 374.857C30.3007 374.82 37.9813 373.7 45.1737 371.622C45.2612 371.596 45.328 371.526 45.3513 371.438C45.374 371.349 45.3481 371.255 45.2839 371.191L44.4522 370.356C44.4035 370.307 44.3381 370.281 44.2707 370.281C44.2473 370.281 44.2246 370.284 44.2013 370.29C37.3116 372.23 29.9643 373.273 22.9534 373.309C19.6207 373.327 16.2543 373.662 12.9463 374.305C12.8957 374.315 12.849 374.339 12.8134 374.375Z" fill="#8CD3E4"/>
<path d="M8.22614 379.784C8.20475 379.871 8.23067 379.964 8.29356 380.028L9.11036 380.849C9.17713 380.917 9.27502 380.943 9.36772 380.913C14.2776 379.392 19.3865 378.621 24.5512 378.621L25.2416 378.623C32.8566 378.623 40.8846 377.339 48.4569 374.91C48.5425 374.882 48.6067 374.812 48.6287 374.725C48.6495 374.637 48.6235 374.545 48.5606 374.481L47.7464 373.663C47.6972 373.614 47.6323 373.588 47.5649 373.588C47.5396 373.588 47.5137 373.592 47.4884 373.6C40.2319 375.872 32.5396 377.074 25.2429 377.074L24.559 377.072C19.1019 377.073 13.6644 377.923 8.39793 379.6C8.31235 379.626 8.24753 379.697 8.22614 379.784Z" fill="#8CD3E4"/>
<path d="M46.9175 408.751L48.0176 407.648C48.0934 407.571 48.1142 407.455 48.0694 407.357C48.024 407.259 47.9171 407.192 47.8166 407.207C45.1691 407.411 42.5677 407.406 40.0868 407.193C38.8642 407.088 37.6312 407.037 36.3327 407.037C36.1519 407.037 35.9697 407.038 35.7863 407.04C35.6825 407.042 35.5898 407.105 35.5509 407.201C35.512 407.298 35.5341 407.407 35.6073 407.481L36.6374 408.516C36.6847 408.564 36.7489 408.59 36.8157 408.591C37.9553 408.605 38.9822 408.652 39.9558 408.735C42.1223 408.921 44.4081 408.951 46.7496 408.826C46.8131 408.824 46.8727 408.797 46.9175 408.751Z" fill="#8CD3E4"/>
<path d="M24.7914 362.983C35.9881 361.716 52.3423 358.057 66.6655 347.825C66.7265 347.781 66.7667 347.712 66.7725 347.637C66.779 347.561 66.7518 347.486 66.6979 347.433L65.9583 346.69C65.9084 346.64 65.8429 346.614 65.7768 346.614C65.7249 346.614 65.6737 346.63 65.6283 346.662C52.0136 356.338 36.5112 359.959 25.9038 361.291C25.8474 361.298 25.7943 361.324 25.7541 361.365L24.5807 362.544C24.5036 362.622 24.4835 362.74 24.5308 362.839C24.5788 362.937 24.6838 362.993 24.7914 362.983Z" fill="#8CD3E4"/>
<path d="M30.5888 356.503L29.3221 357.777C29.243 357.856 29.2242 357.978 29.2754 358.078C29.3273 358.178 29.4388 358.233 29.5471 358.214C42.7378 355.92 54.339 351.535 64.0265 345.18C64.0913 345.137 64.1335 345.067 64.1412 344.991C64.149 344.913 64.1224 344.836 64.0673 344.781L63.3251 344.036C63.2752 343.986 63.2097 343.96 63.1436 343.96C63.0956 343.96 63.047 343.974 63.0036 344.001C53.891 349.942 43.0301 354.124 30.723 356.432C30.6718 356.441 30.6251 356.466 30.5888 356.503Z" fill="#8CD3E4"/>
<path d="M71.9856 352.861C71.9888 352.789 71.961 352.719 71.9104 352.668L71.1785 351.933C71.1286 351.883 71.0625 351.857 70.997 351.857C70.938 351.857 70.8797 351.877 70.8317 351.918C66.7775 355.347 62.2105 358.344 57.2585 360.825C57.1839 360.862 57.1327 360.933 57.1198 361.015C57.1062 361.096 57.1334 361.181 57.1917 361.239L57.956 362.007C58.0338 362.085 58.1544 362.105 58.2529 362.055C63.2322 359.533 67.8218 356.503 71.8948 353.048C71.9499 353.001 71.983 352.934 71.9856 352.861Z" fill="#8CD3E4"/>
<path d="M54.872 358.908C54.9478 358.984 55.0638 359.005 55.1611 358.96C60.244 356.594 64.9854 353.717 69.2529 350.41C69.3112 350.365 69.3475 350.296 69.352 350.222C69.3566 350.148 69.3294 350.076 69.2775 350.023L68.5437 349.286C68.4938 349.236 68.4283 349.21 68.3622 349.21C68.3071 349.21 68.2526 349.228 68.2059 349.264C63.9709 352.533 59.2483 355.375 54.1699 357.709C54.0934 357.744 54.0389 357.815 54.024 357.898C54.0091 357.982 54.0357 358.066 54.0953 358.126L54.872 358.908Z" fill="#8CD3E4"/>
<path d="M48.1343 338.858L46.3684 340.634C46.2828 340.72 46.2686 340.854 46.3334 340.956C46.3982 341.058 46.5253 341.101 46.6381 341.059C49.858 339.882 52.9806 338.543 55.9179 337.078C55.9918 337.041 56.0436 336.97 56.0566 336.888C56.0702 336.806 56.043 336.722 55.9847 336.664L55.2152 335.892C55.1659 335.842 55.1004 335.816 55.0337 335.816C54.9948 335.816 54.9565 335.825 54.9202 335.842C52.7777 336.9 50.5237 337.896 48.2224 338.8C48.1894 338.813 48.1589 338.833 48.1343 338.858Z" fill="#8CD3E4"/>
<path d="M35.9465 351.114L34.5365 352.532C34.4555 352.614 34.438 352.74 34.4931 352.841C34.5482 352.942 34.6629 352.993 34.7757 352.966C44.6785 350.645 53.6115 347.119 61.327 342.484C61.3944 342.443 61.4405 342.373 61.4502 342.293C61.4599 342.215 61.4333 342.135 61.3769 342.079L60.6068 341.305C60.5569 341.255 60.4914 341.229 60.4253 341.229C60.3799 341.229 60.3352 341.241 60.2943 341.266C53.1771 345.508 45.0253 348.799 36.0658 351.046C36.0204 351.058 35.9795 351.081 35.9465 351.114Z" fill="#8CD3E4"/>
<path d="M41.7721 345.256L40.2305 346.806C40.1476 346.889 40.1313 347.019 40.1916 347.12C40.2519 347.222 40.3725 347.269 40.4846 347.236C47.0807 345.295 53.1924 342.796 58.6494 339.809C58.7207 339.77 58.7694 339.699 58.781 339.618C58.7927 339.538 58.7655 339.457 58.7084 339.399L57.95 338.637C57.9001 338.587 57.8346 338.561 57.7685 338.561C57.727 338.561 57.6848 338.571 57.6466 338.592C52.8709 341.184 47.5656 343.404 41.8778 345.192C41.8376 345.205 41.8013 345.227 41.7721 345.256Z" fill="#8CD3E4"/>
<path d="M74.4555 355.337C74.4568 355.266 74.4302 355.198 74.3803 355.149L73.651 354.417C73.6011 354.367 73.535 354.341 73.4695 354.341C73.4079 354.341 73.3457 354.363 73.2964 354.408C69.3758 357.998 64.9644 361.151 60.1867 363.781C60.1161 363.82 60.0675 363.891 60.0558 363.971C60.0441 364.052 60.0714 364.132 60.1284 364.19L60.8849 364.951C60.966 365.032 61.0904 365.049 61.1909 364.994C65.9919 362.327 70.4266 359.14 74.3719 355.523C74.4231 355.474 74.4542 355.407 74.4555 355.337Z" fill="#8CD3E4"/>
<path d="M31.6139 401.004C31.6554 401.101 31.7261 401.161 31.8583 401.159C33.5043 401.105 34.8779 401.122 36.1783 401.208C46.1725 401.877 57.5935 399.252 67.5157 394.005C67.5876 393.967 67.6382 393.897 67.6499 393.816C67.6622 393.734 67.6356 393.652 67.5779 393.594L66.8188 392.832C66.7695 392.782 66.7041 392.756 66.6373 392.756C66.5971 392.756 66.5563 392.766 66.5187 392.785C56.9173 397.802 45.8944 400.31 36.2801 399.662C35.2247 399.591 34.124 399.565 32.9124 399.572C32.845 399.573 32.7808 399.6 32.7328 399.648L31.6677 400.718C31.5938 400.794 31.5725 400.907 31.6139 401.004Z" fill="#8CD3E4"/>
<path d="M35.5552 384.56C35.5209 384.655 35.5442 384.76 35.6149 384.831L36.5484 385.77C36.6028 385.824 36.6806 385.851 36.7552 385.844C42.9985 385.229 49.1479 383.766 55.0308 381.494C55.1118 381.463 55.1715 381.393 55.1896 381.307C55.2078 381.221 55.1819 381.132 55.1196 381.071L54.3268 380.274C54.2775 380.225 54.2121 380.199 54.1453 380.199C54.1148 380.199 54.0844 380.205 54.0552 380.216C48.1275 382.46 41.9775 383.865 35.7757 384.393C35.6752 384.401 35.5896 384.466 35.5552 384.56Z" fill="#8CD3E4"/>
<path d="M36.5059 395.965C36.4204 395.948 36.3711 395.991 36.3218 396.04L35.3216 397.046C35.249 397.119 35.2269 397.228 35.2645 397.324C35.3021 397.42 35.3929 397.483 35.4953 397.487C44.8276 397.766 55.0675 395.411 64.3602 390.841C64.4348 390.805 64.4873 390.734 64.5009 390.652C64.5145 390.57 64.4879 390.486 64.4289 390.427L63.6698 389.664C63.6206 389.614 63.5551 389.588 63.4883 389.588C63.4501 389.588 63.4118 389.597 63.3762 389.614C54.9203 393.718 45.5718 395.966 36.9921 395.966C36.8294 395.967 36.6674 395.966 36.5059 395.965Z" fill="#8CD3E4"/>
<path d="M60.6879 386.67C60.6386 386.62 60.5731 386.594 60.5064 386.594C60.4707 386.594 60.4351 386.602 60.4013 386.617C54.0206 389.492 47.3254 391.277 40.5018 391.922C40.4422 391.928 40.3864 391.955 40.3443 391.997L39.2092 393.138C39.1333 393.215 39.1126 393.331 39.1573 393.428C39.2021 393.527 39.2961 393.593 39.4095 393.579C46.8256 393.028 54.4244 391.052 61.386 387.866C61.4625 387.831 61.5176 387.761 61.5326 387.677C61.5475 387.594 61.5209 387.509 61.4612 387.449L60.6879 386.67Z" fill="#8CD3E4"/>
<path d="M31.884 380.867C31.8484 380.962 31.8717 381.069 31.943 381.141L32.8914 382.094C32.9446 382.148 33.0165 382.174 33.0937 382.169C39.3733 381.668 45.6342 380.318 51.7025 378.16C51.7855 378.13 51.8477 378.059 51.8672 377.973C51.8866 377.887 51.8607 377.796 51.7985 377.733L51.0219 376.953C50.9726 376.904 50.9071 376.878 50.8404 376.878C50.8125 376.878 50.784 376.882 50.7561 376.892C44.669 379.013 38.3951 380.294 32.1083 380.701C32.0072 380.707 31.9197 380.773 31.884 380.867Z" fill="#8CD3E4"/>
<path d="M71.5072 361.029C71.4573 360.973 71.3866 360.944 71.3166 360.944C71.2596 360.944 71.2025 360.963 71.1552 361.001C68.6076 363.078 65.881 364.985 63.0513 366.67C62.9833 366.712 62.9373 366.781 62.9275 366.861C62.9178 366.94 62.9444 367.019 63.0008 367.076L63.7521 367.831C63.8351 367.914 63.9647 367.929 64.0652 367.87C64.9572 367.334 65.8285 366.786 66.6958 366.206L71.4981 361.385C71.5954 361.288 71.5993 361.132 71.5072 361.029Z" fill="#8CD3E4"/>
<path d="M61.5618 277.874C61.5333 277.863 61.5034 277.858 61.4743 277.858C61.4075 277.858 61.342 277.884 61.2928 277.934L60.3411 278.89C60.288 278.944 60.2607 279.019 60.2666 279.094C60.5291 282.343 60.6873 285.681 60.8681 289.706C61.0386 293.519 61.202 296.964 61.4678 300.52C61.4756 300.621 61.5404 300.708 61.635 300.743C61.7277 300.779 61.8347 300.755 61.906 300.684L62.8667 299.719C62.9192 299.666 62.9465 299.593 62.9413 299.518C62.7098 296.228 62.5569 292.967 62.4071 289.637C62.2353 285.792 62.0564 281.815 61.7303 278.093C61.7212 277.994 61.6558 277.908 61.5618 277.874Z" fill="#8CD3E4"/>
<path d="M57.3467 282.109C57.3182 282.099 57.289 282.094 57.2598 282.094C57.193 282.094 57.1276 282.12 57.0783 282.169L56.137 283.115C56.0826 283.17 56.056 283.246 56.0625 283.321C56.2946 285.84 56.4806 288.362 56.6991 291.396C56.9662 295.091 57.2974 299.691 57.8128 304.199C57.8244 304.298 57.8906 304.381 57.9833 304.414C58.0753 304.446 58.1797 304.423 58.2497 304.352L59.178 303.42C59.2331 303.364 59.2603 303.288 59.2519 303.209C58.7949 299.03 58.4986 294.915 58.2367 291.284C58.0047 288.061 57.7901 285.162 57.5159 282.326C57.5055 282.227 57.44 282.143 57.3467 282.109Z" fill="#8CD3E4"/>
<path d="M64.9644 275.431C64.9281 275.431 64.8925 275.438 64.8581 275.454C64.7609 275.498 64.7012 275.599 64.7084 275.706C64.9703 279.657 65.0422 283.895 65.1109 287.994C65.1628 291.055 65.2147 293.819 65.3158 296.643C65.3197 296.746 65.3832 296.837 65.4785 296.875C65.5725 296.911 65.6814 296.889 65.754 296.817L66.7504 295.814C66.8003 295.764 66.8275 295.695 66.8256 295.623C66.74 292.955 66.6907 290.273 66.6519 287.967C66.589 284.249 66.5235 280.404 66.3199 276.779C66.3167 276.716 66.2901 276.656 66.2454 276.611L65.1466 275.506C65.0967 275.457 65.0312 275.431 64.9644 275.431Z" fill="#8CD3E4"/>
<path d="M69.917 280.304C69.8677 280.254 69.8022 280.228 69.7355 280.228C69.7024 280.228 69.6694 280.235 69.6376 280.248C69.541 280.287 69.4788 280.381 69.4788 280.486C69.4749 282.363 69.4554 284.284 69.4321 286.285C69.4094 288.338 69.3861 290.427 69.3828 292.54C69.3828 292.645 69.4451 292.739 69.541 292.779C69.6356 292.819 69.7471 292.797 69.821 292.723L70.8518 291.685C70.8997 291.637 70.9263 291.572 70.927 291.504C70.9347 289.74 70.9535 287.993 70.973 286.271C70.9918 284.658 71.0093 283.073 71.0171 281.519C71.0177 281.45 70.9905 281.384 70.9419 281.335L69.917 280.304Z" fill="#8CD3E4"/>
<path d="M53.4642 286.395C53.4531 286.297 53.3877 286.213 53.295 286.181C53.2671 286.17 53.2379 286.166 53.2088 286.166C53.1426 286.166 53.0778 286.191 53.0292 286.239L52.0976 287.175C52.0425 287.23 52.0153 287.307 52.0237 287.385C52.2241 289.239 52.4127 291.13 52.6033 293.062C53.0435 297.527 53.5426 302.586 54.3328 307.706C54.3477 307.802 54.4152 307.881 54.5066 307.911C54.5986 307.941 54.6991 307.917 54.7678 307.848L55.6663 306.946C55.724 306.888 55.7506 306.807 55.7383 306.726C55.0323 301.991 54.5772 297.374 54.1364 292.909C53.9173 290.685 53.7001 288.515 53.4642 286.395Z" fill="#8CD3E4"/>
<path d="M51.0094 311.067C51.0276 311.161 51.0956 311.237 51.1857 311.265C51.2778 311.292 51.375 311.268 51.4424 311.2L52.3202 310.319C52.3805 310.259 52.407 310.173 52.3908 310.089C51.3783 304.732 50.7021 299.304 50.1051 294.514C49.9275 293.088 49.7511 291.687 49.5716 290.301C49.5593 290.203 49.4925 290.122 49.3998 290.09C49.3726 290.081 49.3447 290.076 49.3168 290.076C49.2494 290.076 49.1846 290.102 49.1353 290.152L48.2187 291.073C48.1623 291.13 48.1357 291.209 48.1454 291.288C48.29 292.416 48.4332 293.552 48.5765 294.706C48.5765 294.706 48.5765 294.706 48.5765 294.706C49.204 299.739 49.9145 305.442 51.0094 311.067Z" fill="#8CD3E4"/>
<path d="M75.2736 287.139L75.3236 285.857C75.3262 285.785 75.2989 285.715 75.2484 285.665L74.2598 284.67C74.2105 284.621 74.145 284.595 74.0783 284.595C74.0465 284.595 74.0154 284.6 73.9849 284.612C73.8896 284.649 73.8261 284.74 73.8216 284.842C73.7768 285.951 73.7327 287.069 73.6913 288.195C73.688 288.3 73.7483 288.399 73.8455 288.441C73.9428 288.485 74.0549 288.463 74.1301 288.387L75.1991 287.312C75.2438 287.266 75.2711 287.204 75.2736 287.139Z" fill="#8CD3E4"/>
<path d="M23.517 278.96C23.5046 278.934 23.4884 278.912 23.469 278.892L20.8202 276.229C20.7703 276.179 20.7048 276.153 20.6387 276.153C20.5823 276.153 20.5266 276.172 20.4799 276.209C20.3775 276.29 20.3522 276.435 20.4196 276.546C24.785 283.708 27.0247 292.918 29.396 302.669C29.9931 305.124 30.5823 307.533 31.2234 310.008C31.2345 310.052 31.2578 310.094 31.2902 310.125L32.7332 311.575C32.8162 311.658 32.9433 311.676 33.0431 311.616C33.1442 311.557 33.1929 311.438 33.1624 311.325C32.3346 308.225 31.602 305.214 30.8928 302.301C28.8171 293.767 26.8561 285.706 23.517 278.96Z" fill="#8CD3E4"/>
<path d="M31.1258 286.602L30.8516 286.327C30.8419 286.31 30.8289 286.295 30.8153 286.28L29.5707 285.029C29.5208 284.979 29.4553 284.954 29.3892 284.954C29.3431 284.954 29.2971 284.966 29.255 284.991C29.1538 285.053 29.1078 285.177 29.1441 285.291C30.6948 290.162 31.8694 295.478 33.1134 301.107C34.0793 305.476 35.1736 310.427 36.5375 315.352C36.5492 315.395 36.5718 315.434 36.603 315.466L38.0978 316.968C38.1808 317.053 38.3098 317.068 38.4103 317.007C38.5114 316.947 38.5588 316.826 38.5257 316.713C36.9284 311.228 35.7006 305.672 34.6174 300.771C33.5724 296.042 32.4911 291.152 31.19 286.712C31.179 286.67 31.1563 286.633 31.1258 286.602Z" fill="#8CD3E4"/>
<path d="M45.5791 293.834C45.5117 293.834 45.4469 293.86 45.3976 293.91L44.4952 294.816C44.4376 294.874 44.411 294.956 44.4233 295.037L44.6178 296.333C45.4858 302.129 46.3836 308.121 47.8266 314.274C47.8474 314.366 47.9161 314.438 48.0062 314.463C48.0957 314.489 48.1916 314.464 48.2577 314.397L49.118 313.534C49.1808 313.471 49.2068 313.38 49.1867 313.294C47.8253 307.348 46.9307 301.374 46.1405 296.102L45.8326 294.053C45.8183 293.957 45.7509 293.877 45.6589 293.847C45.6329 293.838 45.6064 293.834 45.5791 293.834Z" fill="#8CD3E4"/>
<path d="M36.9877 292.489L35.6458 291.141C35.5959 291.091 35.5305 291.066 35.4643 291.066C35.4222 291.066 35.3794 291.076 35.3412 291.098C35.2407 291.153 35.1895 291.268 35.2135 291.38C35.7755 293.93 36.2831 296.472 36.8892 299.531C38.1539 305.914 39.5866 313.148 41.8309 320.318C41.8574 320.404 41.9274 320.47 42.0143 320.491C42.0999 320.512 42.1932 320.486 42.2568 320.423L43.0781 319.599C43.1455 319.531 43.1702 319.431 43.1416 319.34C41.0134 312.421 39.6255 305.412 38.3996 299.229C37.977 297.093 37.5251 294.824 37.0577 292.617C37.0467 292.568 37.0227 292.524 36.9877 292.489Z" fill="#8CD3E4"/>
<path d="M17.2611 277.051C17.2514 277.05 17.2423 277.05 17.2332 277.05C17.1658 277.05 17.1003 277.077 17.0517 277.126L16.2958 277.885C16.2109 277.97 16.196 278.102 16.2602 278.205C20.7481 285.38 23.1693 294.531 25.7319 304.219L25.8291 304.586C25.8408 304.63 25.8635 304.67 25.8959 304.702L27.3447 306.158C27.4277 306.242 27.5548 306.258 27.6546 306.199C27.7557 306.141 27.8043 306.022 27.7745 305.909L27.2209 303.821C24.5994 293.913 22.123 284.554 17.4497 277.169C17.4082 277.103 17.3382 277.06 17.2611 277.051Z" fill="#8CD3E4"/>
<path d="M44.7741 317.351C44.7987 317.44 44.8681 317.508 44.9562 317.532C45.0431 317.554 45.139 317.53 45.2032 317.465L46.0421 316.623C46.1075 316.558 46.1322 316.463 46.1082 316.373C44.3741 309.914 43.2403 303.411 42.24 297.676C42.229 297.578 42.1629 297.495 42.0696 297.461C42.0242 297.444 41.9756 297.442 41.9295 297.453L40.9364 296.456C40.8865 296.406 40.821 296.38 40.7549 296.38C40.714 296.38 40.6739 296.39 40.6363 296.41C40.5371 296.462 40.482 296.573 40.5021 296.683L40.7225 297.94C41.761 303.899 42.9382 310.652 44.7741 317.351Z" fill="#8CD3E4"/>
<path d="M10.9809 283.334C10.9135 283.334 10.8481 283.36 10.7994 283.409L10.0325 284.18C9.95152 284.261 9.93401 284.387 9.98911 284.488C11.2448 286.772 12.4188 289.321 13.5785 292.282C13.5908 292.315 13.6109 292.345 13.6356 292.37L15.4163 294.161C15.5019 294.247 15.6348 294.261 15.7366 294.197C15.8377 294.131 15.8805 294.004 15.8396 293.89C14.3454 289.798 12.8291 286.388 11.2052 283.465C11.1663 283.395 11.0957 283.347 11.016 283.335C11.0043 283.335 10.992 283.334 10.9809 283.334Z" fill="#8CD3E4"/>
<path d="M20.1141 298.848C20.1264 298.89 20.1484 298.926 20.1782 298.957L21.7081 300.494C21.7911 300.577 21.9194 300.593 22.0212 300.533C22.1224 300.473 22.169 300.351 22.136 300.238C19.8139 292.321 17.5943 285.906 14.3115 280.334C14.2707 280.266 14.2013 280.219 14.1222 280.21C14.1118 280.208 14.1008 280.208 14.0898 280.208C14.0224 280.208 13.9569 280.234 13.9083 280.283L13.1466 281.049C13.0636 281.132 13.0474 281.261 13.1064 281.362C16.2861 286.821 18.4331 293.265 20.1141 298.848Z" fill="#8CD3E4"/>
<path d="M48.7549 238.459L49.8395 239.551C49.9153 239.626 50.0275 239.648 50.1247 239.604C50.2213 239.561 50.2822 239.463 50.277 239.356C49.9659 232.767 49.3254 222.942 47.3566 213.741C47.3463 213.693 47.3223 213.649 47.2866 213.613L45.9259 212.245C45.8767 212.194 45.8105 212.169 45.7444 212.169C45.7016 212.169 45.6589 212.179 45.6193 212.202C45.5188 212.258 45.4676 212.374 45.4942 212.486C47.131 219.517 48.143 227.716 48.6804 238.288C48.683 238.353 48.7096 238.413 48.7549 238.459Z" fill="#8CD3E4"/>
<path d="M56.9799 215.894C56.952 215.884 56.9229 215.88 56.8943 215.88C56.8276 215.88 56.7621 215.906 56.7128 215.955L55.7767 216.896C55.7223 216.951 55.6957 217.027 55.7022 217.104C56.4224 224.502 56.5209 232.271 56.5222 238.895C56.5222 238.999 56.5851 239.094 56.6804 239.134C56.777 239.173 56.8872 239.152 56.9605 239.077L57.9873 238.043C58.0353 237.995 58.0625 237.929 58.0625 237.86C58.0502 231.331 57.9316 223.641 57.1491 216.111C57.14 216.012 57.0733 215.927 56.9799 215.894Z" fill="#8CD3E4"/>
<path d="M52.92 219.277L51.7356 218.086C51.6863 218.036 51.6209 218.01 51.5541 218.01C51.5152 218.01 51.477 218.019 51.4413 218.036C51.3428 218.085 51.2851 218.191 51.2993 218.301C52.3087 226.291 52.5699 234.571 52.7009 242.328C52.7022 242.395 52.7287 242.459 52.7761 242.506L52.9855 242.717C53.082 242.814 53.2525 242.814 53.3485 242.717L54.1562 241.903C54.2055 241.853 54.2327 241.786 54.2314 241.716C54.1115 234.947 53.8703 227.006 52.9939 219.429C52.9861 219.372 52.9608 219.318 52.92 219.277Z" fill="#8CD3E4"/>
<path d="M33.6893 193.95C33.6821 193.95 33.675 193.949 33.6679 193.949C33.6005 193.949 33.5343 193.976 33.4864 194.025L32.7454 194.769C32.6572 194.858 32.6449 194.997 32.7169 195.1C34.7466 198.012 36.5351 201.346 38.0326 205.009C38.0456 205.04 38.065 205.069 38.089 205.093L39.9041 206.919C39.9897 207.006 40.1219 207.021 40.2243 206.954C40.3255 206.889 40.3689 206.761 40.3268 206.648C38.5875 201.902 36.4178 197.667 33.8779 194.059C33.8338 193.996 33.7651 193.957 33.6893 193.95Z" fill="#8CD3E4"/>
<path d="M39.956 210.357C42.0097 216.896 43.4463 224.61 44.348 233.939C44.3538 233.998 44.3804 234.054 44.4225 234.096L45.5654 235.247C45.6419 235.324 45.7586 235.343 45.8558 235.298C45.9537 235.252 46.0121 235.149 46.003 235.041C45.0786 224.807 43.5286 216.413 41.2655 209.376C41.2376 209.29 41.1683 209.225 41.0814 209.204C41.0613 209.2 41.0412 209.197 41.0211 209.197C40.9537 209.197 40.8882 209.224 40.8396 209.273L40.0202 210.096C39.9515 210.165 39.9269 210.265 39.956 210.357Z" fill="#8CD3E4"/>
<path d="M37.3538 190.263C37.348 190.262 37.3422 190.262 37.3363 190.262C37.2689 190.262 37.2028 190.29 37.1548 190.338L36.4184 191.078C36.3283 191.169 36.3179 191.313 36.3951 191.416C39.4723 195.533 41.9804 200.589 43.8474 206.444C43.8753 206.53 43.9447 206.595 44.0322 206.617C44.1197 206.637 44.2104 206.612 44.274 206.548L45.0888 205.728C45.1575 205.659 45.1815 205.557 45.1511 205.465C43.2316 199.599 40.671 194.518 37.5412 190.365C37.4958 190.305 37.4277 190.268 37.3538 190.263Z" fill="#8CD3E4"/>
<path d="M19.1747 208.55C19.165 208.549 19.154 208.548 19.1442 208.548C19.0768 208.548 19.0114 208.575 18.9627 208.624L18.2127 209.378C18.1297 209.461 18.1135 209.591 18.1738 209.693C23.2334 218.156 26.8235 228.504 29.1488 241.33C29.1585 241.382 29.1831 241.429 29.2201 241.466L30.4622 242.717C30.5101 242.765 30.5756 242.793 30.6437 242.793C30.7117 242.793 30.7772 242.765 30.8252 242.717L30.844 242.698C30.903 242.639 30.9295 242.555 30.9159 242.472C28.5524 228.697 24.7744 217.641 19.364 208.673C19.3232 208.605 19.2531 208.56 19.1747 208.55Z" fill="#8CD3E4"/>
<path d="M12.2935 215.468C12.2831 215.467 12.2721 215.466 12.2617 215.466C12.1943 215.466 12.1288 215.493 12.0802 215.542L11.3367 216.289C11.2537 216.373 11.2375 216.502 11.2978 216.604C13.6296 220.541 15.7046 224.916 17.4653 229.61C17.4783 229.645 17.4977 229.676 17.5243 229.702L19.2013 231.389C19.2201 231.408 19.2415 231.423 19.2649 231.435C19.3465 231.488 19.4542 231.49 19.5404 231.436C19.6415 231.372 19.6856 231.246 19.6454 231.132C17.665 225.467 15.2554 220.239 12.4821 215.593C12.4413 215.523 12.3719 215.478 12.2935 215.468Z" fill="#8CD3E4"/>
<path d="M29.085 217.955L27.8539 216.717C27.8468 216.71 27.8397 216.704 27.8319 216.697L27.3055 216.169C27.2556 216.119 27.1901 216.093 27.124 216.093C27.0754 216.093 27.0261 216.107 26.9833 216.135C26.8816 216.203 26.8407 216.333 26.8854 216.446C29.5472 223.189 31.5335 230.89 32.9564 239.989C32.9713 240.085 33.0387 240.164 33.1308 240.195C33.2235 240.225 33.3239 240.2 33.3914 240.131L34.2918 239.225C34.3501 239.166 34.3774 239.083 34.3637 239.001C33.0867 231.066 31.3792 224.213 29.1446 218.049C29.1317 218.013 29.1116 217.981 29.085 217.955Z" fill="#8CD3E4"/>
<path d="M10.63 222.766C10.7201 222.856 10.8621 222.867 10.9651 222.79C11.0669 222.713 11.098 222.573 11.0377 222.461C10.4063 221.283 9.74772 220.121 9.07937 219.01C9.03853 218.942 8.96916 218.897 8.89072 218.887C8.88035 218.886 8.86998 218.885 8.85961 218.885C8.79219 218.885 8.72607 218.912 8.67809 218.961L7.94427 219.699C7.84379 219.8 7.84379 219.963 7.94427 220.064L10.63 222.766Z" fill="#8CD3E4"/>
<path d="M37.2042 213.101C37.1841 213.096 37.164 213.094 37.1439 213.094C37.0765 213.094 37.011 213.12 36.9624 213.169L36.2259 213.909C36.1585 213.977 36.1339 214.078 36.1631 214.169C37.8654 219.61 39.1541 225.699 40.1032 232.784C40.1161 232.881 40.1829 232.963 40.275 232.994C40.367 233.024 40.4694 233.002 40.5388 232.932L41.4042 232.061C41.4613 232.004 41.4885 231.922 41.4768 231.842C40.4733 224.791 39.136 218.717 37.3883 213.273C37.361 213.187 37.291 213.122 37.2042 213.101Z" fill="#8CD3E4"/>
<path d="M14.6753 213.209C18.5221 219.691 21.6246 227.378 23.8968 236.057C23.9084 236.101 23.9311 236.141 23.9635 236.174L25.3975 237.619C25.4785 237.7 25.6049 237.718 25.7054 237.661C25.8059 237.604 25.8558 237.486 25.8286 237.374C23.4592 227.751 20.1071 219.279 15.8655 212.191C15.8247 212.123 15.7553 212.078 15.6762 212.068C15.6658 212.067 15.6555 212.066 15.6451 212.066C15.5777 212.066 15.5122 212.093 15.4636 212.142L14.7142 212.895C14.6312 212.978 14.615 213.108 14.6753 213.209Z" fill="#8CD3E4"/>
<path d="M65.8067 209.59L64.6781 208.455C64.6288 208.405 64.5633 208.379 64.4965 208.379C64.4602 208.379 64.4226 208.387 64.3883 208.403C64.2898 208.449 64.2314 208.551 64.2411 208.66C64.9101 216.289 64.7597 224.506 64.5536 230.812C64.5504 230.917 64.6119 231.015 64.7085 231.057C64.8051 231.098 64.9179 231.078 64.9918 231.003L66.0524 229.935C66.0984 229.888 66.1256 229.826 66.1276 229.76C66.3784 221.452 66.3026 215.281 65.8812 209.752C65.8767 209.691 65.8501 209.633 65.8067 209.59Z" fill="#8CD3E4"/>
<path d="M69.5121 213.315C69.4629 213.266 69.3974 213.24 69.3306 213.24C69.2969 213.24 69.2632 213.246 69.2314 213.26C69.1348 213.301 69.0733 213.395 69.0739 213.501C69.1154 217.327 69.022 221.475 68.7802 226.554C68.7744 226.661 68.8353 226.76 68.9326 226.802C69.0305 226.846 69.1426 226.824 69.2178 226.749L70.2965 225.663C70.3419 225.617 70.3685 225.557 70.3711 225.492C70.5558 221.343 70.6401 217.761 70.6271 214.542C70.6265 214.474 70.5999 214.409 70.5519 214.36L69.5121 213.315Z" fill="#8CD3E4"/>
<path d="M61.1654 211.689C61.1375 211.679 61.1084 211.674 61.0792 211.674C61.0124 211.674 60.9469 211.7 60.8977 211.749L59.959 212.693C59.9045 212.748 59.878 212.823 59.8845 212.9C60.5872 220.445 60.5736 228.264 60.4679 234.917C60.4666 235.022 60.5282 235.118 60.6248 235.159C60.7207 235.199 60.8322 235.177 60.9061 235.104L61.9492 234.053C61.9965 234.005 62.0237 233.941 62.0243 233.874C62.1099 227.694 62.1086 219.612 61.3346 211.906C61.3249 211.807 61.2588 211.722 61.1654 211.689Z" fill="#8CD3E4"/>
<path d="M73.5921 222.346L74.6876 221.244C74.7324 221.199 74.7589 221.14 74.7622 221.076C74.805 220.326 74.8452 219.579 74.8815 218.833C74.8854 218.761 74.8581 218.689 74.8069 218.638L73.8229 217.65C73.7736 217.6 73.7081 217.574 73.6414 217.574C73.6102 217.574 73.5785 217.58 73.5487 217.592C73.454 217.628 73.3898 217.718 73.3853 217.82C73.3211 219.256 73.2433 220.699 73.1545 222.148C73.148 222.255 73.2083 222.355 73.3056 222.399C73.4015 222.444 73.5169 222.423 73.5921 222.346Z" fill="#8CD3E4"/>
<path d="M41.0399 186.552C41.036 186.551 41.0321 186.551 41.0283 186.551C40.9608 186.551 40.8947 186.579 40.8467 186.627L40.1149 187.362C40.0209 187.456 40.0137 187.607 40.0987 187.709C43.4028 191.705 45.9505 196.504 47.8881 202.381C47.916 202.467 47.986 202.53 48.0729 202.551C48.1591 202.571 48.2505 202.546 48.3134 202.483L49.1321 201.659C49.2015 201.589 49.2255 201.486 49.1937 201.393C47.2029 195.52 44.5969 190.696 41.2253 186.645C41.1793 186.589 41.1112 186.555 41.0399 186.552Z" fill="#8CD3E4"/>
<path d="M53.0818 196.991L52.9859 196.739C52.9729 196.704 52.9528 196.672 52.9269 196.646L51.0742 194.783C51.0243 194.733 50.9588 194.707 50.8927 194.707C50.8428 194.707 50.7922 194.722 50.7488 194.752C50.647 194.821 50.6081 194.953 50.6567 195.067C51.1209 196.158 51.5442 197.255 51.9176 198.33C51.9461 198.415 52.0161 198.478 52.1023 198.497C52.1892 198.518 52.2787 198.491 52.3409 198.428L53.1532 197.61C53.2232 197.54 53.2471 197.435 53.2134 197.341C53.1726 197.223 53.1272 197.107 53.0818 196.991Z" fill="#8CD3E4"/>
<path d="M49.779 261.496C49.744 261.496 49.709 261.503 49.6753 261.518C49.5787 261.561 49.5177 261.659 49.5229 261.766C49.6351 264.143 49.766 266.236 49.9255 268.167C49.9333 268.267 49.9994 268.353 50.0927 268.388C50.1848 268.422 50.2911 268.399 50.3624 268.328L51.3251 267.36C51.3782 267.306 51.4054 267.233 51.3996 267.158C51.2965 265.811 51.2032 264.357 51.1228 262.834C51.1196 262.77 51.093 262.711 51.0483 262.666L49.9611 261.573C49.9119 261.522 49.8457 261.496 49.779 261.496Z" fill="#8CD3E4"/>
<path d="M33.1537 268.036C33.2289 268.111 33.3443 268.132 33.4402 268.088C33.5374 268.045 33.5977 267.945 33.5919 267.838C33.4979 266.203 33.3909 264.507 33.2665 262.758C33.2587 262.657 33.1945 262.569 33.0999 262.534C33.0707 262.524 33.0402 262.518 33.0104 262.518C32.9436 262.518 32.8782 262.544 32.8289 262.593L31.8669 263.56C31.8144 263.612 31.7872 263.685 31.7923 263.76C31.8624 264.781 31.9278 265.787 31.9868 266.768C31.9907 266.832 32.0166 266.891 32.0614 266.935L33.1537 268.036Z" fill="#8CD3E4"/>
<path d="M36.607 259.4C36.5993 259.299 36.5344 259.211 36.4404 259.176C36.4106 259.166 36.3808 259.16 36.351 259.16C36.2842 259.16 36.2187 259.186 36.1695 259.235L35.21 260.2C35.1575 260.253 35.1303 260.326 35.1355 260.401C35.3131 262.922 35.4655 265.359 35.6107 267.687L35.7948 270.602C35.7987 270.664 35.8252 270.723 35.8693 270.768L36.9701 271.876C37.0453 271.952 37.1619 271.973 37.2572 271.928C37.3551 271.883 37.4148 271.783 37.4076 271.676C37.3214 270.365 37.2358 269.002 37.1477 267.591C36.9856 264.987 36.8125 262.24 36.607 259.4Z" fill="#8CD3E4"/>
<path d="M32.3887 217.964C34.1164 223.431 35.4518 229.477 36.4702 236.448C36.4844 236.545 36.5512 236.625 36.6439 236.656C36.7353 236.686 36.8377 236.661 36.9064 236.593L37.8101 235.683C37.8678 235.625 37.895 235.543 37.8821 235.461C36.8351 228.508 35.4667 222.464 33.6982 216.983C33.6703 216.897 33.601 216.832 33.5141 216.811C33.494 216.807 33.4739 216.804 33.4538 216.804C33.3864 216.804 33.3209 216.831 33.2723 216.88L32.4523 217.704C32.3842 217.772 32.3596 217.873 32.3887 217.964Z" fill="#8CD3E4"/>
<path d="M43.5582 255.227C43.5549 255.163 43.5283 255.104 43.4836 255.059L42.3926 253.962C42.3433 253.912 42.2778 253.886 42.2111 253.886C42.1754 253.886 42.1398 253.894 42.1061 253.909C42.0088 253.953 41.9485 254.053 41.9544 254.159C42.0341 255.553 42.1106 256.935 42.1851 258.297C42.5145 264.293 42.8243 269.955 43.3896 274.755C43.4013 274.853 43.4674 274.936 43.5601 274.968C43.6541 275.001 43.7565 274.977 43.8259 274.907L44.7542 273.973C44.8093 273.917 44.8365 273.84 44.8281 273.762C44.3237 269.165 44.0327 263.844 43.7235 258.213L43.5582 255.227Z" fill="#8CD3E4"/>
<path d="M45.7698 257.991C45.9727 262.5 46.221 267.253 46.6495 271.468C46.6592 271.567 46.7253 271.652 46.8193 271.685C46.9133 271.72 47.0177 271.696 47.0864 271.625L48.0231 270.682C48.0776 270.627 48.1042 270.551 48.0977 270.475C47.7431 266.728 47.5259 262.598 47.3606 259.052C47.3574 258.988 47.3308 258.927 47.2861 258.881L46.208 257.797C46.1587 257.748 46.0933 257.722 46.0265 257.722C45.9915 257.722 45.9565 257.729 45.9228 257.744C45.8255 257.787 45.7652 257.885 45.7698 257.991Z" fill="#8CD3E4"/>
<path d="M41.2343 275.921C41.3322 275.875 41.3906 275.77 41.3789 275.661C40.9698 271.78 40.6904 267.282 40.3948 262.52C40.2645 260.412 40.1278 258.235 39.9767 256.014C39.9696 255.913 39.9048 255.826 39.8108 255.79C39.7809 255.779 39.7505 255.773 39.7207 255.773C39.6539 255.773 39.5884 255.799 39.5391 255.848L38.5752 256.817C38.5233 256.869 38.4954 256.943 38.5006 257.017C38.6277 258.923 38.745 260.796 38.8578 262.615C39.158 267.442 39.3952 271.124 39.7239 274.561C39.7297 274.62 39.7563 274.676 39.7984 274.719L40.9433 275.87C41.0185 275.948 41.1351 275.969 41.2343 275.921Z" fill="#8CD3E4"/>
<path d="M45.3461 15.0804C45.3396 15.156 45.3669 15.2309 45.4207 15.2843L46.3794 16.2481C46.4494 16.3185 46.5532 16.3407 46.6465 16.3094C46.7399 16.2762 46.806 16.1914 46.8164 16.0924C47.1787 12.6017 47.1379 9.54361 46.6932 6.74425C46.6776 6.64846 46.6102 6.5696 46.5188 6.53962C46.4929 6.53115 46.4663 6.52725 46.4397 6.52725C46.3723 6.52725 46.3068 6.55395 46.2582 6.60282L45.3293 7.53726C45.2729 7.59395 45.2463 7.67409 45.256 7.75294C45.5445 9.97496 45.5743 12.3716 45.3461 15.0804Z" fill="#8CD3E4"/>
<path d="M38.7276 14.7298C38.8261 14.78 38.9461 14.7611 39.0251 14.6823L40.2413 13.4605C40.2821 13.4194 40.3074 13.3667 40.3145 13.3093C40.4617 12.109 40.5518 10.9224 40.5829 9.78274C40.5849 9.71171 40.5576 9.64332 40.5077 9.59315L39.464 8.54469C39.4147 8.49517 39.3493 8.46909 39.2825 8.46909C39.2488 8.46909 39.2151 8.47561 39.1833 8.48929C39.0867 8.53034 39.0251 8.62484 39.0258 8.72975C39.0439 10.5197 38.9007 12.3951 38.5902 14.4607C38.5727 14.5708 38.6284 14.6797 38.7276 14.7298Z" fill="#8CD3E4"/>
<path d="M48.5079 18.2526C48.4995 18.3302 48.5267 18.4077 48.5818 18.4631L49.5166 19.4027C49.5859 19.4718 49.6871 19.4959 49.7817 19.4639C49.8744 19.432 49.9405 19.3493 49.9529 19.2515C50.6834 13.2371 50.4267 8.46463 49.1451 4.23368C49.1186 4.14701 49.0485 4.08056 48.9617 4.0584C48.9409 4.05319 48.9202 4.05057 48.8994 4.05057C48.832 4.05057 48.7666 4.0773 48.7179 4.12617L47.8616 4.98826C47.7961 5.05408 47.7708 5.14985 47.7961 5.23978C48.8152 8.92272 49.0479 13.1798 48.5079 18.2526Z" fill="#8CD3E4"/>
<path d="M51.7099 21.4685C51.7002 21.5473 51.7274 21.6255 51.7832 21.6815L52.7128 22.6159C52.7815 22.685 52.8826 22.7085 52.9772 22.6778C53.0693 22.6459 53.1361 22.5645 53.149 22.4674C54.2621 13.9579 53.6637 7.47232 51.2658 2.05672C51.2315 1.97917 51.1608 1.92316 51.0778 1.90817C51.0623 1.90491 51.0467 1.9036 51.0312 1.9036C50.9638 1.9036 50.8983 1.93033 50.8497 1.9792L50.0465 2.7872C49.9726 2.86214 49.9505 2.97354 49.9914 3.06998C52.0703 8.01055 52.6155 13.8569 51.7099 21.4685Z" fill="#8CD3E4"/>
<path d="M14.8593 29.5568C14.8152 29.6545 14.836 29.7698 14.9112 29.8454L15.6878 30.6254C15.7474 30.6854 15.8323 30.7088 15.9153 30.6971C15.9983 30.6814 16.0683 30.6267 16.1033 30.5492L17.0744 28.3936C20.7442 20.2653 24.2104 12.588 24.8891 6.16886C24.9008 6.06004 24.8425 5.95574 24.7446 5.90883C24.7089 5.89189 24.6713 5.88345 24.6337 5.88345C24.567 5.88345 24.5015 5.9095 24.4522 5.95902L23.3055 7.11172C23.2672 7.15017 23.2426 7.19972 23.2335 7.25315C22.3065 13.0584 19.0834 20.1962 15.6716 27.7531L14.8593 29.5568Z" fill="#8CD3E4"/>
<path d="M30.7923 90.2655C30.828 90.3418 30.898 90.3959 30.9803 90.4095C31.0633 90.4284 31.1469 90.3972 31.2059 90.3379L31.9164 89.625C31.9929 89.5481 32.013 89.4315 31.967 89.3324C23.174 70.5104 29.4018 51.1554 34.8964 34.079C35.5013 32.1998 36.0944 30.3512 36.6597 28.5325C36.6882 28.4406 36.6636 28.3403 36.5962 28.2731L35.7755 27.4488C35.7269 27.4 35.6614 27.3732 35.594 27.3732C35.5732 27.3732 35.5531 27.3759 35.5324 27.3811C35.4449 27.4026 35.3755 27.469 35.3489 27.5557C34.7402 29.5334 34.0913 31.5501 33.4307 33.6021C32.3332 37.0133 31.0899 40.8793 29.9801 44.8053C29.9548 44.8953 29.9794 44.9924 30.0455 45.0582L30.2809 45.2941L29.7221 45.8564C29.6903 45.8884 29.6676 45.9268 29.6559 45.9705C26.2772 58.2691 23.3536 74.4188 30.7923 90.2655Z" fill="#8CD3E4"/>
<path d="M14.7042 61.2009C14.6686 61.184 14.6303 61.1755 14.5921 61.1755C14.5253 61.1755 14.4598 61.2016 14.4106 61.2511L13.2171 62.4507C13.175 62.4931 13.1491 62.5485 13.1426 62.6078C12.7867 66.2901 12.7938 69.8688 13.1633 73.2441C13.1698 73.3028 13.1957 73.3569 13.2372 73.3986L14.4793 74.6477C14.5577 74.7266 14.6764 74.7455 14.7755 74.696C14.8741 74.6465 14.9305 74.5389 14.9149 74.4288C14.3308 70.306 14.3088 66.0653 14.8468 61.4635C14.8598 61.3541 14.8021 61.2485 14.7042 61.2009Z" fill="#8CD3E4"/>
<path d="M12.1537 26.8279C12.1057 26.9269 12.1258 27.0449 12.2036 27.123L12.9737 27.8972C13.0327 27.9565 13.1144 27.9832 13.1987 27.9695C13.2803 27.9552 13.3503 27.9024 13.3867 27.8268L13.6116 27.3557C16.5339 21.2519 19.2949 15.4871 20.8021 10.3178C20.8351 10.2044 20.7878 10.0832 20.6867 10.0232C20.6458 9.99846 20.6011 9.98676 20.5557 9.98676C20.4896 9.98676 20.4235 10.0121 20.3742 10.0623L19.3312 11.1121C19.2923 11.1245 19.2547 11.146 19.2242 11.1766L18.8579 11.5454C18.8301 11.5734 18.8093 11.6073 18.797 11.6444C17.2606 16.1628 14.8135 21.2735 12.1997 26.734L12.1537 26.8279Z" fill="#8CD3E4"/>
<path d="M43.2641 13.1158C43.3354 13.1874 43.4418 13.2109 43.5351 13.175C43.6291 13.1398 43.6946 13.0532 43.7024 12.9522C43.7899 11.7754 43.8242 10.7074 43.8074 9.6876C43.8061 9.58399 43.7425 9.49084 43.6466 9.45239C43.6155 9.44001 43.5831 9.4335 43.55 9.4335C43.4832 9.4335 43.4178 9.45955 43.3685 9.50907L42.3125 10.5718C42.2652 10.6194 42.2379 10.6839 42.2373 10.751C42.2315 11.1394 42.2191 11.5317 42.2003 11.9272C42.1971 11.9995 42.2237 12.0706 42.2749 12.122L43.2641 13.1158Z" fill="#8CD3E4"/>
<path d="M19.9506 55.9385C19.9123 55.9183 19.8715 55.9085 19.83 55.9085C19.7632 55.9085 19.6977 55.9346 19.6485 55.9841L18.3455 57.2951C18.3079 57.3329 18.2832 57.3812 18.2742 57.4333C16.9388 65.1328 16.9725 72.0276 18.3792 78.5125C18.3896 78.5607 18.4135 78.605 18.4485 78.6402L19.2232 79.4189C19.2511 79.4469 19.2848 79.4652 19.3218 79.4756L19.8799 80.0367C19.9629 80.1201 20.0899 80.1357 20.1891 80.0784C20.2896 80.0204 20.3389 79.9024 20.3103 79.7897C18.4784 72.6499 18.4038 64.9386 20.0822 56.2154C20.1035 56.104 20.0504 55.9919 19.9506 55.9385Z" fill="#8CD3E4"/>
<path d="M27.8446 42.6706C27.9321 42.6497 28.0015 42.5839 28.0287 42.4979C29.1028 39.0977 30.2516 35.783 31.2654 32.8585C32.0511 30.5941 32.9405 28.0281 33.734 25.5956C33.7638 25.503 33.7398 25.4014 33.6711 25.333L32.8556 24.5139C32.807 24.465 32.7415 24.4383 32.6741 24.4383C32.654 24.4383 32.6339 24.4409 32.6138 24.4455C32.5269 24.467 32.4576 24.5315 32.4297 24.6168C31.6058 27.1712 30.693 29.8037 29.8107 32.3489C28.8435 35.1379 27.7473 38.3002 26.7199 41.5172C26.6907 41.6097 26.7147 41.7101 26.7827 41.7792L27.6021 42.6028C27.6657 42.6666 27.7571 42.6934 27.8446 42.6706Z" fill="#8CD3E4"/>
<path d="M56.0079 42.135C55.9872 42.2464 56.041 42.3578 56.1402 42.4106C56.2413 42.4653 56.3632 42.4451 56.4416 42.365L57.7258 41.0741C57.7621 41.037 57.7867 40.9901 57.7965 40.9386C60.4226 26.7209 62.1249 15.0367 58.2762 4.87671C58.2639 4.84217 58.2438 4.81156 58.2178 4.78615L56.2037 2.75962C56.1538 2.70945 56.0883 2.68402 56.0222 2.68402C55.9703 2.68402 55.9178 2.69966 55.8731 2.73159C55.7707 2.80457 55.7363 2.94207 55.7914 3.05545C61.1953 14.189 58.6755 27.7642 56.0079 42.135Z" fill="#8CD3E4"/>
<path d="M60.9931 37.13C60.9762 37.2401 61.032 37.3496 61.1312 37.3997C61.2297 37.4499 61.3503 37.4297 61.4287 37.3522L62.6442 36.1297C62.6831 36.0906 62.709 36.0398 62.7168 35.9844C63.9303 27.6293 64.8671 17.9202 62.6072 9.25301C62.5956 9.2087 62.5729 9.1683 62.5405 9.13573L61.1325 7.71977C61.0825 7.6696 61.0171 7.64417 60.9509 7.64417C60.9049 7.64417 60.8589 7.65654 60.8174 7.68195C60.7163 7.7432 60.6703 7.86701 60.7059 7.9804C63.3573 16.3459 62.7382 25.6836 60.9931 37.13Z" fill="#8CD3E4"/>
<path d="M22.6729 29.9796C21.9774 31.7266 21.2695 33.5061 20.5681 35.3131C20.5311 35.4082 20.5538 35.5171 20.6258 35.5894L21.4199 36.3876C21.4808 36.4495 21.5683 36.4756 21.6545 36.458C21.7395 36.4397 21.8095 36.3805 21.8406 36.2984C22.5932 34.35 23.3556 32.4336 24.1036 30.555C28.6252 19.2018 32.8959 8.47745 30.4254 0.48859C30.3989 0.402577 30.3288 0.336132 30.242 0.314629C30.2212 0.309418 30.2011 0.306793 30.1804 0.306793C30.113 0.306793 30.0475 0.333531 29.9989 0.382401L29.1944 1.19172C29.1289 1.25753 29.1043 1.35332 29.1283 1.44259C31.1243 8.75768 27.2075 18.5919 22.6729 29.9796Z" fill="#8CD3E4"/>
<path d="M52.0645 40.9229C50.578 48.1311 49.0403 55.5844 48.3422 63.321C48.335 63.3973 48.3629 63.4728 48.4167 63.5269L49.3723 64.4868C49.4429 64.5585 49.5479 64.5813 49.6426 64.5467C49.7366 64.5122 49.8014 64.4255 49.8098 64.3252C50.4555 56.3558 52.0405 48.67 53.5736 41.237C56.8616 25.2977 59.7016 11.5316 53.1451 0.128929C53.1056 0.0592045 53.0355 0.0123218 52.9565 0.00189245C52.9448 0.000595456 52.9338 -9.11881e-05 52.9227 -9.11872e-05C52.8553 -9.11813e-05 52.7892 0.0266422 52.7412 0.0755161L51.975 0.847043C51.894 0.928494 51.8765 1.05491 51.9322 1.15591C58.0174 12.0692 55.2584 25.4404 52.0645 40.9229Z" fill="#8CD3E4"/>
<path d="M40.2741 58.3702C40.3727 58.4184 40.4926 58.4002 40.571 58.322L41.8027 57.0832C41.841 57.0448 41.8663 56.9952 41.8747 56.9418C42.9022 50.4745 44.4742 44.1903 45.9956 38.1133C46.8624 34.6506 47.7589 31.0706 48.4927 27.6535C48.5167 27.5414 48.4649 27.4274 48.365 27.372C48.3261 27.3505 48.284 27.3407 48.2419 27.3407C48.1757 27.3407 48.1096 27.3661 48.0603 27.4163L46.7068 28.7769C46.6724 28.8114 46.6484 28.8551 46.6381 28.9027C45.9743 31.8506 45.1918 34.977 44.5008 37.7353C42.8594 44.2926 41.1629 51.0727 40.1348 58.1017C40.1192 58.2118 40.175 58.32 40.2741 58.3702Z" fill="#8CD3E4"/>
<path d="M35.2574 63.4215C35.3559 63.4684 35.4713 63.4469 35.5484 63.3707L36.7043 62.2088C36.7458 62.1671 36.7717 62.1124 36.7782 62.0538C37.7123 53.3319 40.0246 44.8738 42.2618 36.6947C42.6125 35.4123 42.9586 34.1443 43.2957 32.8886C43.3262 32.7759 43.2769 32.656 43.1765 32.598C43.1363 32.5745 43.0922 32.5634 43.0481 32.5634C42.982 32.5634 42.9159 32.5889 42.8666 32.6391L41.9033 33.6073C41.8385 33.5428 41.7451 33.5194 41.657 33.5415C41.5681 33.565 41.4988 33.6341 41.4748 33.7233C41.2447 34.5724 41.0119 35.4253 40.776 36.2855C38.4118 44.9325 35.9672 53.8733 35.1115 63.1654C35.1011 63.2729 35.1595 63.3759 35.2574 63.4215Z" fill="#8CD3E4"/>
<path d="M30.5331 67.7853C30.5325 67.8212 30.548 67.8531 30.561 67.885C30.5448 67.9183 30.5279 67.9528 30.5273 67.9919C30.4126 74.974 31.4323 81.3136 33.6448 87.3724C33.6752 87.4551 33.7452 87.5163 33.8308 87.5359C33.9144 87.5548 34.0052 87.5287 34.0674 87.4662L34.7896 86.7409C34.8596 86.6706 34.8836 86.565 34.8492 86.4705C32.8746 80.9885 31.9301 75.2483 31.9625 68.9224C31.9632 68.8533 31.936 68.7875 31.8873 68.7387L31.0485 67.8955L31.934 67.0054C31.9794 66.9597 32.0066 66.8978 32.0092 66.8327C32.4299 55.98 35.5474 45.4948 38.5618 35.3543C38.9417 34.0778 39.3164 32.8149 39.682 31.5644C39.7085 31.4745 39.6833 31.3761 39.6171 31.3097L38.7893 30.4776C38.7407 30.4287 38.6752 30.4019 38.6078 30.4019C38.5871 30.4019 38.565 30.4046 38.5443 30.4098C38.4568 30.4326 38.3867 30.5003 38.3615 30.587C37.9472 32.0101 37.5194 33.4509 37.0857 34.9099C34.1219 44.8809 30.7626 56.1806 30.5331 67.7853Z" fill="#8CD3E4"/>
<path d="M53.0694 23.0355C53.0843 22.9254 53.0285 22.8186 52.9294 22.769C52.8931 22.7508 52.8542 22.7417 52.8153 22.7417C52.7485 22.7417 52.683 22.7678 52.6338 22.8173L51.4144 24.0436C51.3755 24.0827 51.3502 24.1329 51.3424 24.187C50.6086 28.9933 49.4703 33.988 48.2652 39.2759C46.7936 45.7347 45.2722 52.4131 44.3724 59.3177C44.3626 59.3965 44.3892 59.4773 44.4456 59.5334L45.3707 60.4632C45.4407 60.5329 45.5425 60.5557 45.6358 60.5245C45.7285 60.4925 45.7946 60.4098 45.807 60.312C46.6776 53.1801 48.2483 46.2873 49.7665 39.6212C51.0903 33.8107 52.3407 28.3228 53.0694 23.0355Z" fill="#8CD3E4"/>
<path d="M25.6012 50.2673C25.5616 50.2445 25.5182 50.2335 25.4741 50.2335C25.408 50.2335 25.3419 50.2589 25.2926 50.309L23.8878 51.7218C23.8541 51.7556 23.8301 51.7986 23.8197 51.8456C20.8572 64.4818 21.0128 74.8431 24.3092 84.4532C24.3215 84.4897 24.3429 84.5236 24.3701 84.5516L26.1677 86.3586C26.254 86.4452 26.3901 86.4596 26.4906 86.3911C26.5923 86.3234 26.6332 86.1937 26.5872 86.0796C22.4941 75.8277 22.2192 64.5397 25.723 50.5547C25.7515 50.442 25.7016 50.324 25.6012 50.2673Z" fill="#8CD3E4"/>
<path d="M70.6666 62.6252C70.6375 62.6252 70.6076 62.6305 70.5798 62.6402C70.4858 62.6741 70.4203 62.7595 70.4106 62.8585C70.0326 66.806 69.7934 70.3346 69.6793 73.6454C69.6761 73.7517 69.737 73.8494 69.8336 73.8917C69.9322 73.9335 70.043 73.9126 70.1176 73.837L71.1865 72.7612C71.2319 72.7156 71.2585 72.6543 71.2617 72.5898C71.3784 69.8569 71.5755 66.9996 71.8646 63.8542C71.8717 63.778 71.8445 63.7024 71.7901 63.6483L70.8475 62.7009C70.7995 62.6513 70.7334 62.6252 70.6666 62.6252Z" fill="#8CD3E4"/>
<path d="M74.6201 66.7036C74.5261 66.7381 74.4613 66.8247 74.4529 66.9251C74.4049 67.5194 74.3608 68.1156 74.3181 68.7112L74.2973 68.9895C74.2895 69.097 74.3492 69.198 74.4471 69.243C74.5443 69.2873 74.6597 69.2664 74.7355 69.1909L75.8382 68.0811C75.9387 67.9801 75.9387 67.8172 75.8382 67.7162L74.8905 66.7642C74.8412 66.7146 74.7757 66.6886 74.709 66.6886C74.6791 66.6879 74.6493 66.6931 74.6201 66.7036Z" fill="#8CD3E4"/>
<path d="M66.6771 58.6145C66.6486 58.6145 66.62 58.6191 66.5922 58.6288C66.4995 58.6608 66.4333 58.7449 66.4217 58.8433C65.5504 66.4933 65.2127 72.4139 65.3268 78.0393C65.3287 78.1429 65.3922 78.2347 65.4875 78.2738C65.5828 78.3116 65.6924 78.2902 65.765 78.2172L66.7769 77.1993C66.8255 77.1505 66.8528 77.0833 66.8521 77.0143C66.8002 71.987 67.1205 66.5278 67.8608 59.835C67.8692 59.7568 67.842 59.6793 67.7869 59.6239L66.8586 58.6908C66.8093 58.6406 66.7438 58.6145 66.6771 58.6145Z" fill="#8CD3E4"/>
<path d="M73.5409 24.9609C73.6349 24.9974 73.7425 24.9753 73.8145 24.9023L74.7305 23.9816C74.783 23.9288 74.8102 23.8558 74.805 23.7815C74.7493 22.9559 74.678 22.1316 74.5937 21.3327C74.5879 21.2741 74.5613 21.2193 74.5198 21.1776L73.4268 20.0777C73.3776 20.0282 73.3121 20.0021 73.2453 20.0021C73.2071 20.0021 73.1688 20.0106 73.1325 20.0282C73.034 20.0764 72.977 20.1826 72.9906 20.2921C73.1675 21.7244 73.2978 23.2185 73.3763 24.7335C73.3815 24.8352 73.4463 24.9238 73.5409 24.9609Z" fill="#8CD3E4"/>
<path d="M34.1227 18.9268C34.0929 19.0396 34.1415 19.1594 34.2427 19.2174C34.3432 19.2767 34.4696 19.2598 34.5525 19.1764L35.9858 17.7357C36.0189 17.7024 36.0422 17.6607 36.0533 17.6145C37.0995 13.3151 37.5358 9.69794 37.388 6.55648C37.3848 6.49197 37.3582 6.43139 37.3135 6.38578L36.1654 5.23304C36.1161 5.18351 36.0507 5.15747 35.9839 5.15747C35.9463 5.15747 35.9087 5.16529 35.873 5.18288C35.7752 5.2298 35.7168 5.33407 35.7285 5.44224C36.1103 9.10043 35.6001 13.3848 34.1227 18.9268Z" fill="#8CD3E4"/>
<path d="M26.2244 31.1435L26.2172 31.1624C25.3499 33.4939 24.4527 35.9049 23.5847 38.355C23.551 38.4488 23.5749 38.5537 23.645 38.6241L24.4494 39.4328C24.5123 39.496 24.6037 39.522 24.688 39.5018C24.7742 39.4829 24.8442 39.4197 24.8734 39.3363C25.7978 36.7083 26.7488 34.1553 27.668 31.6857C31.6211 21.0643 35.3557 11.032 33.9846 3.10963C33.9756 3.0575 33.9509 3.0086 33.9133 2.97146L32.598 1.65128C32.5481 1.60111 32.4826 1.57571 32.4165 1.57571C32.3718 1.57571 32.327 1.58746 32.2869 1.61091C32.1864 1.67021 32.1378 1.79009 32.1695 1.90347C34.2815 9.49938 30.5476 19.5297 26.2244 31.1435Z" fill="#8CD3E4"/>
<path d="M63.8753 55.6945L62.9606 54.775C62.9113 54.7255 62.8465 54.6995 62.7791 54.6995C62.7512 54.6995 62.724 54.704 62.6968 54.7131C62.6047 54.7444 62.5373 54.8259 62.525 54.9236C61.4677 62.8408 60.5024 72.2541 61.3633 82.0355C61.3724 82.1352 61.4379 82.2212 61.5312 82.2551C61.6246 82.2896 61.7309 82.2668 61.8002 82.1952L62.7545 81.2353C62.8076 81.1819 62.8349 81.1076 62.829 81.0327C62.1185 71.8116 63.054 62.7632 63.9492 55.9115C63.9589 55.8313 63.9323 55.7505 63.8753 55.6945Z" fill="#8CD3E4"/>
<path d="M10.3486 25.2595C10.4069 25.3181 10.4925 25.3441 10.5703 25.3318C10.6513 25.3187 10.722 25.2673 10.7589 25.1936C12.3964 21.9557 13.9762 18.8032 15.3013 15.8266C15.3518 15.7133 15.3149 15.579 15.2124 15.5087C15.1684 15.4787 15.1178 15.463 15.0672 15.463C15.0011 15.463 14.9356 15.4884 14.8857 15.5386L12.7756 17.6609C12.7549 17.6818 12.738 17.7059 12.7257 17.7326C11.7916 19.7057 10.7758 21.7414 9.5376 24.1921C9.48704 24.2918 9.50583 24.4123 9.58492 24.4918L10.3486 25.2595Z" fill="#8CD3E4"/>
<path d="M69.7017 28.4055C69.6985 28.511 69.7601 28.6081 69.8567 28.6498C69.9533 28.6915 70.0661 28.6706 70.14 28.5951L71.1538 27.5759C71.2012 27.5284 71.2284 27.4638 71.229 27.3967C71.2802 23.7587 71.0942 20.4778 70.6605 17.3676C70.6527 17.3123 70.6274 17.2608 70.5879 17.221L69.4541 16.0807C69.4048 16.0312 69.3394 16.0051 69.2726 16.0051C69.2324 16.0051 69.1922 16.0142 69.1553 16.0338C69.0561 16.0846 69.001 16.1947 69.0191 16.3049C69.6116 19.9155 69.8353 23.8741 69.7017 28.4055Z" fill="#8CD3E4"/>
<path d="M65.575 32.5359C65.564 32.6448 65.6224 32.7484 65.7203 32.7953C65.8181 32.8415 65.9355 32.8207 66.012 32.7445L67.1322 31.6178C67.1749 31.5748 67.2015 31.5181 67.2067 31.4575C67.8303 24.2695 67.6696 18.5235 66.7017 13.3744C66.692 13.3236 66.6674 13.2767 66.6311 13.2395L65.4058 12.0067C65.3566 11.9565 65.2911 11.9311 65.2243 11.9311C65.1822 11.9311 65.1394 11.9415 65.1005 11.963C65 12.0184 64.9488 12.1337 64.9735 12.2458C66.2259 17.8413 66.4113 24.0988 65.575 32.5359Z" fill="#8CD3E4"/>
<path d="M19.1555 28.8513L19.0699 29.054C18.6038 30.1513 18.1332 31.2616 17.6612 32.3831C17.6204 32.4795 17.6424 32.5916 17.7163 32.6659L18.5007 33.4543C18.5617 33.5156 18.6505 33.5436 18.7315 33.5247C18.8158 33.5084 18.8858 33.4511 18.9188 33.3722C19.4718 32.0521 20.0254 30.7469 20.5719 29.4593C24.7525 19.6153 28.701 10.3166 27.9847 3.00481C27.975 2.90576 27.9089 2.82106 27.8149 2.78718C27.787 2.77675 27.7578 2.77219 27.7286 2.77219C27.6612 2.77219 27.5964 2.79823 27.5471 2.84775L26.6286 3.77113C26.5773 3.82261 26.5501 3.89363 26.554 3.96661C26.8898 10.6379 23.3056 19.0783 19.1555 28.8513Z" fill="#8CD3E4"/>
<path d="M36.8649 84.4766C36.9524 84.4994 37.0477 84.4746 37.1119 84.4094L37.9721 83.546C38.0363 83.4815 38.0616 83.387 38.0396 83.2984C37.2163 80.1179 36.6905 76.8018 36.476 73.4421C36.4721 73.3795 36.4455 73.3209 36.4014 73.2759L35.3 72.1688C35.2508 72.1193 35.1853 72.0932 35.1185 72.0932C35.0835 72.0932 35.0485 72.1004 35.0154 72.1147C34.9188 72.1577 34.8573 72.2561 34.8618 72.3623C35.0401 76.5001 35.6533 80.5147 36.6828 84.2947C36.7067 84.384 36.7761 84.4531 36.8649 84.4766Z" fill="#8CD3E4"/>
<path d="M8.53611 68.6675L9.64657 69.7851C9.72177 69.8607 9.83391 69.8815 9.93115 69.8392C10.0277 69.7962 10.0887 69.6977 10.0848 69.5922C10.0381 68.4825 10.0303 67.3597 10.0621 66.2546C10.0653 66.149 10.0031 66.0519 9.90717 66.0102C9.87411 65.9959 9.83975 65.9888 9.80539 65.9888C9.73862 65.9888 9.67315 66.0148 9.62388 66.0643L8.53158 67.1623C8.48361 67.2099 8.45703 67.2751 8.45638 67.3428C8.45314 67.7247 8.45508 68.1072 8.46092 68.489C8.46156 68.5561 8.48879 68.62 8.53611 68.6675Z" fill="#8CD3E4"/>
<path d="M52.4155 68.3633C52.0985 75.9494 52.7332 82.7432 54.3558 89.1343C54.3785 89.2242 54.4478 89.2946 54.5366 89.3193C54.6248 89.3428 54.7207 89.318 54.7862 89.2529L55.6361 88.3979C55.6996 88.3347 55.7255 88.2416 55.7035 88.1543C52.3157 74.192 54.3026 60.2969 56.4315 48.3677C56.4464 48.2843 56.4198 48.1996 56.3602 48.1396L55.4766 47.2515C55.428 47.202 55.3625 47.1759 55.2951 47.1759C55.2698 47.1759 55.2432 47.1798 55.2186 47.1876C55.1272 47.2163 55.0598 47.2932 55.0423 47.3883C53.913 53.6549 52.8174 60.4253 52.457 67.4673C52.4531 67.5396 52.4804 67.6113 52.5316 67.6628L52.774 67.9065L52.4907 68.1913C52.4454 68.2369 52.4188 68.2981 52.4155 68.3633Z" fill="#8CD3E4"/>
<path d="M60.0609 51.8591L59.1624 50.956C59.1132 50.9065 59.0484 50.8804 58.9809 50.8804C58.9544 50.8804 58.9271 50.8843 58.9012 50.8928C58.8091 50.9228 58.7424 51.0022 58.7275 51.098C57.0167 62.0328 55.7079 73.7991 57.6948 85.7485C57.711 85.8443 57.7778 85.9225 57.8698 85.9525C57.9625 85.9825 58.0624 85.9584 58.1298 85.8893L59.0289 84.9848C59.0873 84.9262 59.1138 84.8441 59.1009 84.7626C57.3376 73.3762 58.555 62.3267 60.1335 52.0813C60.1452 51.9999 60.1186 51.9171 60.0609 51.8591Z" fill="#8CD3E4"/>
<path d="M50.0073 87.7573L51.5021 89.2619C51.5851 89.346 51.7141 89.3623 51.8146 89.301C51.9157 89.2411 51.963 89.1192 51.93 89.0059C50.3508 83.6163 49.5632 77.9876 49.5217 71.7979C49.5211 71.6936 49.4582 71.6004 49.3622 71.5607C49.3305 71.5483 49.2974 71.5418 49.265 71.5418C49.1982 71.5418 49.1328 71.5679 49.0835 71.6174L48.0573 72.6496C48.0074 72.6997 47.9808 72.7669 47.9821 72.8373C48.0858 78.103 48.727 82.9445 49.9405 87.6407C49.9515 87.6843 49.9742 87.7248 50.0073 87.7573Z" fill="#8CD3E4"/>
<path d="M43.8735 76.9874C44.0362 78.7136 44.2845 80.4886 44.6125 82.2629C44.6216 82.3144 44.6469 82.362 44.6832 82.3985L46.0102 83.7343C46.0912 83.8157 46.215 83.8333 46.3148 83.7786C46.4147 83.7238 46.4665 83.6098 46.4432 83.4977C45.9246 81.0698 45.5577 78.5376 45.3515 75.9709C45.3437 75.8706 45.2783 75.7839 45.1843 75.7494C45.1551 75.7389 45.1253 75.7337 45.0955 75.7337C45.0287 75.7337 44.9632 75.7598 44.914 75.8093L43.9474 76.7808C43.8936 76.8356 43.8664 76.9112 43.8735 76.9874Z" fill="#8CD3E4"/>
<path d="M41.2124 78.1107L40.0183 76.9105C39.969 76.861 39.9036 76.8349 39.8368 76.8349C39.7992 76.8349 39.7609 76.8433 39.7253 76.8603C39.6267 76.9079 39.5691 77.0128 39.5814 77.1216C39.7324 78.4711 39.9061 79.6831 40.1103 80.8267C40.1272 80.9212 40.1953 80.9987 40.2867 81.0274C40.3781 81.0548 40.4766 81.032 40.5447 80.9635L41.4568 80.0487C41.5158 79.9894 41.5423 79.906 41.5287 79.8239C41.4425 79.3019 41.3569 78.78 41.2856 78.2587C41.2779 78.2026 41.2526 78.1505 41.2124 78.1107Z" fill="#8CD3E4"/>
</svg>
