<svg width="22" height="20" viewBox="0 0 22 20" fill="none" xmlns="http://www.w3.org/2000/svg">
<path d="M11.449 15.2864C11.2041 15.1232 10.7143 15.1232 10.3877 15.2864L5.2446 18.8785C4.99969 19.0417 4.83642 18.9601 4.91805 18.6336L6.46916 13.0823C6.55079 12.7557 6.46915 12.2659 6.22424 12.021L2.1424 7.8575C1.89749 7.61258 1.97913 7.36767 2.30568 7.36767L7.69371 6.87785C8.02026 6.87785 8.42844 6.55131 8.59171 6.22476L10.7959 1.24491C10.9592 0.918363 11.1225 0.918363 11.2857 1.24491L13.4083 6.22476C13.5716 6.55131 13.8981 6.79622 14.3063 6.87785L19.6943 7.36767C20.0209 7.36767 20.1025 7.61258 19.8576 7.8575L15.7758 12.021C15.5308 12.2659 15.4492 12.7557 15.5308 13.0823L17.0819 18.6336C17.1636 18.9601 17.0003 19.0417 16.7554 18.8785L11.449 15.2864Z" fill="white" stroke="white" stroke-width="2" stroke-miterlimit="10" stroke-linecap="round" stroke-linejoin="round"/>
</svg>
