<svg width="23" height="25" viewBox="0 0 23 25" fill="none" xmlns="http://www.w3.org/2000/svg">
<path d="M17.5692 23.1307C19.5749 23.1307 21.2009 21.5047 21.2009 19.499C21.2009 17.4933 19.5749 15.8673 17.5692 15.8673C15.5635 15.8673 13.9375 17.4933 13.9375 19.499C13.9375 21.5047 15.5635 23.1307 17.5692 23.1307Z" stroke="#8CD3E4" stroke-width="2" stroke-miterlimit="10" stroke-linecap="round" stroke-linejoin="round"/>
<path d="M17.5692 8.26337C19.5749 8.26337 21.2009 6.63741 21.2009 4.63168C21.2009 2.62596 19.5749 1 17.5692 1C15.5635 1 13.9375 2.62596 13.9375 4.63168C13.9375 6.63741 15.5635 8.26337 17.5692 8.26337Z" stroke="#8CD3E4" stroke-width="2" stroke-miterlimit="10" stroke-linecap="round" stroke-linejoin="round"/>
<path d="M4.63168 15.7538C6.63741 15.7538 8.26337 14.1279 8.26337 12.1222C8.26337 10.1164 6.63741 8.49048 4.63168 8.49048C2.62596 8.49048 1 10.1164 1 12.1222C1 14.1279 2.62596 15.7538 4.63168 15.7538Z" stroke="#8CD3E4" stroke-width="2" stroke-miterlimit="10" stroke-linecap="round" stroke-linejoin="round"/>
<path d="M7.69531 10.3062L14.3912 6.44757" stroke="#8CD3E4" stroke-width="2" stroke-miterlimit="10" stroke-linecap="round" stroke-linejoin="round"/>
<path d="M14.3912 17.7966L7.69531 13.8245" stroke="#8CD3E4" stroke-width="2" stroke-miterlimit="10" stroke-linecap="round" stroke-linejoin="round"/>
</svg>
