<svg width="21" height="21" viewBox="0 0 21 21" fill="none" xmlns="http://www.w3.org/2000/svg">
<path d="M13.6622 10.4967C13.6622 12.2407 12.2473 13.6556 10.5033 13.6556C8.75932 13.6556 7.3444 12.2407 7.3444 10.4967C7.3444 8.75274 8.75932 7.33783 10.5033 7.33783C12.2473 7.33783 13.6622 8.75932 13.6622 10.4967ZM10.5033 0C4.712 0 0 4.712 0 10.5033C0 16.2946 4.712 21 10.5033 21C12.6224 21 14.6691 20.3682 16.4196 19.1705L16.4525 19.1507L15.0376 17.5055L15.0113 17.5187C13.6622 18.3808 12.1091 18.8414 10.5033 18.8414C5.90316 18.8414 2.15857 15.0968 2.15857 10.4967C2.15857 5.89658 5.90316 2.15199 10.5033 2.15199C15.1034 2.15199 18.848 5.89658 18.848 10.4967C18.848 11.0956 18.7822 11.6945 18.6506 12.2933C18.3873 13.3792 17.6305 13.7082 17.058 13.6622C16.4854 13.6161 15.8142 13.2081 15.8076 12.2078V10.4967C15.8076 7.56816 13.4253 5.18584 10.4967 5.18584C7.56816 5.18584 5.18583 7.56816 5.18583 10.4967C5.18583 13.4253 7.56816 15.8076 10.4967 15.8076C11.9182 15.8076 13.2541 15.2482 14.261 14.2413C14.8468 15.1495 15.801 15.722 16.8869 15.8076C16.979 15.8142 17.0777 15.8207 17.1698 15.8207C17.9332 15.8207 18.6901 15.5641 19.3021 15.1034C19.9339 14.623 20.4011 13.932 20.6578 13.1028C20.6973 12.9712 20.7762 12.6619 20.7762 12.6619V12.6487C20.9276 11.984 21 11.3193 21 10.4967C21.0066 4.712 16.2946 0 10.5033 0Z" fill="white"/>
</svg>
