<svg width="33" height="52" viewBox="0 0 33 52" fill="none" xmlns="http://www.w3.org/2000/svg">
<path d="M29.0494 51.171H2.08218C0.973368 51.171 0.0736889 50.2727 0.0715835 49.1639L2.19809e-06 3.75116C-0.00140136 2.79253 0.669498 1.96934 1.60848 1.77705C4.35383 1.21563 10.3414 0.384728 17.4883 1.80583C18.4301 1.9932 19.1122 2.822 19.1122 3.78274V10.8868C19.1122 20.1124 16.5809 32.6125 18.2441 36.1607C20.5831 41.151 31.5 38.5776 31.5 45.5175C31.5 45.5175 31.5 47.8046 30.9905 49.6944C30.7547 50.5689 29.9547 51.171 29.0494 51.171Z" stroke="#553091" stroke-width="1.5" stroke-miterlimit="10" stroke-linecap="round" stroke-linejoin="round" stroke-dasharray="4 6"/>
<path d="M26.2557 47.7821H6.18624C4.23811 47.7821 3.65563 47.1954 3.65423 46.4712L3.59668 6.46844C3.59598 5.81719 4.06757 5.26278 4.71181 5.16804C6.22975 4.94488 9.34143 4.69996 14.3255 5.24524C14.9936 5.31822 15.5051 5.87964 15.5051 6.55195V11.037C15.5051 20.7875 11.0622 36.4694 16.6161 40.645C21.8927 44.6122 27.5926 42.6128 27.5926 45.462C27.5926 45.462 27.6403 45.9568 27.5582 46.6249C27.4775 47.2831 26.9196 47.7821 26.2557 47.7821Z" stroke="#553091" stroke-width="1.5" stroke-miterlimit="10"/>
</svg>
