<svg width="60" height="66" viewBox="0 0 60 66" fill="none" xmlns="http://www.w3.org/2000/svg">
<path d="M45.7657 38.612C49.7368 38.3331 58.9978 38.1384 59 32.9967C58.9978 27.9989 50.352 27.7045 45.7657 27.3813C24.2251 2.39222 23.826 1.00443 21.0235 1L18.2254 1.00221L30.9922 28.021L13.2818 29.3247L6.36033 21.6531H1L8.09565 32.4079L1.01102 44.2119L6.36474 44.2141L13.284 36.5425L30.9944 37.8484L18.2276 65H21.0213C23.8238 65 24.1766 63.6609 45.7612 38.6187L45.7657 38.612Z" stroke="#553091" stroke-width="2" stroke-miterlimit="10" stroke-linecap="round" stroke-linejoin="round"/>
<path d="M5 51H18" stroke="#8CD3E4" stroke-width="2" stroke-linecap="round" stroke-linejoin="round"/>
<path d="M5 15H18" stroke="#8CD3E4" stroke-width="2" stroke-linecap="round" stroke-linejoin="round"/>
<path d="M8 56H15" stroke="#8CD3E4" stroke-width="2" stroke-linecap="round" stroke-linejoin="round"/>
<path d="M8 10H15" stroke="#8CD3E4" stroke-width="2" stroke-linecap="round" stroke-linejoin="round"/>
</svg>
