<svg width="30" height="30" viewBox="0 0 30 30" fill="none" xmlns="http://www.w3.org/2000/svg">
<path d="M10.7391 27.7826C10.7391 28.4522 10.1913 29 9.52174 29H2.21739C1.54783 29 1 28.4522 1 27.7826V2.21739C1 1.54783 1.54783 1 2.21739 1H9.52174C10.1913 1 10.7391 1.54783 10.7391 2.21739V27.7826Z" stroke="#553091" stroke-width="2" stroke-miterlimit="10" stroke-linecap="round" stroke-linejoin="round"/>
<path d="M10.7354 5.79651L13.0727 2.03477C13.4258 1.46868 14.1867 1.28607 14.7527 1.63303L20.9554 5.41912C21.5275 5.76607 21.698 6.51477 21.3327 7.07477L10.924 23.193" stroke="#553091" stroke-width="2" stroke-miterlimit="10" stroke-linecap="round" stroke-linejoin="round"/>
<path d="M18.3197 11.7435L23.1467 8.94954C23.7249 8.61476 24.4736 8.81563 24.8084 9.39389L28.2597 15.3652C28.5945 15.9435 28.3936 16.6922 27.8154 17.0269L10.7354 26.9122" stroke="#553091" stroke-width="2" stroke-miterlimit="10" stroke-linecap="round" stroke-linejoin="round"/>
<path d="M23.9666 19.2608H27.7831C28.4526 19.2608 29.0005 19.8087 29.0005 20.4782V27.7826C29.0005 28.4522 28.4526 29 27.7831 29H8.35352" stroke="#553091" stroke-width="2" stroke-miterlimit="10" stroke-linecap="round" stroke-linejoin="round"/>
</svg>
