<svg width="22" height="22" viewBox="0 0 22 22" fill="none" xmlns="http://www.w3.org/2000/svg">
<path d="M6.94305 1.72606C6.14317 0.837299 4.81004 0.748424 3.92128 1.54831L1.34388 4.03683C0.0107467 5.36996 2.67702 10.0804 7.20968 14.7019C11.8312 19.3235 16.6305 21.9897 17.9636 20.6566L20.3633 17.9903C21.1632 17.1016 21.0743 15.7684 20.1855 14.9685L18.3191 13.3688C17.697 12.8355 16.8971 12.7466 16.1861 13.1022L15.0307 13.6354C14.3197 13.9909 12.0333 13.9909 11.5 13.3688L8.18731 10C7.56518 9.46675 7.83181 7.59186 8.18731 6.79197L8.72057 5.63659C9.07607 4.92558 8.9872 4.1257 8.45394 3.50357L6.94305 1.72606Z" stroke="#8CD3E4" stroke-width="2" stroke-miterlimit="10" stroke-linecap="round" stroke-linejoin="round"/>
</svg>
