<svg width="40" height="39" viewBox="0 0 40 39" fill="none" xmlns="http://www.w3.org/2000/svg">
<path d="M10.5732 13.7034C13.2168 13.4337 15.6985 13.7034 18.3421 13.9732C21.5252 14.2969 24.9241 14.6206 28.8625 14.135C28.9704 13.5955 28.9164 13.056 28.7546 12.5165C24.8701 13.056 21.6331 12.6784 18.504 12.3547C16.0222 12.0849 13.5405 11.8691 10.9509 12.031C10.6811 12.5705 10.5732 13.11 10.5732 13.7034Z" fill="#282A61"/>
<path d="M15.8072 0C15.1059 0.269753 14.4585 0.593456 13.9189 1.02506C15.5914 1.72642 17.4257 2.26592 19.6917 2.26592C21.4181 2.26592 23.4682 1.94222 25.842 1.13296C25.3025 0.701357 24.6551 0.323703 23.8998 0C20.447 0.917159 17.9113 0.647406 15.8072 0Z" fill="#282A61"/>
<path d="M12.3559 17.3181C15.0534 16.9944 17.697 17.1562 20.4485 17.2641C22.6065 17.372 24.8185 17.4799 27.1923 17.372C27.3541 16.9404 27.516 16.5628 27.6239 16.1312C27.7857 16.0233 27.9476 15.8614 28.1094 15.6996C25.4119 15.8614 22.9302 15.7535 20.5564 15.6456C17.5891 15.4838 14.6758 15.3759 11.6006 15.8075C11.7085 15.9154 11.8703 16.0233 11.9782 16.1312C12.0861 16.5628 12.194 16.9404 12.3559 17.3181Z" fill="#282A61"/>
<path d="M13.5404 1.9962C13.3786 1.94225 13.2167 1.8883 13.0549 1.83435C12.7312 2.26595 12.4074 2.69756 12.1377 3.23706C12.4074 3.34497 12.7312 3.45287 13.0009 3.56077C15.3747 4.42398 17.9104 5.28718 21.0935 5.28718C23.0357 5.28718 25.1937 4.96348 27.7294 4.15422C27.5675 3.61472 27.3517 3.12916 27.028 2.64361C20.8237 4.58583 17.0472 3.23706 13.5404 1.9962Z" fill="#282A61"/>
<path d="M16.6714 8.95576C14.8911 8.63205 13.1107 8.3623 11.2764 8.30835V9.92687C13.0028 9.98082 14.6213 10.3045 16.4017 10.5743C19.8545 11.1677 23.5231 11.7612 28.1629 10.9519V9.27946C23.5771 10.1427 20.0703 9.54921 16.6714 8.95576Z" fill="#282A61"/>
<path d="M15.0517 5.50299C13.9187 5.23324 12.7858 4.90953 11.5989 4.74768C11.491 5.23324 11.3831 5.77274 11.3291 6.3662C12.4081 6.582 13.4871 6.85175 14.6201 7.1215C18.3427 8.09261 22.389 9.06372 28.1617 7.60706V7.1215C28.1617 6.6899 28.1077 6.31225 28.1077 5.93459C22.4969 7.39126 18.6664 6.42015 15.0517 5.50299Z" fill="#282A61"/>
<path d="M13.8105 24.8173C17.4792 24.008 21.0399 23.9001 24.7086 23.7383C24.6546 23.6843 24.6546 23.5764 24.6007 23.5225V22.1198C21.3636 22.2277 18.1805 22.3356 14.8896 22.929V23.5225C14.7817 23.9001 14.404 24.3317 13.8105 24.8173Z" fill="#282A61"/>
<path d="M37.388 35.6074C38.0894 35.5534 38.7907 35.4455 39.4921 35.3916V33.7731C38.7368 33.881 37.9815 33.9349 37.1722 34.0428C29.9428 34.8521 22.4977 35.7153 14.8906 38.5747H20.0699C26.0044 36.9022 31.7771 36.2548 37.388 35.6074Z" fill="#282A61"/>
<path d="M33.9359 32.748C35.7702 32.5861 37.6585 32.3703 39.5467 32.1545C39.5467 31.5611 39.1691 31.0755 38.6296 30.8597C38.4677 30.8058 38.3059 30.7518 38.144 30.6439C36.6874 30.8058 35.2307 30.9676 33.774 31.1295C24.9262 31.9927 15.8625 32.9098 6.15137 38.5207H9.4963C17.8586 34.3665 25.7354 33.5573 33.9359 32.748Z" fill="#282A61"/>
<path d="M39.5479 37.1719V37.0101C36.0411 37.4417 32.4264 37.8733 28.7578 38.6286H38.1452C38.9005 38.5746 39.5479 37.9272 39.5479 37.1719Z" fill="#282A61"/>
<path d="M22.7136 20.5552C23.6307 20.5552 24.5479 20.5552 25.465 20.5552C25.8427 20.0696 26.1664 19.5301 26.4901 18.9366C25.1953 18.9906 23.9544 18.9366 22.7136 18.9366C19.5844 18.9366 16.5093 18.9366 13.3262 19.4222C13.6499 19.9617 13.9736 20.4473 14.3512 20.8789C17.1027 20.5012 19.8542 20.5552 22.7136 20.5552Z" fill="#282A61"/>
<path d="M27.8385 26.8134C28.2161 26.8134 28.5938 26.7595 28.9714 26.7595C28.0003 26.2739 27.0832 25.7884 26.3818 25.3028C17.9116 25.7884 9.7111 26.6516 0 33.773V35.8232C10.3046 27.8924 18.8287 27.3529 27.8385 26.8134Z" fill="#282A61"/>
<path d="M1.40323 38.5746H2.32039C12.4631 31.3452 21.3649 30.5899 30.7523 29.8346C32.155 29.7267 33.5577 29.6188 35.0144 29.457C33.9354 29.0254 32.8564 28.5398 31.8853 28.1082C31.4537 28.1622 31.076 28.1622 30.6444 28.2161C20.7175 29.0254 11.2762 29.8346 0.324219 38.0351C0.540021 38.3588 0.971625 38.5746 1.40323 38.5746Z" fill="#282A61"/>
</svg>
