<svg width="45" height="44" viewBox="0 0 45 44" fill="none" xmlns="http://www.w3.org/2000/svg">
<path d="M43.8917 12.9298C43.7832 10.5899 43.4093 8.98575 42.8665 7.58662C42.2996 6.13925 41.5518 4.90899 40.3336 3.69079C39.1154 2.47259 37.8852 1.71272 36.4378 1.15789C35.0387 0.615132 33.4345 0.241228 31.0946 0.132675C28.7426 0.0241228 27.9948 0 22.0244 0C16.042 0 15.2942 0.0241228 12.9542 0.132675C10.6143 0.241228 9.01016 0.615132 7.61104 1.15789C6.16367 1.72478 4.93341 2.47259 3.7152 3.69079C2.497 4.90899 1.73713 6.13925 1.18231 7.58662C0.639546 8.98575 0.265642 10.5899 0.157089 12.9298C0.0485369 15.2818 0.0244141 16.0296 0.0244141 22C0.0244141 27.9825 0.0485369 28.7303 0.157089 31.0702C0.265642 33.4101 0.639546 35.0143 1.18231 36.4134C1.74919 37.8607 2.497 39.091 3.7152 40.3092C4.93341 41.5274 6.16367 42.2873 7.61104 42.8421C9.01016 43.3849 10.6143 43.7588 12.9542 43.8673C15.3062 43.9759 16.054 44 22.0244 44C28.0069 44 28.7547 43.9759 31.0946 43.8673C33.4345 43.7588 35.0387 43.3849 36.4378 42.8421C37.8852 42.2752 39.1154 41.5274 40.3336 40.3092C41.5518 39.091 42.3117 37.8607 42.8665 36.4134C43.4093 35.0143 43.7832 33.4101 43.8917 31.0702C44.0003 28.7182 44.0244 27.9704 44.0244 22C44.0244 16.0296 44.0003 15.2697 43.8917 12.9298ZM39.9356 30.8893C39.8391 33.0362 39.4773 34.2061 39.1757 34.9781C38.7777 36.0033 38.2952 36.739 37.5233 37.511C36.7514 38.2829 36.0156 38.7533 34.9904 39.1634C34.2185 39.4649 33.0485 39.8268 30.9016 39.9232C28.5858 40.0318 27.8863 40.0559 22.0124 40.0559C16.1385 40.0559 15.4389 40.0318 13.1231 39.9232C10.9762 39.8268 9.80621 39.4649 9.03428 39.1634C8.00906 38.7654 7.27332 38.2829 6.50139 37.511C5.72946 36.739 5.25906 36.0033 4.84898 34.9781C4.54744 34.2061 4.1856 33.0362 4.08911 30.8893C3.98055 28.5735 3.95643 27.8739 3.95643 22C3.95643 16.1261 3.98055 15.4265 4.08911 13.1107C4.1856 10.9638 4.54744 9.79386 4.84898 9.02193C5.247 7.99671 5.72946 7.26096 6.50139 6.48904C7.27332 5.71711 8.00906 5.24671 9.03428 4.83662C9.80621 4.53509 10.9762 4.17325 13.1231 4.07675C15.4389 3.9682 16.1385 3.94408 22.0124 3.94408C27.8863 3.94408 28.5858 3.9682 30.9016 4.07675C33.0485 4.17325 34.2185 4.53509 34.9904 4.83662C36.0156 5.23465 36.7514 5.71711 37.5233 6.48904C38.2952 7.26096 38.7656 7.99671 39.1757 9.02193C39.4773 9.79386 39.8391 10.9638 39.9356 13.1107C40.0442 15.4265 40.0683 16.1261 40.0683 22C40.0683 27.8739 40.0321 28.5735 39.9356 30.8893Z" fill="url(#paint0_linear)"/>
<path d="M22.0115 10.6984C15.7637 10.6984 10.71 15.7642 10.71 21.9999C10.71 28.2477 15.7758 33.3014 22.0115 33.3014C28.2472 33.3014 33.313 28.2356 33.313 21.9999C33.313 15.7521 28.2593 10.6984 22.0115 10.6984ZM22.0115 29.3332C17.9589 29.3332 14.6782 26.0525 14.6782 21.9999C14.6782 17.9473 17.9589 14.6666 22.0115 14.6666C26.0641 14.6666 29.3448 17.9473 29.3448 21.9999C29.3448 26.0525 26.0641 29.3332 22.0115 29.3332Z" fill="url(#paint1_linear)"/>
<path d="M33.7596 12.8936C35.2184 12.8936 36.4011 11.711 36.4011 10.2522C36.4011 8.79333 35.2184 7.61072 33.7596 7.61072C32.3008 7.61072 31.1182 8.79333 31.1182 10.2522C31.1182 11.711 32.3008 12.8936 33.7596 12.8936Z" fill="#BC30A0"/>
<mask id="mask0" mask-type="alpha" maskUnits="userSpaceOnUse" x="0" y="0" width="44" height="44">
<path d="M0 22C0 27.9825 0.0241228 28.7303 0.132675 31.0702C0.241228 33.4101 0.615132 35.0143 1.15789 36.4134C1.72478 37.8607 2.47259 39.091 3.69079 40.3092C4.90899 41.5274 6.13925 42.2873 7.58662 42.8421C8.98575 43.3849 10.5899 43.7588 12.9298 43.8673C15.2818 43.9759 16.0296 44 22 44C27.9825 44 28.7303 43.9759 31.0702 43.8673C33.4101 43.7588 35.0143 43.3849 36.4134 42.8421C37.8607 42.2752 39.091 41.5274 40.3092 40.3092C41.5274 39.091 42.2873 37.8607 42.8421 36.4134C43.3849 35.0143 43.7588 33.4101 43.8673 31.0702C43.9759 28.7182 44 27.9704 44 22C44 16.0175 43.9759 15.2697 43.8673 12.9298C43.7588 10.5899 43.3849 8.98575 42.8421 7.58662C42.2752 6.13925 41.5274 4.90899 40.3092 3.69079C39.091 2.47259 37.8607 1.71272 36.4134 1.15789C35.0143 0.615132 33.4101 0.241228 31.0702 0.132675C28.7182 0.0241228 27.9704 0 22 0C16.0175 0 15.2697 0.0241228 12.9298 0.132675C10.5899 0.241228 8.98575 0.615132 7.58662 1.15789C6.13925 1.72478 4.90899 2.47259 3.69079 3.69079C2.47259 4.90899 1.71272 6.13925 1.15789 7.58662C0.615132 8.98575 0.241228 10.5899 0.132675 12.9298C0.0241228 15.2697 0 16.0175 0 22ZM3.9682 22C3.9682 16.1261 3.99232 15.4265 4.10088 13.1107C4.19737 10.9638 4.55921 9.79386 4.86075 9.02193C5.25877 7.99671 5.74123 7.26096 6.51316 6.48904C7.28509 5.71711 8.02083 5.24671 9.04605 4.83662C9.81798 4.53509 10.9879 4.17325 13.1349 4.07675C15.4507 3.9682 16.1502 3.94408 22.0241 3.94408C27.898 3.94408 28.5976 3.9682 30.9134 4.07675C33.0603 4.17325 34.2303 4.53509 35.0022 4.83662C36.0274 5.23465 36.7632 5.71711 37.5351 6.48904C38.307 7.26096 38.7774 7.99671 39.1875 9.02193C39.489 9.79386 39.8509 10.9638 39.9474 13.1107C40.0559 15.4265 40.08 16.1261 40.08 22C40.08 27.8739 40.0559 28.5735 39.9474 30.8893C39.8509 33.0362 39.489 34.2061 39.1875 34.9781C38.7895 36.0033 38.307 36.739 37.5351 37.511C36.7632 38.2829 36.0274 38.7533 35.0022 39.1634C34.2303 39.4649 33.0603 39.8268 30.9134 39.9232C28.5976 40.0318 27.898 40.0559 22.0241 40.0559C16.1502 40.0559 15.4507 40.0318 13.1349 39.9232C10.9879 39.8268 9.81798 39.4649 9.04605 39.1634C8.02083 38.7654 7.28509 38.2829 6.51316 37.511C5.74123 36.739 5.27083 36.0033 4.86075 34.9781C4.55921 34.2061 4.19737 33.0362 4.10088 30.8893C3.99232 28.5735 3.9682 27.8739 3.9682 22Z" fill="url(#paint2_linear)"/>
</mask>
<g mask="url(#mask0)">
<path d="M0 22C0 27.9825 0.0241228 28.7303 0.132675 31.0702C0.241228 33.4101 0.615132 35.0143 1.15789 36.4134C1.72478 37.8607 2.47259 39.091 3.69079 40.3092C4.90899 41.5274 6.13925 42.2873 7.58662 42.8421C8.98575 43.3849 10.5899 43.7588 12.9298 43.8673C15.2818 43.9759 16.0296 44 22 44C27.9825 44 28.7303 43.9759 31.0702 43.8673C33.4101 43.7588 35.0143 43.3849 36.4134 42.8421C37.8607 42.2752 39.091 41.5274 40.3092 40.3092C41.5274 39.091 42.2873 37.8607 42.8421 36.4134C43.3849 35.0143 43.7588 33.4101 43.8673 31.0702C43.9759 28.7182 44 27.9704 44 22C44 16.0175 43.9759 15.2697 43.8673 12.9298C43.7588 10.5899 43.3849 8.98575 42.8421 7.58662C42.2752 6.13925 41.5274 4.90899 40.3092 3.69079C39.091 2.47259 37.8607 1.71272 36.4134 1.15789C35.0143 0.615132 33.4101 0.241228 31.0702 0.132675C28.7182 0.0241228 27.9704 0 22 0C16.0175 0 15.2697 0.0241228 12.9298 0.132675C10.5899 0.241228 8.98575 0.615132 7.58662 1.15789C6.13925 1.72478 4.90899 2.47259 3.69079 3.69079C2.47259 4.90899 1.71272 6.13925 1.15789 7.58662C0.615132 8.98575 0.241228 10.5899 0.132675 12.9298C0.0241228 15.2697 0 16.0175 0 22ZM3.9682 22C3.9682 16.1261 3.99232 15.4265 4.10088 13.1107C4.19737 10.9638 4.55921 9.79386 4.86075 9.02193C5.25877 7.99671 5.74123 7.26096 6.51316 6.48904C7.28509 5.71711 8.02083 5.24671 9.04605 4.83662C9.81798 4.53509 10.9879 4.17325 13.1349 4.07675C15.4507 3.9682 16.1502 3.94408 22.0241 3.94408C27.898 3.94408 28.5976 3.9682 30.9134 4.07675C33.0603 4.17325 34.2303 4.53509 35.0022 4.83662C36.0274 5.23465 36.7632 5.71711 37.5351 6.48904C38.307 7.26096 38.7774 7.99671 39.1875 9.02193C39.489 9.79386 39.8509 10.9638 39.9474 13.1107C40.0559 15.4265 40.08 16.1261 40.08 22C40.08 27.8739 40.0559 28.5735 39.9474 30.8893C39.8509 33.0362 39.489 34.2061 39.1875 34.9781C38.7895 36.0033 38.307 36.739 37.5351 37.511C36.7632 38.2829 36.0274 38.7533 35.0022 39.1634C34.2303 39.4649 33.0603 39.8268 30.9134 39.9232C28.5976 40.0318 27.898 40.0559 22.0241 40.0559C16.1502 40.0559 15.4507 40.0318 13.1349 39.9232C10.9879 39.8268 9.81798 39.4649 9.04605 39.1634C8.02083 38.7654 7.28509 38.2829 6.51316 37.511C5.74123 36.739 5.27083 36.0033 4.86075 34.9781C4.55921 34.2061 4.19737 33.0362 4.10088 30.8893C3.99232 28.5735 3.9682 27.8739 3.9682 22Z" fill="url(#paint3_linear)"/>
</g>
<defs>
<linearGradient id="paint0_linear" x1="14.3923" y1="-3.53252" x2="28.8096" y2="44.699" gradientUnits="userSpaceOnUse">
<stop stop-color="#4367DC"/>
<stop offset="0.0428861" stop-color="#4C62D6"/>
<stop offset="0.1142" stop-color="#6654C7"/>
<stop offset="0.2045" stop-color="#8F3DAE"/>
<stop offset="0.2341" stop-color="#9E35A5"/>
<stop offset="0.4512" stop-color="#D42F7F"/>
<stop offset="0.8242" stop-color="#D73578"/>
</linearGradient>
<linearGradient id="paint1_linear" x1="27.4031" y1="12.9324" x2="15.8458" y2="32.3643" gradientUnits="userSpaceOnUse">
<stop offset="0.3304" stop-color="#D42F7F"/>
<stop offset="1" stop-color="#F7772E"/>
</linearGradient>
<linearGradient id="paint2_linear" x1="31.981" y1="-1.8054" x2="12.5165" y2="44.619" gradientUnits="userSpaceOnUse">
<stop offset="0.2341"/>
<stop offset="0.4512" stop-color="#808080"/>
<stop offset="0.7524" stop-color="white"/>
<stop offset="0.9624" stop-color="white"/>
</linearGradient>
<linearGradient id="paint3_linear" x1="31.981" y1="-1.8054" x2="12.5165" y2="44.619" gradientUnits="userSpaceOnUse">
<stop offset="0.2341" stop-color="#9E35A5"/>
<stop offset="0.4512" stop-color="#D42F7F"/>
<stop offset="0.7524" stop-color="#F7772E"/>
<stop offset="0.9624" stop-color="#FEF780"/>
</linearGradient>
</defs>
</svg>
