<svg width="34" height="53" viewBox="0 0 34 53" fill="none" xmlns="http://www.w3.org/2000/svg">
<path d="M30.2833 51.5551H3.09895C1.98121 51.5551 1.07428 50.6496 1.07216 49.5318L1 3.75338C0.998587 2.78703 1.67489 1.95721 2.62143 1.76338C5.3889 1.19743 11.4247 0.359838 18.6291 1.79238C19.5785 1.98127 20.2661 2.81674 20.2661 3.78521V10.9465C20.2661 20.2464 17.7144 32.8471 19.391 36.4239C21.7489 41.4544 32.7537 38.8603 32.7537 45.8561C32.7537 45.8561 32.7537 48.1616 32.2401 50.0667C32.0024 50.9481 31.1959 51.5551 30.2833 51.5551Z" stroke="#553091" stroke-width="1.5" stroke-miterlimit="10" stroke-linecap="round" stroke-linejoin="round" stroke-dasharray="4 6"/>
<path d="M27.5374 48.1375H5.92191C5.23853 48.1375 4.68461 47.5843 4.6839 46.9009L4.67188 38.8858C4.67117 38.5342 4.82044 38.1981 5.08219 37.9633L12.8646 30.9675C13.6668 30.2459 14.9317 30.8253 14.9303 31.9041C14.9247 35.9719 15.584 39.3187 17.7445 40.943C23.0643 44.9399 28.8157 42.9308 28.8157 45.7959C28.8157 45.7959 28.8646 46.3357 28.7683 47.0481C28.6842 47.6678 28.1635 48.1375 27.5374 48.1375Z" stroke="#553091" stroke-width="1.5" stroke-miterlimit="10"/>
<path d="M15.5144 5.26938C16.1447 5.33941 16.6257 5.86786 16.6257 6.50172V11.0965C16.6257 14.1526 16.1942 17.7817 15.7627 21.4603V21.4674L6.71748 29.5908C5.92091 30.306 4.6532 29.7415 4.65178 28.6711L4.62207 6.42036C4.62136 5.80632 5.06634 5.28636 5.67331 5.19368C7.18297 4.96447 10.3636 4.69777 15.5144 5.26938Z" stroke="#553091" stroke-width="1.5" stroke-miterlimit="10"/>
</svg>
