<svg width="30" height="46" viewBox="0 0 30 46" fill="none" xmlns="http://www.w3.org/2000/svg">
<path d="M8 3L18 8" stroke="#EFEDF9" stroke-width="2" stroke-miterlimit="10" stroke-linecap="round" stroke-linejoin="round"/>
<path d="M1 6.18848V36.9122C1 37.2892 1.22619 37.6285 1.56547 37.7793L15.0613 44.1125C16.6823 44.8665 18.3787 43.2078 17.7001 41.5867L13.4403 31.6722C13.1387 30.9937 12.9879 30.2397 12.9879 29.4857V10.9007C12.9879 10.5237 12.7617 10.1844 12.4224 10.0337L2.35712 5.32143C1.71626 5.05754 1 5.50992 1 6.18848Z" stroke="#553091" stroke-width="2" stroke-miterlimit="10" stroke-linecap="round" stroke-linejoin="round"/>
<path d="M1.49023 5.35913L11.7817 1.13698C12.2341 0.948487 12.7242 0.948487 13.1766 1.17467L22.5633 5.54762C22.9026 5.69841 23.1288 6.0377 23.1288 6.41467V25.0374C23.1288 25.7914 23.2796 26.5076 23.5812 27.2239L27.841 37.1007C28.2934 38.1939 27.7279 39.2872 26.8232 39.6642" stroke="#553091" stroke-width="2" stroke-miterlimit="10" stroke-linecap="round" stroke-linejoin="round"/>
<path d="M12.875 10.4484L22.9403 5.92464" stroke="#553091" stroke-width="2" stroke-miterlimit="10" stroke-linecap="round" stroke-linejoin="round"/>
<path d="M26.7472 39.6642L16.6064 44.1502" stroke="#553091" stroke-width="2" stroke-miterlimit="10" stroke-linecap="round" stroke-linejoin="round"/>
<path d="M4.46875 28L8.95479 30.0734" stroke="#EFEDF9" stroke-width="2" stroke-miterlimit="10" stroke-linecap="round" stroke-linejoin="round"/>
<path d="M5.14648 21L8.2754 22.4702" stroke="#553091" stroke-width="2" stroke-miterlimit="10" stroke-linecap="round" stroke-linejoin="round"/>
<path d="M6.12695 24.391L7.33328 24.9565" stroke="#553091" stroke-width="2" stroke-miterlimit="10" stroke-linecap="round" stroke-linejoin="round"/>
<path d="M5.71289 32.2086L7.71088 33.1511" stroke="#EFEDF9" stroke-width="2" stroke-miterlimit="10" stroke-linecap="round" stroke-linejoin="round"/>
<path d="M8.29736 18.1806C9.39086 17.6211 9.67767 15.9956 8.93796 14.5499C8.19824 13.1043 6.71213 12.3859 5.61863 12.9454C4.52513 13.505 4.23833 15.1305 4.97804 16.5761C5.71775 18.0218 7.20386 18.7401 8.29736 18.1806Z" stroke="#8CD3E4" stroke-width="2" stroke-miterlimit="10" stroke-linecap="round" stroke-linejoin="round"/>
</svg>
