<svg width="57" height="69" viewBox="0 0 57 69" fill="none" xmlns="http://www.w3.org/2000/svg">
<path d="M2 54C2 54 18.8264 60.8176 20.7846 61.2528C23.3956 61.833 32.6066 62.2681 38.4089 59.0044" stroke="#8CD3E4" stroke-width="2.0031" stroke-miterlimit="10" stroke-linecap="round" stroke-linejoin="round"/>
<path d="M38.5537 59.802C41.0922 60.3823 49.9405 60.8174 55.5252 57.6262" stroke="#8CD3E4" stroke-width="2.0031" stroke-miterlimit="10" stroke-linecap="round" stroke-linejoin="round"/>
<path d="M2 19.3975C11.5736 18.092 22.6704 19.3975 22.6704 19.3975" stroke="#8CD3E4" stroke-width="2.0031" stroke-miterlimit="10" stroke-linecap="round" stroke-linejoin="round"/>
<path d="M22.6699 19.2527C31.3007 18.4549 40.3667 19.4703 40.3667 19.4703" stroke="#8CD3E4" stroke-width="2.0031" stroke-miterlimit="10" stroke-linecap="round" stroke-linejoin="round"/>
<path d="M22.6699 14.901C31.8084 13.5955 40.3667 14.6834 40.3667 14.6834" stroke="#8CD3E4" stroke-width="1.9275" stroke-linecap="round" stroke-linejoin="round" stroke-dasharray="2 4"/>
<path d="M2 14.9735C12.2989 13.0877 22.6704 14.3932 22.6704 14.3932" stroke="#8CD3E4" stroke-width="1.9275" stroke-linecap="round" stroke-linejoin="round" stroke-dasharray="2 4"/>
<path d="M38.4824 61.4636C38.4824 54.4285 36.1615 54.646 30.6494 51.8175C28.0384 50.512 26.1527 49.0614 24.8472 47.901C23.4691 46.668 22.7439 44.9274 22.7439 43.1142V3.94926C19.6977 1.55585 7.87571 0.975632 2.00098 4.45696V32.7427C2.00098 32.7427 2.94384 40.2856 2.94384 42.8966C2.94384 45.0724 2.00098 51.89 2.00098 51.89V58.0549C2.00098 58.9977 2.5812 59.868 3.45153 60.3032L7.94824 62.4065L10.9219 60.8109L11.4296 61.8988C12.1548 63.712 13.6054 65.09 15.4186 65.8153C19.2625 67.2659 26.5153 68.934 36.6692 65.8878C37.6845 65.5977 38.4098 64.5823 38.4098 63.4944L38.4824 61.4636Z" stroke="white" stroke-width="2.0031" stroke-miterlimit="10" stroke-linecap="round" stroke-linejoin="round"/>
<path d="M37.5388 65.3802C41.4553 66.178 47.0399 66.323 53.8575 64.2923C54.8729 64.0022 55.5982 63.0593 55.5982 61.9714V60.0131C55.5982 53.1956 53.3498 53.4131 48.0553 50.7296C45.5168 49.4241 43.7036 48.0461 42.4707 46.9582C41.1652 45.7977 40.4399 44.1296 40.4399 42.3889V4.60207C37.9014 2.64382 28.763 1.91855 22.7432 4.09437" stroke="white" stroke-width="2.0031" stroke-miterlimit="10" stroke-linecap="round" stroke-linejoin="round"/>
</svg>
