<svg width="61" height="57" viewBox="0 0 61 57" fill="none" xmlns="http://www.w3.org/2000/svg">
<path d="M59.9121 11.0684V51.1684C59.9121 53.2684 58.2121 55.0684 56.0121 55.0684H5.81211C3.61211 54.9684 1.91211 53.2684 1.91211 51.1684V15.7684C1.91211 13.6684 3.61211 12.0684 5.81211 12.0684C5.81211 12.0684 52.2121 12.0684 54.1121 12.0684C56.6121 12.0684 59.4121 11.7684 59.8121 9.56836" stroke="#553091" stroke-width="2" stroke-miterlimit="10" stroke-linecap="round" stroke-linejoin="round"/>
<path d="M9.01172 11.2683V4.16826C9.01172 2.06826 10.7117 0.668258 12.8117 1.06826L56.1117 6.76826C59.9117 7.26826 59.9117 9.76826 59.9117 9.76826V12.2683" stroke="#553091" stroke-width="2" stroke-miterlimit="10" stroke-linecap="round" stroke-linejoin="round"/>
<path d="M9.41211 35.9683C10.7928 35.9683 11.9121 34.849 11.9121 33.4683C11.9121 32.0875 10.7928 30.9683 9.41211 30.9683C8.0314 30.9683 6.91211 32.0875 6.91211 33.4683C6.91211 34.849 8.0314 35.9683 9.41211 35.9683Z" stroke="#553091" stroke-width="2" stroke-miterlimit="10" stroke-linecap="round" stroke-linejoin="round"/>
<path d="M29.8121 33.3683C31.4137 33.3683 32.7121 31.4431 32.7121 29.0683C32.7121 26.6935 31.4137 24.7683 29.8121 24.7683C28.2105 24.7683 26.9121 26.6935 26.9121 29.0683C26.9121 31.4431 28.2105 33.3683 29.8121 33.3683Z" stroke="#553091" stroke-width="2" stroke-miterlimit="10" stroke-linecap="round" stroke-linejoin="round"/>
<path d="M46.9123 37.6684C46.9123 40.0684 45.6123 41.9684 44.0123 41.9684C42.4123 41.9684 41.1123 40.0684 41.1123 37.6684C41.1123 35.2684 42.4123 33.3684 44.0123 33.3684C45.6123 33.3684 46.9123 35.3684 46.9123 37.6684Z" stroke="#553091" stroke-width="2" stroke-miterlimit="10" stroke-linecap="round" stroke-linejoin="round"/>
<path d="M34.0117 41.9684L39.8117 24.8684" stroke="#553091" stroke-width="2" stroke-miterlimit="10" stroke-linecap="round" stroke-linejoin="round"/>
</svg>
