<svg width="26" height="24" viewBox="0 0 26 24" fill="none" xmlns="http://www.w3.org/2000/svg">
<path d="M13.5488 18.5C13.2494 18.3 12.6508 18.3 12.2517 18.5L5.96562 22.9C5.66629 23.1 5.46673 23 5.56651 22.6L7.4623 15.8C7.56208 15.4 7.4623 14.8 7.16297 14.5L2.17405 9.4C1.87471 9.1 1.97449 8.8 2.3736 8.8L8.95898 8.2C9.35809 8.2 9.85698 7.8 10.0565 7.4L12.7506 1.3C12.9501 0.9 13.1497 0.9 13.3492 1.3L15.9435 7.4C16.143 7.8 16.5421 8.1 17.041 8.2L23.6264 8.8C24.0255 8.8 24.1253 9.1 23.826 9.4L18.837 14.5C18.5377 14.8 18.4379 15.4 18.5377 15.8L20.4335 22.6C20.5333 23 20.3337 23.1 20.0344 22.9L13.5488 18.5Z" stroke="#8CD3E4" stroke-width="2" stroke-miterlimit="10" stroke-linecap="round" stroke-linejoin="round"/>
</svg>
