<svg width="26" height="49" viewBox="0 0 26 49" fill="none" xmlns="http://www.w3.org/2000/svg">
<path d="M21.944 47.4C23.624 47.4 25 46.008 25 44.304V4.096C25 2.392 23.624 1 21.936 1H4.056C2.376 1 1 2.392 1 4.096V44.304C1 46.008 2.376 47.4 4.056 47.4H21.944Z" stroke="#553091" stroke-width="2" stroke-miterlimit="10" stroke-linecap="round" stroke-linejoin="round"/>
<path d="M9.7998 5.79935H16.1998" stroke="#8CD3E4" stroke-width="2" stroke-miterlimit="10" stroke-linecap="round" stroke-linejoin="round"/>
<path d="M15.4006 40.5464C15.4006 41.8744 14.3286 42.9464 13.0006 42.9464C11.6726 42.9464 10.6006 41.8744 10.6006 40.5464C10.6006 39.2184 11.6726 38.1464 13.0006 38.1464C14.3286 38.1464 15.4006 39.2184 15.4006 40.5464Z" stroke="#8CD3E4" stroke-width="2" stroke-miterlimit="10" stroke-linecap="round" stroke-linejoin="round"/>
</svg>
