<svg width="62" height="69" viewBox="0 0 62 69" fill="none" xmlns="http://www.w3.org/2000/svg">
<path d="M25.1326 21.2429L23.7037 24.3389C22.9892 25.8472 23.4655 27.5936 24.8151 28.5462L25.6089 29.1019" stroke="#8CD3E4" stroke-width="1.8856" stroke-miterlimit="10" stroke-linecap="round" stroke-linejoin="round"/>
<path d="M27.3562 1C27.3562 1 25.6097 8.54148 22.1168 15.4479C16.0836 27.673 11.4 26.8792 11.4 31.9598C11.4 31.9598 10.8443 35.8496 18.7827 39.7394C26.8799 43.6292 28.6263 45.455 34.4213 53.6316C36.0884 55.9337 38.7081 57.3626 41.5659 57.3626H58.3159C59.5861 57.3626 60.5387 56.0925 60.1418 54.8223L59.8242 53.7904C59.1891 51.8058 57.2839 50.4562 55.2199 50.4562H53.2353C51.4889 50.4562 49.8218 49.583 48.8692 48.1541L41.5659 37.6754C38.1524 32.7536 37.2792 26.5616 39.1844 20.846L45.8526 1" stroke="white" stroke-width="1.8856" stroke-miterlimit="10" stroke-linecap="round" stroke-linejoin="round"/>
<path opacity="0.3" d="M3.38184 4.9692L3.38184 63.7133" stroke="white" stroke-width="1.9275" stroke-linecap="round" stroke-linejoin="round" stroke-dasharray="2 4"/>
<path d="M1 3.38152L3.38152 1L5.76304 3.38152" stroke="white" stroke-width="1.8856" stroke-miterlimit="10" stroke-linecap="round" stroke-linejoin="round"/>
<path d="M5.7627 65.301L3.38118 67.6826L0.999656 65.301" stroke="white" stroke-width="1.8856" stroke-miterlimit="10" stroke-linecap="round" stroke-linejoin="round"/>
<path opacity="0.3" d="M56.5685 66.0949H13.7012" stroke="white" stroke-width="1.9275" stroke-linecap="round" stroke-linejoin="round" stroke-dasharray="2 4"/>
<path d="M58.2354 63.7927L60.2993 65.9361L58.2354 68.0001" stroke="white" stroke-width="1.8856" stroke-miterlimit="10" stroke-linecap="round" stroke-linejoin="round"/>
<path d="M11.241 68.0001L9.09766 65.9361L11.241 63.7927" stroke="white" stroke-width="1.8856" stroke-miterlimit="10" stroke-linecap="round" stroke-linejoin="round"/>
</svg>
