<svg width="20" height="17" viewBox="0 0 20 17" fill="none" xmlns="http://www.w3.org/2000/svg">
<path fill-rule="evenodd" clip-rule="evenodd" d="M19.9997 2.71635C19.2849 3.02689 18.5179 3.23771 17.7134 3.33172C18.5353 2.8474 19.1662 2.07819 19.4614 1.16368C18.6916 1.61381 17.8407 1.93859 16.9349 2.11522C16.2084 1.35456 15.1752 0.878784 14.0292 0.878784C11.8326 0.878784 10.0498 2.63373 10.0498 4.79608C10.0498 5.10376 10.0845 5.4029 10.154 5.68779C6.84604 5.52541 3.91432 3.96419 1.95213 1.59387C1.61063 2.1722 1.41383 2.84455 1.41383 3.56249C1.41383 4.92143 2.11709 6.12083 3.18501 6.82167C2.53384 6.80173 1.92029 6.6251 1.38199 6.33166C1.38199 6.34875 1.38199 6.36299 1.38199 6.38009C1.38199 8.27748 2.75379 9.86149 4.57418 10.2205C4.24136 10.3088 3.88828 10.3572 3.52652 10.3572C3.26894 10.3572 3.02005 10.3316 2.77695 10.286C3.28341 11.8415 4.75361 12.9754 6.49296 13.0067C5.12984 14.058 3.41654 14.6847 1.54985 14.6847C1.2286 14.6847 0.913148 14.6648 0.600586 14.6306C2.3602 15.7417 4.45263 16.3913 6.70134 16.3913C14.0205 16.3913 18.023 10.4227 18.023 5.24621C18.023 5.07527 18.0201 4.90719 18.0115 4.7391C18.79 4.1864 19.4643 3.49696 19.9968 2.71065L19.9997 2.71635Z" fill="white"/>
</svg>
