<svg width="77" height="87" viewBox="0 0 77 87" fill="none" xmlns="http://www.w3.org/2000/svg">
<path d="M31.4001 26.6917L29.6001 30.5917C28.7001 32.4917 29.3001 34.6917 31.0001 35.8917L32.0001 36.5917" stroke="#8CD3E4" stroke-width="1.8856" stroke-miterlimit="10" stroke-linecap="round" stroke-linejoin="round"/>
<path d="M34.2004 1.19165C34.2004 1.19165 32.0004 10.6917 27.6004 19.3917C20.0004 34.7917 14.1004 33.7917 14.1004 40.1917C14.1004 40.1917 13.4004 45.0916 23.4004 49.9916C33.6004 54.8916 35.8004 57.1916 43.1004 67.4916C45.2004 70.3916 48.5004 72.1917 52.1004 72.1917H73.2004C74.8004 72.1917 76.0004 70.5916 75.5004 68.9916L75.1004 67.6917C74.3004 65.1917 71.9004 63.4916 69.3004 63.4916H66.8004C64.6004 63.4916 62.5004 62.3917 61.3004 60.5917L52.1004 47.3917C47.8004 41.1917 46.7004 33.3917 49.1004 26.1917L57.5004 1.19165" stroke="white" stroke-width="1.8856" stroke-miterlimit="10" stroke-linecap="round" stroke-linejoin="round"/>
<path opacity="0.3" d="M4 6.19165L4 80.1917" stroke="white" stroke-width="1.9275" stroke-linecap="round" stroke-linejoin="round" stroke-dasharray="2 4"/>
<path d="M1 4.19165L4 1.19165L7 4.19165" stroke="white" stroke-width="1.8856" stroke-miterlimit="10" stroke-linecap="round" stroke-linejoin="round"/>
<path d="M7 82.1917L4 85.1917L1 82.1916" stroke="white" stroke-width="1.8856" stroke-miterlimit="10" stroke-linecap="round" stroke-linejoin="round"/>
<path opacity="0.3" d="M71 83.1917H17" stroke="white" stroke-width="1.9275" stroke-linecap="round" stroke-linejoin="round" stroke-dasharray="2 4"/>
<path d="M73.0996 80.2917L75.6996 82.9917L73.0996 85.5917" stroke="white" stroke-width="1.8856" stroke-miterlimit="10" stroke-linecap="round" stroke-linejoin="round"/>
<path d="M13.9002 85.5917L11.2002 82.9917L13.9002 80.2917" stroke="white" stroke-width="1.8856" stroke-miterlimit="10" stroke-linecap="round" stroke-linejoin="round"/>
</svg>
