<svg width="42" height="40" viewBox="0 0 42 40" fill="none" xmlns="http://www.w3.org/2000/svg">
<path d="M10.194 8.39842C10.0814 8.96165 10.0251 9.52489 9.96875 10.0881C14.9816 11.2709 20.7829 11.8905 30.5832 6.87767C30.4143 6.37076 30.1327 5.86385 29.851 5.35693C20.445 10.2008 14.9252 9.52489 10.194 8.39842Z" fill="#282A61"/>
<path d="M13.1789 2.87871C12.672 3.38562 12.2214 3.94886 11.8271 4.5121C12.3341 4.56842 12.841 4.62475 13.3479 4.62475C16.4457 4.62475 20.2757 3.66724 25.4012 0.963703C24.7253 0.625761 23.9931 0.344142 23.2609 0.175171C18.9803 2.25915 15.7698 2.93503 13.1789 2.87871Z" fill="#282A61"/>
<path d="M31.7675 14.6503C31.6548 14.0308 31.5985 13.4675 31.4859 12.9043C23.15 16.2274 17.4049 15.6642 12.1105 15.1009C11.2093 14.9883 10.2518 14.932 9.35064 14.8193C9.23799 15.3825 9.12534 15.9458 9.0127 16.509C9.9702 16.5653 10.9277 16.678 11.9415 16.7906C17.4613 17.4102 23.3189 18.0298 31.7675 14.6503Z" fill="#282A61"/>
<path d="M14.1377 20.3391C19.4321 20.6207 25.1208 20.846 32.5555 18.3678C32.3865 17.8045 32.2739 17.2413 32.1613 16.678C24.9518 19.1563 19.3758 18.8747 14.2503 18.6494C12.3353 18.5367 10.4766 18.4804 8.61792 18.5367C8.44895 19.1563 8.27998 19.7195 8.05469 20.2264C10.0823 20.1138 12.0537 20.2264 14.1377 20.3391Z" fill="#282A61"/>
<path d="M10.2514 11.6089C10.1387 11.6089 9.96978 11.5526 9.85713 11.5526C9.80081 12.0032 9.74448 12.5664 9.63184 13.2423C9.74448 13.2423 9.85713 13.2986 9.96978 13.2986C15.4895 14.2561 21.5725 15.2699 31.2602 10.8204C31.2602 10.7077 31.2602 10.6514 31.2602 10.6514C31.2602 10.0882 31.2038 9.58124 31.1475 9.01801C21.5161 13.5239 15.6585 12.5101 10.2514 11.6089Z" fill="#282A61"/>
<path d="M11.1524 5.63853C10.8708 6.14544 10.6455 6.70868 10.4766 7.2156C11.8283 7.55354 13.2364 7.77883 14.8698 7.77883C18.4182 7.77883 22.7551 6.76501 28.6691 3.55455C28.2749 3.10396 27.8806 2.7097 27.43 2.31543C19.8263 6.31442 14.9825 6.48339 11.1524 5.63853Z" fill="#282A61"/>
<path d="M28.2741 36.4476C32.4984 35.997 36.8353 35.6028 41.2285 34.7016V33.2372C41.2285 33.1245 41.2285 33.0682 41.1722 32.9556C36.7226 33.9131 32.3857 34.3637 28.1051 34.7579C20.6141 35.5465 12.954 36.335 4.95605 39.6581H9.74357C15.9392 37.6868 22.0222 37.1235 28.2741 36.4476Z" fill="#282A61"/>
<path d="M31.8797 39.4328C35.0338 39.0949 38.1316 38.7006 41.1731 38.25V36.5603C38.0753 37.0672 34.8648 37.4052 31.6544 37.7994C27.2611 38.3063 22.8116 38.8133 18.3057 39.7144H29.7394C30.4716 39.6018 31.2038 39.5455 31.8797 39.4328Z" fill="#282A61"/>
<path d="M9.01116 23.9438C11.4894 23.7185 13.9676 23.7185 16.5585 23.7185C21.684 23.7185 27.26 23.7748 33.9626 21.7472C33.681 21.2966 33.3993 20.7897 33.174 20.2264C26.7531 22.0851 21.515 22.0851 16.5585 22.0851C13.2354 22.0851 9.96866 22.0851 6.58924 22.592C6.47659 22.6484 6.42026 22.7047 6.30762 22.761C6.30762 22.7047 7.09615 23.3806 9.01116 23.9438Z" fill="#282A61"/>
<path d="M0.45059 39.2639C8.95548 34.7016 16.7845 34.0821 24.9514 33.4062C29.57 33.0119 34.2448 32.6177 39.145 31.5475C37.9059 31.1533 36.6668 30.8153 35.4276 30.5337C31.8229 31.1533 28.2745 31.4349 24.7824 31.7165C16.5592 32.3924 8.61753 33.0683 0 37.5742V38.25C0 38.6443 0.168971 39.0386 0.45059 39.2639Z" fill="#282A61"/>
<path d="M19.0933 27.0416C21.1773 26.9852 23.3739 26.9289 25.6269 26.7036V25.0139C23.3739 25.1829 21.1773 25.2392 19.037 25.3519C17.8542 25.4082 16.7277 25.4082 15.5449 25.4645V27.1542C16.7277 27.0979 17.9105 27.0416 19.0933 27.0416Z" fill="#282A61"/>
<path d="M0 35.0396C7.71635 31.0969 14.6442 30.7027 21.9099 30.2521C24.7261 30.0831 27.5986 29.9141 30.5275 29.5199C28.5561 29.1256 26.9791 28.7877 26.1905 28.2808C24.7261 28.3934 23.2617 28.5061 21.7973 28.5624C14.5878 29.013 7.66003 29.4072 0 33.1246C0 33.1809 0 33.1809 0 33.2373V35.0396Z" fill="#282A61"/>
</svg>
