<svg width="34" height="40" viewBox="0 0 34 40" fill="none" xmlns="http://www.w3.org/2000/svg">
<path d="M2 30C2 30 11.4181 33.816 12.5142 34.0595C13.9757 34.3843 19.1313 34.6279 22.3789 32.8011" stroke="#EFEDF9" stroke-width="2.0031" stroke-miterlimit="10" stroke-linecap="round" stroke-linejoin="round"/>
<path d="M22.46 33.2476C23.8808 33.5724 28.8334 33.816 31.9593 32.0298" stroke="#EFEDF9" stroke-width="2.0031" stroke-miterlimit="10" stroke-linecap="round" stroke-linejoin="round"/>
<path d="M2 11.7378C7.3586 11.0071 13.5697 11.7378 13.5697 11.7378" stroke="#8CD3E4" stroke-width="2.0031" stroke-miterlimit="10" stroke-linecap="round" stroke-linejoin="round"/>
<path d="M13.5703 11.6567C18.4012 11.2101 23.4756 11.7784 23.4756 11.7784" stroke="#8CD3E4" stroke-width="2.0031" stroke-miterlimit="10" stroke-linecap="round" stroke-linejoin="round"/>
<path d="M22.4195 35.2832C22.4195 31.3455 21.1204 31.4673 18.0352 29.884C16.5738 29.1533 15.5183 28.3414 14.7876 27.6919C14.0162 27.0018 13.6103 26.0275 13.6103 25.0126V3.09105C11.9053 1.7514 5.28823 1.42664 2 3.37522V19.2074C2 19.2074 2.52774 23.4294 2.52774 24.8908C2.52774 26.1087 2 29.9246 2 29.9246V33.3752C2 33.903 2.32476 34.3901 2.81191 34.6337L5.32883 35.811L6.99324 34.9179L7.27741 35.5268C7.68336 36.5417 8.49527 37.313 9.51015 37.719C11.6617 38.5309 15.7213 39.4646 21.4046 37.7595C21.973 37.5972 22.3789 37.0288 22.3789 36.4199L22.4195 35.2832Z" stroke="#553091" stroke-width="2.0031" stroke-miterlimit="10" stroke-linecap="round" stroke-linejoin="round"/>
<path d="M21.8918 37.4754C24.084 37.922 27.2098 38.0032 31.0258 36.8665C31.5941 36.7041 32.0001 36.1764 32.0001 35.5674V34.4713C32.0001 30.6554 30.7416 30.7772 27.7782 29.2751C26.3573 28.5444 25.3424 27.7731 24.6523 27.1642C23.9216 26.5146 23.5156 25.581 23.5156 24.6067V3.45644C22.0948 2.36036 16.9798 1.95441 13.6104 3.17227" stroke="#553091" stroke-width="2.0031" stroke-miterlimit="10" stroke-linecap="round" stroke-linejoin="round"/>
</svg>
