<svg width="42" height="66" viewBox="0 0 42 66" fill="none" xmlns="http://www.w3.org/2000/svg">
<path d="M37.7494 64.4998H3.63409C2.23138 64.4998 1.09322 63.3634 1.09056 61.9607L1 4.51055C0.998227 3.29783 1.84696 2.25644 3.03483 2.01318C6.50789 1.30295 14.0826 0.251798 23.1239 2.04958C24.3153 2.28663 25.1782 3.33511 25.1782 4.5505V13.5377C25.1782 25.2086 21.976 41.022 24.08 45.5107C27.0391 51.8239 40.8496 48.5683 40.8496 57.3477C40.8496 57.3477 40.8496 60.241 40.2051 62.6319C39.9068 63.7381 38.8947 64.4998 37.7494 64.4998Z" stroke="white" stroke-width="2" stroke-miterlimit="10" stroke-linecap="round" stroke-linejoin="round" stroke-dasharray="4 6"/>
<path d="M34.3037 60.2106H7.17714C6.31953 60.2106 5.62438 59.5164 5.62349 58.6588L5.6084 48.6C5.60751 48.1588 5.79484 47.7371 6.12332 47.4423L15.89 38.6629C16.8967 37.7574 18.4841 38.4845 18.4823 39.8384C18.4752 44.9432 19.3027 49.1434 22.014 51.1817C28.6902 56.1978 35.908 53.6764 35.908 57.272C35.908 57.272 35.9692 57.9494 35.8485 58.8434C35.7428 59.6211 35.0894 60.2106 34.3037 60.2106Z" stroke="#8CD3E4" stroke-width="2" stroke-miterlimit="10"/>
<path d="M19.2153 6.41316C20.0063 6.50105 20.61 7.16423 20.61 7.9597V13.7259C20.61 17.5612 20.0685 22.1156 19.5269 26.7321V26.741L8.17555 36.9356C7.17589 37.8331 5.58496 37.1247 5.58319 35.7814L5.5459 7.8576C5.54501 7.08699 6.10343 6.43446 6.86516 6.31816C8.75972 6.03052 12.7512 5.69582 19.2153 6.41316Z" stroke="#8CD3E4" stroke-width="2" stroke-miterlimit="10"/>
</svg>
