<svg width="56" height="53" viewBox="0 0 56 53" fill="none" xmlns="http://www.w3.org/2000/svg">
<path d="M54.8537 10.3235V47.4569C54.8537 49.4015 53.2794 51.0684 51.2422 51.0684H4.75601C2.71876 50.9758 1.14453 49.4015 1.14453 47.4569V14.6758C1.14453 12.7312 2.71876 11.2495 4.75601 11.2495C4.75601 11.2495 47.7233 11.2495 49.4827 11.2495C51.7978 11.2495 54.3907 10.9717 54.7611 8.93448" stroke="#553091" stroke-width="2" stroke-miterlimit="10" stroke-linecap="round" stroke-linejoin="round"/>
<path d="M29.264 42.2625V21.0225H37.501C40.434 21.0225 42.811 23.3995 42.811 26.3325C42.811 29.2655 40.434 31.6425 37.501 31.6425H24" stroke="#8CD3E4" stroke-width="2" stroke-miterlimit="10" stroke-linecap="round" stroke-linejoin="round"/>
<path d="M34.4492 37.0225H24" stroke="#8CD3E4" stroke-width="2" stroke-miterlimit="10" stroke-linecap="round" stroke-linejoin="round"/>
<path d="M7.71973 10.5086V3.93387C7.71973 1.98923 9.29396 0.692801 11.2386 1.06321L51.3352 6.34152C54.8541 6.80453 54.8541 9.11958 54.8541 9.11958V11.4346" stroke="#553091" stroke-width="2" stroke-miterlimit="10" stroke-linecap="round" stroke-linejoin="round"/>
<path d="M8.08946 33.3813C9.36803 33.3813 10.4045 32.3448 10.4045 31.0662C10.4045 29.7877 9.36803 28.7512 8.08946 28.7512C6.8109 28.7512 5.77441 29.7877 5.77441 31.0662C5.77441 32.3448 6.8109 33.3813 8.08946 33.3813Z" stroke="#8CD3E4" stroke-width="2" stroke-miterlimit="10" stroke-linecap="round" stroke-linejoin="round"/>
</svg>
