<svg width="19" height="18" viewBox="0 0 19 18" fill="none" xmlns="http://www.w3.org/2000/svg">
<path d="M17.9555 5.28947C17.9111 4.33224 17.7581 3.67599 17.5361 3.10362C17.3042 2.51151 16.9983 2.00822 16.4999 1.50987C16.0015 1.01151 15.4983 0.700658 14.9061 0.473684C14.3338 0.251645 13.6775 0.0986842 12.7203 0.0542763C11.7581 0.00986842 11.4522 0 9.00977 0C6.5624 0 6.25648 0.00986842 5.29924 0.0542763C4.342 0.0986842 3.68575 0.251645 3.11338 0.473684C2.52128 0.705592 2.01799 1.01151 1.51963 1.50987C1.02128 2.00822 0.710424 2.51151 0.48345 3.10362C0.26141 3.67599 0.10845 4.33224 0.0640419 5.28947C0.019634 6.25164 0.00976562 6.55757 0.00976562 9C0.00976562 11.4474 0.019634 11.7533 0.0640419 12.7105C0.10845 13.6678 0.26141 14.324 0.48345 14.8964C0.715358 15.4885 1.02128 15.9918 1.51963 16.4901C2.01799 16.9885 2.52128 17.2993 3.11338 17.5263C3.68575 17.7484 4.342 17.9013 5.29924 17.9457C6.26141 17.9901 6.56733 18 9.00977 18C11.4571 18 11.7631 17.9901 12.7203 17.9457C13.6775 17.9013 14.3338 17.7484 14.9061 17.5263C15.4983 17.2944 16.0015 16.9885 16.4999 16.4901C16.9983 15.9918 17.3091 15.4885 17.5361 14.8964C17.7581 14.324 17.9111 13.6678 17.9555 12.7105C17.9999 11.7484 18.0098 11.4424 18.0098 9C18.0098 6.55757 17.9999 6.24671 17.9555 5.28947ZM16.3371 12.6365C16.2976 13.5148 16.1496 13.9934 16.0262 14.3092C15.8634 14.7286 15.666 15.0296 15.3502 15.3454C15.0344 15.6612 14.7334 15.8536 14.314 16.0214C13.9983 16.1447 13.5196 16.2928 12.6413 16.3322C11.694 16.3766 11.4078 16.3865 9.00483 16.3865C6.60187 16.3865 6.31569 16.3766 5.36832 16.3322C4.49003 16.2928 4.01141 16.1447 3.69562 16.0214C3.27621 15.8586 2.97523 15.6612 2.65944 15.3454C2.34365 15.0296 2.15121 14.7286 1.98345 14.3092C1.86009 13.9934 1.71207 13.5148 1.67259 12.6365C1.62819 11.6891 1.61832 11.403 1.61832 9C1.61832 6.59704 1.62819 6.31086 1.67259 5.36349C1.71207 4.4852 1.86009 4.00658 1.98345 3.69079C2.14628 3.27138 2.34365 2.97039 2.65944 2.65461C2.97523 2.33882 3.27621 2.14638 3.69562 1.97862C4.01141 1.85526 4.49003 1.70724 5.36832 1.66776C6.31569 1.62336 6.60187 1.61349 9.00483 1.61349C11.4078 1.61349 11.694 1.62336 12.6413 1.66776C13.5196 1.70724 13.9983 1.85526 14.314 1.97862C14.7334 2.14145 15.0344 2.33882 15.3502 2.65461C15.666 2.97039 15.8584 3.27138 16.0262 3.69079C16.1496 4.00658 16.2976 4.4852 16.3371 5.36349C16.3815 6.31086 16.3913 6.59704 16.3913 9C16.3913 11.403 16.3765 11.6891 16.3371 12.6365Z" fill="white"/>
<path d="M9.00421 4.37695C6.44829 4.37695 4.38086 6.44932 4.38086 9.00031C4.38086 11.5562 6.45323 13.6237 9.00421 13.6237C11.5552 13.6237 13.6276 11.5513 13.6276 9.00031C13.6276 6.44439 11.5601 4.37695 9.00421 4.37695ZM9.00421 12.0003C7.34632 12.0003 6.00421 10.6582 6.00421 9.00031C6.00421 7.34241 7.34632 6.00031 9.00421 6.00031C10.6621 6.00031 12.0042 7.34241 12.0042 9.00031C12.0042 10.6582 10.6621 12.0003 9.00421 12.0003Z" fill="white"/>
<path d="M13.8101 5.27471C14.4069 5.27471 14.8907 4.79091 14.8907 4.19412C14.8907 3.59732 14.4069 3.11353 13.8101 3.11353C13.2133 3.11353 12.7295 3.59732 12.7295 4.19412C12.7295 4.79091 13.2133 5.27471 13.8101 5.27471Z" fill="white"/>
<mask id="mask0" mask-type="alpha" maskUnits="userSpaceOnUse" x="0" y="0" width="18" height="18">
<path d="M0 9C0 11.4474 0.00986842 11.7533 0.0542763 12.7105C0.0986842 13.6678 0.251645 14.324 0.473684 14.8964C0.705592 15.4885 1.01151 15.9918 1.50987 16.4901C2.00822 16.9885 2.51151 17.2993 3.10362 17.5263C3.67599 17.7484 4.33224 17.9013 5.28947 17.9457C6.25164 17.9901 6.55757 18 9 18C11.4474 18 11.7533 17.9901 12.7105 17.9457C13.6678 17.9013 14.324 17.7484 14.8964 17.5263C15.4885 17.2944 15.9918 16.9885 16.4901 16.4901C16.9885 15.9918 17.2993 15.4885 17.5263 14.8964C17.7484 14.324 17.9013 13.6678 17.9457 12.7105C17.9901 11.7484 18 11.4424 18 9C18 6.55263 17.9901 6.24671 17.9457 5.28947C17.9013 4.33224 17.7484 3.67599 17.5263 3.10362C17.2944 2.51151 16.9885 2.00822 16.4901 1.50987C15.9918 1.01151 15.4885 0.700658 14.8964 0.473684C14.324 0.251645 13.6678 0.0986842 12.7105 0.0542763C11.7484 0.00986842 11.4424 0 9 0C6.55263 0 6.24671 0.00986842 5.28947 0.0542763C4.33224 0.0986842 3.67599 0.251645 3.10362 0.473684C2.51151 0.705592 2.00822 1.01151 1.50987 1.50987C1.01151 2.00822 0.700658 2.51151 0.473684 3.10362C0.251645 3.67599 0.0986842 4.33224 0.0542763 5.28947C0.00986842 6.24671 0 6.55263 0 9ZM1.62336 9C1.62336 6.59704 1.63322 6.31086 1.67763 5.36349C1.71711 4.4852 1.86513 4.00658 1.98849 3.69079C2.15132 3.27138 2.34868 2.97039 2.66447 2.65461C2.98026 2.33882 3.28125 2.14638 3.70066 1.97862C4.01645 1.85526 4.49507 1.70724 5.37336 1.66776C6.32072 1.62336 6.60691 1.61349 9.00987 1.61349C11.4128 1.61349 11.699 1.62336 12.6464 1.66776C13.5247 1.70724 14.0033 1.85526 14.3191 1.97862C14.7385 2.14145 15.0395 2.33882 15.3553 2.65461C15.6711 2.97039 15.8635 3.27138 16.0312 3.69079C16.1546 4.00658 16.3026 4.4852 16.3421 5.36349C16.3865 6.31086 16.3964 6.59704 16.3964 9C16.3964 11.403 16.3865 11.6891 16.3421 12.6365C16.3026 13.5148 16.1546 13.9934 16.0312 14.3092C15.8684 14.7286 15.6711 15.0296 15.3553 15.3454C15.0395 15.6612 14.7385 15.8536 14.3191 16.0214C14.0033 16.1447 13.5247 16.2928 12.6464 16.3322C11.699 16.3766 11.4128 16.3865 9.00987 16.3865C6.60691 16.3865 6.32072 16.3766 5.37336 16.3322C4.49507 16.2928 4.01645 16.1447 3.70066 16.0214C3.28125 15.8586 2.98026 15.6612 2.66447 15.3454C2.34868 15.0296 2.15625 14.7286 1.98849 14.3092C1.86513 13.9934 1.71711 13.5148 1.67763 12.6365C1.63322 11.6891 1.62336 11.403 1.62336 9Z" fill="white"/>
</mask>
<g mask="url(#mask0)">
<path d="M0 9C0 11.4474 0.00986842 11.7533 0.0542763 12.7105C0.0986842 13.6678 0.251645 14.324 0.473684 14.8964C0.705592 15.4885 1.01151 15.9918 1.50987 16.4901C2.00822 16.9885 2.51151 17.2993 3.10362 17.5263C3.67599 17.7484 4.33224 17.9013 5.28947 17.9457C6.25164 17.9901 6.55757 18 9 18C11.4474 18 11.7533 17.9901 12.7105 17.9457C13.6678 17.9013 14.324 17.7484 14.8964 17.5263C15.4885 17.2944 15.9918 16.9885 16.4901 16.4901C16.9885 15.9918 17.2993 15.4885 17.5263 14.8964C17.7484 14.324 17.9013 13.6678 17.9457 12.7105C17.9901 11.7484 18 11.4424 18 9C18 6.55263 17.9901 6.24671 17.9457 5.28947C17.9013 4.33224 17.7484 3.67599 17.5263 3.10362C17.2944 2.51151 16.9885 2.00822 16.4901 1.50987C15.9918 1.01151 15.4885 0.700658 14.8964 0.473684C14.324 0.251645 13.6678 0.0986842 12.7105 0.0542763C11.7484 0.00986842 11.4424 0 9 0C6.55263 0 6.24671 0.00986842 5.28947 0.0542763C4.33224 0.0986842 3.67599 0.251645 3.10362 0.473684C2.51151 0.705592 2.00822 1.01151 1.50987 1.50987C1.01151 2.00822 0.700658 2.51151 0.473684 3.10362C0.251645 3.67599 0.0986842 4.33224 0.0542763 5.28947C0.00986842 6.24671 0 6.55263 0 9ZM1.62336 9C1.62336 6.59704 1.63322 6.31086 1.67763 5.36349C1.71711 4.4852 1.86513 4.00658 1.98849 3.69079C2.15132 3.27138 2.34868 2.97039 2.66447 2.65461C2.98026 2.33882 3.28125 2.14638 3.70066 1.97862C4.01645 1.85526 4.49507 1.70724 5.37336 1.66776C6.32072 1.62336 6.60691 1.61349 9.00987 1.61349C11.4128 1.61349 11.699 1.62336 12.6464 1.66776C13.5247 1.70724 14.0033 1.85526 14.3191 1.97862C14.7385 2.14145 15.0395 2.33882 15.3553 2.65461C15.6711 2.97039 15.8635 3.27138 16.0312 3.69079C16.1546 4.00658 16.3026 4.4852 16.3421 5.36349C16.3865 6.31086 16.3964 6.59704 16.3964 9C16.3964 11.403 16.3865 11.6891 16.3421 12.6365C16.3026 13.5148 16.1546 13.9934 16.0312 14.3092C15.8684 14.7286 15.6711 15.0296 15.3553 15.3454C15.0395 15.6612 14.7385 15.8536 14.3191 16.0214C14.0033 16.1447 13.5247 16.2928 12.6464 16.3322C11.699 16.3766 11.4128 16.3865 9.00987 16.3865C6.60691 16.3865 6.32072 16.3766 5.37336 16.3322C4.49507 16.2928 4.01645 16.1447 3.70066 16.0214C3.28125 15.8586 2.98026 15.6612 2.66447 15.3454C2.34868 15.0296 2.15625 14.7286 1.98849 14.3092C1.86513 13.9934 1.71711 13.5148 1.67763 12.6365C1.63322 11.6891 1.62336 11.403 1.62336 9Z" fill="white"/>
</g>
</svg>
