<svg width="67" height="44" viewBox="0 0 67 44" fill="none" xmlns="http://www.w3.org/2000/svg">
<path d="M61.261 37.5216H66.9675V25.8804C66.9675 24.9674 66.5109 24.0543 65.8262 23.5978L60.5762 20.1739L55.7827 12.4131H46.6523" stroke="#553091" stroke-width="2" stroke-miterlimit="10" stroke-linecap="round" stroke-linejoin="round"/>
<path d="M35.2383 37.5215H50.0752" stroke="#553091" stroke-width="2" stroke-miterlimit="10" stroke-linecap="round" stroke-linejoin="round"/>
<path d="M55.5544 42.9999C58.5218 42.9999 61.0326 40.4891 61.0326 37.5217C61.0326 34.5543 58.5218 32.0435 55.5544 32.0435C52.587 32.0435 50.0762 34.5543 50.0762 37.5217C50.0762 40.4891 52.587 42.9999 55.5544 42.9999Z" stroke="#553091" stroke-width="2" stroke-miterlimit="10" stroke-linecap="round" stroke-linejoin="round"/>
<path d="M12.6423 42.9997C15.8379 42.9997 18.1205 40.4888 18.1205 37.5214C18.1205 34.3258 15.8379 31.8149 12.6423 31.8149C9.67492 31.8149 7.16406 34.3258 7.16406 37.2932C7.16406 40.4888 9.67492 42.9997 12.6423 42.9997Z" stroke="#553091" stroke-width="2" stroke-miterlimit="10" stroke-linecap="round" stroke-linejoin="round"/>
<path d="M29.7614 42.9999C32.7288 42.9999 35.2397 40.4891 35.2397 37.5217C35.2397 34.5543 32.7288 32.0435 29.7614 32.0435C26.7941 32.0435 24.2832 34.5543 24.2832 37.5217C24.2832 40.4891 26.7941 42.9999 29.7614 42.9999Z" stroke="#553091" stroke-width="2" stroke-miterlimit="10" stroke-linecap="round" stroke-linejoin="round"/>
<path d="M2.82617 30.6736H66.9671" stroke="#553091" stroke-width="2" stroke-miterlimit="10" stroke-linecap="round" stroke-linejoin="round"/>
<path d="M46.6519 30.6738V1H1V30.6738H3.2826V37.5215H7.16301" stroke="#553091" stroke-width="2" stroke-miterlimit="10" stroke-linecap="round" stroke-linejoin="round"/>
<path d="M18 9H33" stroke="#8CD3E4" stroke-width="2" stroke-linecap="round" stroke-linejoin="round"/>
<path d="M18 14H26" stroke="#8CD3E4" stroke-width="2" stroke-linecap="round" stroke-linejoin="round"/>
<path d="M24.2822 37.5215H18.1191" stroke="#553091" stroke-width="2" stroke-miterlimit="10" stroke-linecap="round" stroke-linejoin="round"/>
</svg>
