<svg width="49" height="60" viewBox="0 0 49 60" fill="none" xmlns="http://www.w3.org/2000/svg">
<path d="M24.9121 59C48.1121 50.5 47.9121 22.3 47.9121 22.3" stroke="#553091" stroke-width="2" stroke-miterlimit="10" stroke-linecap="round" stroke-linejoin="round"/>
<path d="M47.9125 22.3V10C47.9125 9.5 47.4125 9 46.9125 9H42.3125" stroke="#553091" stroke-width="2" stroke-miterlimit="10" stroke-linecap="round" stroke-linejoin="round"/>
<path d="M24.9122 59C1.71217 50.5 1.91217 22.3 1.91217 22.3" stroke="#553091" stroke-width="2" stroke-miterlimit="10" stroke-linecap="round" stroke-linejoin="round"/>
<path d="M1.91211 22.3V10C1.91211 9.5 2.41211 9 2.91211 9H7.51211" stroke="#553091" stroke-width="2" stroke-miterlimit="10" stroke-linecap="round" stroke-linejoin="round"/>
<path d="M7.6123 9C20.2123 9 24.9123 1 24.9123 1H25.0123C25.0123 1 29.7123 9 42.3123 9" stroke="#553091" stroke-width="2" stroke-miterlimit="10" stroke-linecap="round" stroke-linejoin="round"/>
<path d="M24.9121 20L28.0121 26.6L34.9121 27.7L29.9121 32.8L31.1121 40L24.9121 36.6L18.7121 40L19.9121 32.8L14.9121 27.7L21.8121 26.6L24.9121 20Z" stroke="#553091" stroke-width="2" stroke-miterlimit="10" stroke-linecap="round" stroke-linejoin="round"/>
</svg>
