<svg width="13" height="21" viewBox="0 0 13 21" fill="none" xmlns="http://www.w3.org/2000/svg">
<path d="M5.23284 14.6839C3.61673 14.5153 2.15956 14.1173 0.911992 13.1416C0.757193 13.0202 0.597372 12.9032 0.456109 12.7676C-0.089947 12.2431 -0.144967 11.6425 0.287117 11.0235C0.656759 10.4938 1.27727 10.3521 1.92223 10.6563C2.04712 10.7152 2.16611 10.7888 2.28008 10.8678C4.60513 12.4654 7.79915 12.5095 10.1329 10.9397C10.3642 10.7624 10.6113 10.6178 10.8978 10.5441C11.4547 10.401 11.9742 10.6056 12.2731 11.0929C12.6145 11.6495 12.6102 12.1927 12.1894 12.6248C11.544 13.2872 10.7679 13.7665 9.90543 14.1009C9.08995 14.4171 8.19674 14.5763 7.3127 14.6819C7.4461 14.8271 7.50898 14.8985 7.59239 14.9824C8.79279 16.1884 9.99844 17.3895 11.1949 18.5993C11.6025 19.0115 11.6877 19.5226 11.4633 20.0021C11.2178 20.5261 10.6685 20.8709 10.1299 20.834C9.78862 20.8104 9.52247 20.6405 9.28601 20.4023C8.38014 19.4908 7.45724 18.596 6.56971 17.6672C6.31142 17.3971 6.18718 17.4482 5.95924 17.6827C5.04791 18.6209 4.12174 19.5447 3.1901 20.4632C2.77177 20.8757 2.27397 20.9499 1.78883 20.7143C1.27312 20.4643 0.944961 19.9379 0.970288 19.4089C0.987754 19.051 1.16373 18.7777 1.40936 18.5325C2.59732 17.3463 3.78201 16.157 4.96713 14.9688C5.04551 14.8898 5.11865 14.8059 5.23284 14.6839Z" fill="white"/>
<path d="M6.21685 10.5519C3.33374 10.5421 0.969605 8.15199 0.986417 5.2643C1.00301 2.34472 3.36867 -0.00805765 6.28017 2.0741e-05C9.19756 0.0078808 11.5392 2.3945 11.5246 5.34442C11.5097 8.22623 9.12922 10.562 6.21685 10.5519ZM8.83709 5.27128C8.83207 3.83748 7.69017 2.69602 6.25921 2.69471C4.81623 2.69318 3.66408 3.85538 3.67521 5.30229C3.68591 6.73063 4.83763 7.86401 6.27253 7.85877C7.70306 7.85375 8.84189 6.70487 8.83709 5.27128Z" fill="white"/>
</svg>
