<svg width="74" height="54" viewBox="0 0 74 54" fill="none" xmlns="http://www.w3.org/2000/svg">
<path d="M69.96 47.5889C69.96 42.1889 68.16 42.3589 63.93 40.1989C61.93 39.1789 60.46 38.0689 59.46 37.1789C58.42 36.2489 57.82 34.9189 57.82 33.5189V3.46885C55.56 1.67885 46.52 1.20885 42 3.86885V25.5589C42 25.5589 42.71 31.3389 42.71 33.3389C42.71 35.0089 42 40.2589 42 40.2589V45.0089C42 45.7489 42.43 46.4189 43.09 46.7289L46.53 48.3489L48.79 47.1089L49.16 47.9188C49.78 49.2888 50.9 50.3589 52.31 50.8989C55.24 52.0189 60.84 53.2689 68.6 50.9489C69.4 50.7089 69.96 49.9689 69.96 49.1289V47.5889Z" stroke="#8CD3E4" stroke-width="2.0031" stroke-miterlimit="10" stroke-linecap="round" stroke-linejoin="round"/>
<path d="M42 40.7789C42 40.7789 54.92 45.9989 56.38 46.3289C58.34 46.7789 65.21 47.1189 69.68 44.7189" stroke="#8CD3E4" stroke-width="2.0031" stroke-miterlimit="10" stroke-linecap="round" stroke-linejoin="round"/>
<path d="M42 15.3589C49.32 14.3689 57.83 15.3589 57.83 15.3589" stroke="#8CD3E4" stroke-width="2.0031" stroke-miterlimit="10" stroke-linecap="round" stroke-linejoin="round"/>
<path d="M65 25.75L68.3103 28L73 23" stroke="#8CD3E4" stroke-width="2" stroke-linecap="round" stroke-linejoin="round"/>
<path d="M29.96 47.5889C29.96 42.1889 28.16 42.3589 23.93 40.1989C21.93 39.1789 20.46 38.0689 19.46 37.1789C18.42 36.2489 17.82 34.9189 17.82 33.5189V3.46885C15.56 1.67885 6.52 1.20885 2 3.86885V25.5589C2 25.5589 2.71 31.3389 2.71 33.3389C2.71 35.0089 2 40.2589 2 40.2589V45.0089C2 45.7489 2.43 46.4189 3.09 46.7289L6.53 48.3489L8.79 47.1089L9.16 47.9188C9.78 49.2888 10.9 50.3589 12.31 50.8989C15.24 52.0189 20.84 53.2689 28.6 50.9489C29.4 50.7089 29.96 49.9689 29.96 49.1289V47.5889Z" stroke="white" stroke-width="2.0031" stroke-miterlimit="10" stroke-linecap="round" stroke-linejoin="round"/>
<path d="M2 40.7789C2 40.7789 14.92 45.9989 16.38 46.3289C18.34 46.7789 25.21 47.1189 29.68 44.7189" stroke="white" stroke-width="2.0031" stroke-miterlimit="10" stroke-linecap="round" stroke-linejoin="round"/>
<path d="M2 15.3589C9.32 14.3689 17.83 15.3589 17.83 15.3589" stroke="white" stroke-width="2.0031" stroke-miterlimit="10" stroke-linecap="round" stroke-linejoin="round"/>
<path d="M33 23L27 29" stroke="white" stroke-width="2" stroke-linecap="round" stroke-linejoin="round"/>
<path d="M27 23L33 29" stroke="white" stroke-width="2" stroke-linecap="round" stroke-linejoin="round"/>
</svg>
