<svg width="81" height="60" viewBox="0 0 81 60" fill="none" xmlns="http://www.w3.org/2000/svg">
<path d="M25.958 24.5224L29.0944 19.0338" stroke="#553091" stroke-width="2" stroke-miterlimit="10" stroke-linecap="round" stroke-linejoin="round"/>
<path d="M19.9465 22.9546L7.13965 1" stroke="#553091" stroke-width="2" stroke-miterlimit="10" stroke-linecap="round" stroke-linejoin="round"/>
<path d="M13.6738 11.9773L19.6852 1" stroke="#553091" stroke-width="2" stroke-miterlimit="10" stroke-linecap="round" stroke-linejoin="round"/>
<path d="M79.2759 10.9317L74.0486 19.5567L56.2758 24.5226C52.3554 25.568 49.219 28.443 47.9122 32.3635L45.8213 38.1135C45.5599 39.159 46.344 40.2044 47.3894 39.9431L58.6281 36.5453C59.9349 36.0226 60.9804 35.2385 61.5031 33.6703L62.2872 31.0567C62.5486 30.2726 61.7645 29.4885 60.9804 29.7499L55.7531 31.0567C54.1849 31.5794 53.1395 32.6249 52.6167 34.193C51.0485 39.9431 47.1281 53.534 46.6054 54.8408C45.8213 56.409 40.8553 58.4999 40.8553 58.4999H39.8099C39.8099 58.4999 34.844 56.409 34.0599 54.8408C33.5372 53.534 29.6167 39.9431 28.0485 34.193C27.5258 32.6249 26.4803 31.5794 24.9121 31.0567L19.6849 29.7499C18.9008 29.4885 18.1167 30.2726 18.378 31.0567L19.1621 33.6703C19.6849 34.9771 20.7303 36.0226 22.0371 36.5453L33.2758 39.9431C34.3212 40.2044 35.3667 39.159 34.844 38.1135L32.7531 32.3635C31.4462 28.443 28.3099 25.568 24.3894 24.5226L7.13939 19.2953L1.91211 10.6703" stroke="#553091" stroke-width="2" stroke-miterlimit="10" stroke-linecap="round" stroke-linejoin="round"/>
<path d="M55.2301 24.5224L52.0938 19.0338" stroke="#553091" stroke-width="2" stroke-miterlimit="10" stroke-linecap="round" stroke-linejoin="round"/>
<path d="M61.2422 22.9546L74.049 1" stroke="#553091" stroke-width="2" stroke-miterlimit="10" stroke-linecap="round" stroke-linejoin="round"/>
<path d="M67.5147 11.9773L61.7646 1" stroke="#553091" stroke-width="2" stroke-miterlimit="10" stroke-linecap="round" stroke-linejoin="round"/>
</svg>
