<svg width="71" height="70" viewBox="0 0 71 70" fill="none" xmlns="http://www.w3.org/2000/svg">
<path d="M69.4121 34.75C69.4121 32.3393 68.3407 30.1964 66.4657 28.8571C65.1264 27.7857 64.8585 26.1786 65.3943 24.5714C66.1978 22.4286 66.1978 20.0179 64.8585 17.875C63.5193 15.7321 61.6443 14.3929 59.2335 14.125C57.6264 13.8571 56.2871 12.5179 56.0193 10.9107C55.7514 8.76786 54.4121 6.625 52.2693 5.28571C50.6621 4.48214 48.2514 4.21429 46.1085 5.01786C44.5014 5.55357 42.8943 5.28571 41.8228 3.94643C40.4835 2.07143 38.3407 1 35.93 1C33.5193 1 31.3764 2.07143 30.0371 3.94643C28.9657 5.28571 27.3585 5.55357 25.7514 5.01786C23.3407 4.21429 20.93 4.21429 19.055 5.55357C16.9121 6.625 15.5728 8.76786 15.305 10.9107C15.0371 12.5179 13.6978 13.8571 12.0907 14.125C9.67997 14.3929 7.80497 15.7321 6.46568 17.875C5.39425 20.0179 5.1264 22.4286 5.92997 24.5714C6.46568 26.1786 6.19782 27.7857 4.85854 28.8571C2.98354 30.1964 1.91211 32.3393 1.91211 34.75C1.91211 37.1607 2.98354 39.3036 4.85854 40.6429C6.19782 41.7143 6.46568 43.3214 5.92997 44.9286C5.1264 47.0714 5.1264 49.4821 6.46568 51.625C7.80497 53.7679 9.67997 55.1071 12.0907 55.375C13.6978 55.6429 15.0371 56.9821 15.305 58.5893C15.305 60.7321 16.6443 62.875 18.7871 63.9464C20.93 65.2857 23.3407 65.2857 25.4835 64.4821C27.0907 63.9464 28.6978 64.2143 29.7693 65.5536C31.1085 67.4286 33.2514 68.5 35.6621 68.5C38.0728 68.5 40.2157 67.4286 41.555 65.5536C42.6264 64.2143 44.2335 63.9464 45.8407 64.4821C47.9835 65.2857 50.3943 65.2857 52.5371 63.9464C54.68 62.6071 56.0193 60.7321 56.2871 58.3214C56.555 56.7143 57.8943 55.375 59.5014 55.1071C61.6443 54.8393 63.7871 53.5 65.1264 51.3571C66.4657 49.2143 66.4657 46.8036 65.6621 44.6607C65.1264 43.0536 65.3943 41.4464 66.7335 40.375C68.3407 39.3036 69.4121 37.1607 69.4121 34.75Z" stroke="#553091" stroke-width="2" stroke-miterlimit="10" stroke-linecap="round" stroke-linejoin="round"/>
<path d="M33.2511 43.8575C36.7332 45.1968 35.9297 50.0182 32.4475 49.2146C28.9654 48.4111 27.3582 44.9289 27.0904 37.4289C26.8225 29.9289 22.0011 22.9646 15.0368 28.0539C10.2154 31.5361 13.6975 35.2861 20.1261 31.0003C24.4118 28.0539 26.8225 30.7325 29.2332 27.5182C31.9118 29.1253 31.644 30.1968 35.394 30.1968" stroke="#553091" stroke-width="2" stroke-miterlimit="10" stroke-linecap="round" stroke-linejoin="round"/>
<path d="M37.8048 43.8575C34.3227 45.1968 35.1263 50.0182 38.6084 49.2146C42.0906 48.4111 43.6977 44.9289 43.9656 37.4289C44.2334 29.9289 49.0548 22.9646 56.0191 28.0539C60.8406 31.5361 57.3584 35.2861 50.9298 31.0003C46.6441 28.0539 44.2334 30.7325 41.8227 27.5182C39.1441 29.1253 39.412 30.1968 35.662 30.1968" stroke="#553091" stroke-width="2" stroke-miterlimit="10" stroke-linecap="round" stroke-linejoin="round"/>
</svg>
