<svg width="55" height="61" viewBox="0 0 55 61" fill="none" xmlns="http://www.w3.org/2000/svg">
<path d="M14.9531 36.4078H12.1625C10.4211 36.4078 9.01465 35.0013 9.01465 33.2599V23.7047C9.01465 21.9634 10.4211 20.5569 12.1625 20.5569H14.9755" stroke="white" stroke-width="2" stroke-miterlimit="10" stroke-linecap="round" stroke-linejoin="round"/>
<path d="M39.8467 20.5792H42.6373C44.3787 20.5792 45.7852 21.9857 45.7852 23.7271V33.2823C45.7852 35.0236 44.3787 36.4301 42.6373 36.4301H39.8467" stroke="white" stroke-width="2" stroke-miterlimit="10" stroke-linecap="round" stroke-linejoin="round"/>
<path d="M12.252 20.5792V16.1365C12.252 7.78686 19.0165 1 27.3884 1C35.7381 1 42.5249 7.76453 42.5249 16.1365V20.5792" stroke="white" stroke-width="2" stroke-linecap="round" stroke-linejoin="round"/>
<path d="M54 59.358C44.0206 55.4957 35.8719 50.7182 34.9566 47.7489V44.6234C37.0329 42.5025 38.8635 40.4262 39.8458 36.9658V21.4275C39.8458 14.1941 36.5864 9.55051 27.3884 9.55051C18.4136 9.55051 14.9756 14.1941 14.9756 21.4275V36.9435C15.9356 40.4039 17.4983 42.4802 19.5522 44.6011V47.7266C18.6146 50.6958 10.9794 55.4957 1 59.3357" stroke="#8CD3E4" stroke-width="2" stroke-miterlimit="10" stroke-linecap="round" stroke-linejoin="round"/>
<path d="M44.2222 35.9614C44.2222 43.7082 38.8419 44.9584 30.1797 45.1147" stroke="white" stroke-width="2" stroke-miterlimit="10" stroke-linecap="round" stroke-linejoin="round"/>
<path d="M30.2006 45.1145C30.2006 46.387 29.1736 47.414 27.9011 47.414C26.6285 47.414 25.6016 46.387 25.6016 45.1145C25.6016 43.842 26.6285 42.815 27.9011 42.815C29.1736 42.815 30.2006 43.842 30.2006 45.1145Z" stroke="white" stroke-width="2" stroke-miterlimit="10" stroke-linecap="round" stroke-linejoin="round"/>
</svg>
