<svg width="85" height="102" viewBox="0 0 85 102" fill="none" xmlns="http://www.w3.org/2000/svg">
<path opacity="0.3" d="M2 80.0955C2 80.0955 27.4289 90.3986 30.3883 91.0562C34.3342 91.9331 48.2543 92.5907 57.0229 87.6584" stroke="white" stroke-width="2.0031" stroke-miterlimit="10" stroke-linecap="round" stroke-linejoin="round"/>
<path opacity="0.3" d="M57.2422 88.8639C61.0784 89.7408 74.4506 90.3984 82.8903 85.5757" stroke="white" stroke-width="2.0031" stroke-miterlimit="10" stroke-linecap="round" stroke-linejoin="round"/>
<path d="M2 27.4838C16.4682 25.5109 33.2381 27.4838 33.2381 27.4838" stroke="#8CD3E4" stroke-width="2.0031" stroke-miterlimit="10" stroke-linecap="round" stroke-linejoin="round"/>
<path d="M33.2383 27.2646C46.2816 26.0589 59.9825 27.5935 59.9825 27.5935" stroke="#8CD3E4" stroke-width="2.0031" stroke-miterlimit="10" stroke-linecap="round" stroke-linejoin="round"/>
<path d="M33.2383 20.6882C47.0488 18.7153 59.9825 20.3594 59.9825 20.3594" stroke="#8CD3E4" stroke-width="1.9275" stroke-linecap="round" stroke-linejoin="round" stroke-dasharray="2 4"/>
<path d="M2 20.7979C17.5643 17.9481 33.2381 19.921 33.2381 19.921" stroke="#8CD3E4" stroke-width="1.9275" stroke-linecap="round" stroke-linejoin="round" stroke-dasharray="2 4"/>
<path d="M57.1325 91.0562C57.1325 80.4242 53.6251 80.7531 45.2949 76.4784C41.3491 74.5054 38.4993 72.3133 36.5263 70.5596C34.4438 68.6963 33.3477 66.0657 33.3477 63.3255V4.13748C28.7442 0.520432 10.8782 -0.356428 2 4.90473V47.6516C2 47.6516 3.4249 59.0508 3.4249 62.9967C3.4249 66.2849 2 76.588 2 76.588V85.9046C2 87.3295 2.87686 88.6448 4.19215 89.3024L10.9878 92.4811L15.4817 90.0697L16.249 91.7138C17.345 94.454 19.5372 96.5365 22.2774 97.6326C28.0866 99.8248 39.0473 102.346 54.3923 97.7422C55.9269 97.3038 57.0229 95.7693 57.0229 94.1252L57.1325 91.0562Z" stroke="white" stroke-width="2.0031" stroke-miterlimit="10" stroke-linecap="round" stroke-linejoin="round"/>
<path d="M55.7076 96.975C61.6264 98.1807 70.0661 98.3999 80.3692 95.3309C81.9037 94.8924 82.9998 93.4675 82.9998 91.8234V88.864C82.9998 78.5609 79.602 78.8897 71.6006 74.8343C67.7644 72.8613 65.0242 70.7788 63.1609 69.1347C61.1879 67.381 60.0919 64.86 60.0919 62.2294V5.12394C56.2556 2.16454 42.4451 1.06847 33.3477 4.35669" stroke="white" stroke-width="2.0031" stroke-miterlimit="10" stroke-linecap="round" stroke-linejoin="round"/>
</svg>
