<svg width="74" height="117" viewBox="0 0 74 117" fill="none" xmlns="http://www.w3.org/2000/svg">
<path d="M1 14.7634V96.2634C1 97.2634 1.6 98.1634 2.5 98.5634L38.3 115.363C42.6 117.363 47.1 112.963 45.3 108.663L34 82.3634C33.2 80.5634 32.8 78.5634 32.8 76.5634V27.2634C32.8 26.2634 32.2 25.3634 31.3 24.9634L4.6 12.4634C2.9 11.7634 1 12.9634 1 14.7634Z" stroke="white" stroke-width="2" stroke-miterlimit="10" stroke-linecap="round" stroke-linejoin="round"/>
<path d="M2.2998 12.5634L29.5998 1.36335C30.7998 0.863353 32.0998 0.863353 33.2998 1.46335L58.1998 13.0634C59.0998 13.4634 59.6998 14.3634 59.6998 15.3634V64.7634C59.6998 66.7634 60.0998 68.6634 60.8998 70.5634L72.1998 96.7634C73.3998 99.6634 71.8998 102.563 69.4998 103.563" stroke="white" stroke-width="2" stroke-miterlimit="10" stroke-linecap="round" stroke-linejoin="round"/>
<path d="M32.5 26.0635L59.2 14.0635" stroke="white" stroke-width="2" stroke-miterlimit="10" stroke-linecap="round" stroke-linejoin="round"/>
<path d="M69.3004 103.563L42.4004 115.463" stroke="white" stroke-width="2" stroke-miterlimit="10" stroke-linecap="round" stroke-linejoin="round"/>
<path opacity="0.3" d="M25 10L38.7002 16.3367" stroke="white" stroke-width="2" stroke-miterlimit="10" stroke-linecap="round" stroke-linejoin="round"/>
<path opacity="0.3" d="M10.2002 66.7634L22.1002 72.2634" stroke="white" stroke-width="2" stroke-miterlimit="10" stroke-linecap="round" stroke-linejoin="round"/>
<path opacity="0.3" d="M10.2002 76.2634L22.1002 81.7634" stroke="white" stroke-width="2" stroke-miterlimit="10" stroke-linecap="round" stroke-linejoin="round"/>
<path d="M12 50.3635L20.3 54.2635" stroke="#8CD3E4" stroke-width="2" stroke-miterlimit="10" stroke-linecap="round" stroke-linejoin="round"/>
<path d="M14.6006 56.1633L17.8006 57.6633" stroke="#8CD3E4" stroke-width="2" stroke-miterlimit="10" stroke-linecap="round" stroke-linejoin="round"/>
<path opacity="0.3" d="M13.5 72.8635L18.8 75.3635" stroke="white" stroke-width="2" stroke-miterlimit="10" stroke-linecap="round" stroke-linejoin="round"/>
<path d="M20.358 46.5746C23.2587 45.0903 24.0195 40.7784 22.0573 36.9436C20.095 33.1087 16.1529 31.2032 13.2522 32.6875C10.3515 34.1717 9.59069 38.4836 11.5529 42.3185C13.5151 46.1533 17.4573 48.0588 20.358 46.5746Z" stroke="#8CD3E4" stroke-width="2" stroke-miterlimit="10" stroke-linecap="round" stroke-linejoin="round"/>
</svg>
