<svg width="52" height="50" viewBox="0 0 52 50" fill="none" xmlns="http://www.w3.org/2000/svg">
<path d="M51 10.4087V44.9777C51 46.788 49.5345 48.3397 47.6379 48.3397H4.36207C2.46552 48.2535 1 46.788 1 44.9777V14.4604C1 12.6501 2.46552 11.2708 4.36207 11.2708C4.36207 11.2708 44.3621 11.2708 46 11.2708C48.1552 11.2708 50.569 11.0122 50.9138 9.1156" stroke="white" stroke-width="2" stroke-miterlimit="10" stroke-linecap="round" stroke-linejoin="round"/>
<path d="M7.12012 10.581V4.46035C7.12012 2.65001 8.58563 1.44311 10.396 1.78794L47.7236 6.70173C50.9994 7.13277 50.9994 9.28794 50.9994 9.28794V11.4431" stroke="white" stroke-width="2" stroke-miterlimit="10" stroke-linecap="round" stroke-linejoin="round"/>
<path d="M11.5 33.0003C13.433 33.0003 15 31.4333 15 29.5003C15 27.5673 13.433 26.0003 11.5 26.0003C9.567 26.0003 8 27.5673 8 29.5003C8 31.4333 9.567 33.0003 11.5 33.0003Z" stroke="#8CD3E4" stroke-width="2" stroke-miterlimit="10" stroke-linecap="round" stroke-linejoin="round"/>
</svg>
