<svg width="27" height="30" viewBox="0 0 27 30" fill="none" xmlns="http://www.w3.org/2000/svg">
<path d="M1 3.77772C1 9.33327 1 26.9259 1 26.9259C1 26.9259 3.77778 30.6296 11.6481 26.9259C19.5185 23.2222 26 26.4629 26 26.4629C26 26.4629 26 11.6481 26 3.77772C23.6852 0.0740131 2.85185 0.0740131 1 3.77772Z" stroke="#553091" stroke-width="2" stroke-miterlimit="10" stroke-linecap="round" stroke-linejoin="round"/>
<path d="M1 3.77771C3.31481 7.48141 24.1481 7.48141 26 3.77771" stroke="#553091" stroke-width="2" stroke-miterlimit="10" stroke-linecap="round" stroke-linejoin="round"/>
<path d="M1 17.2036C3.31481 20.9073 24.1481 20.9073 26 17.2036" stroke="#553091" stroke-width="2" stroke-miterlimit="10" stroke-linecap="round" stroke-linejoin="round"/>
<path d="M17.9901 13.2171L13.502 8.72897L9.01383 13.2171L13.502 17.7052L17.9901 13.2171Z" stroke="#553091" stroke-width="2" stroke-miterlimit="10" stroke-linecap="round" stroke-linejoin="round"/>
<path d="M8.61108 19.7314C6.63422 18.2453 5.35645 15.8796 5.35645 13.2175C5.35645 10.3333 6.85645 7.80086 9.1157 6.35178" stroke="#553091" stroke-width="2" stroke-miterlimit="10" stroke-linecap="round" stroke-linejoin="round"/>
<path d="M17.9219 6.37956C20.1626 7.82864 21.6395 10.3518 21.6395 13.2175C21.6395 15.9027 20.3385 18.2823 18.3339 19.7685" stroke="#553091" stroke-width="2" stroke-miterlimit="10" stroke-linecap="round" stroke-linejoin="round"/>
</svg>
