<svg width="44" height="44" viewBox="0 0 44 44" fill="none" xmlns="http://www.w3.org/2000/svg">
<path fill-rule="evenodd" clip-rule="evenodd" d="M15.2533 0H28.7467C41.0667 0 44 2.93333 44 15.2533V28.7467C44 41.0667 41.0667 44 28.7467 44H15.2533C2.93333 44 0 41.0667 0 28.7467V15.2533C0 2.93333 2.93333 0 15.2533 0Z" fill="#5181B8"/>
<path fill-rule="evenodd" clip-rule="evenodd" d="M36.0325 15.1585C36.2365 14.4788 36.0325 13.9792 35.0622 13.9792H31.8539C31.0381 13.9792 30.6622 14.4108 30.4583 14.8867C30.4583 14.8867 28.8266 18.8635 26.5152 21.4466C25.7675 22.1944 25.4276 22.4323 25.0197 22.4323C24.8157 22.4323 24.5206 22.1944 24.5206 21.5147V15.1585C24.5206 14.3427 24.2838 13.9792 23.6039 13.9792H18.5622C18.0526 13.9792 17.746 14.3578 17.746 14.7167C17.746 15.4901 18.9014 15.6684 19.0206 17.8437V22.5684C19.0206 23.6042 18.8336 23.7922 18.4257 23.7922C17.338 23.7922 14.6925 19.7973 13.1232 15.2266C12.8157 14.3381 12.5072 13.9792 11.6872 13.9792H8.47891C7.56224 13.9792 7.37891 14.4108 7.37891 14.8867C7.37891 15.7365 8.46676 19.9513 12.4435 25.5256C15.0947 29.3323 18.8299 31.3959 22.2289 31.3959C24.2685 31.3959 24.5206 30.9376 24.5206 30.1481V27.2709C24.5206 26.3542 24.7138 26.1714 25.3596 26.1714C25.8355 26.1714 26.6511 26.4092 28.5548 28.2446C30.7301 30.4201 31.0885 31.3959 32.3122 31.3959H35.5206C36.4372 31.3959 36.8956 30.9376 36.6311 30.0331C36.3419 29.1315 35.3033 27.8239 33.9251 26.2734C33.1773 25.3895 32.0556 24.4377 31.716 23.962C31.24 23.3501 31.3759 23.0781 31.716 22.5343C31.716 22.5343 35.6246 17.0281 36.0325 15.1585Z" fill="white"/>
</svg>
