<svg width="21" height="12" viewBox="0 0 21 12" fill="none" xmlns="http://www.w3.org/2000/svg">
<path d="M10.275 11.9461H11.5289C11.5289 11.9461 11.906 11.9022 12.0989 11.6914C12.2742 11.4982 12.2742 11.1381 12.2742 11.1381C12.2742 11.1381 12.2479 9.45191 13.0283 9.206C13.7999 8.96009 14.7908 10.8395 15.8342 11.5597C16.6234 12.1042 17.2284 11.99 17.2284 11.99L20.0343 11.9549C20.0343 11.9549 21.4986 11.8671 20.8059 10.7078C20.7533 10.6112 20.4025 9.8559 18.719 8.29262C16.9566 6.65909 17.1933 6.92256 19.3153 4.09461C20.613 2.36447 21.1303 1.31058 20.9725 0.862674C20.8147 0.432334 19.8677 0.546506 19.8677 0.546506L16.711 0.564071C16.711 0.564071 16.4743 0.528941 16.2989 0.634331C16.1323 0.73972 16.0183 0.976846 16.0183 0.976846C16.0183 0.976846 15.5185 2.31178 14.8521 3.44471C13.4492 5.83354 12.8793 5.96528 12.6513 5.81597C12.1164 5.47346 12.2479 4.42835 12.2479 3.68184C12.2479 1.36327 12.5987 0.397204 11.564 0.151296C11.222 0.072254 10.9677 0.0107769 10.0909 0.00199441C8.95977 -0.00678804 8.01278 0.00199442 7.46914 0.27425C7.10964 0.449899 6.82905 0.845109 7.00442 0.862674C7.21486 0.889021 7.68835 0.994411 7.93387 1.32814C8.2583 1.76727 8.24953 2.75968 8.24953 2.75968C8.24953 2.75968 8.43367 5.49102 7.81111 5.82476C7.38146 6.0531 6.80274 5.57885 5.54886 3.40958C4.90877 2.29421 4.41773 1.07345 4.41773 1.07345C4.41773 1.07345 4.32128 0.845109 4.15468 0.722155C3.97055 0.572853 3.68119 0.520159 3.68119 0.520159L0.682391 0.546506C0.682391 0.546506 0.235202 0.555288 0.0686025 0.757285C-0.0804605 0.932934 0.0598341 1.29301 0.0598341 1.29301C0.0598341 1.29301 2.401 6.79082 5.0666 9.56608C7.50421 12.113 10.275 11.9461 10.275 11.9461Z" fill="white"/>
</svg>
