<svg width="30" height="36" viewBox="0 0 30 36" fill="none" xmlns="http://www.w3.org/2000/svg">
<path d="M11.7413 10.9328L11.0402 12.4519C10.6896 13.192 10.9233 14.049 11.5855 14.5164L11.975 14.789" stroke="#8CD3E4" stroke-width="2" stroke-miterlimit="10" stroke-linecap="round" stroke-linejoin="round"/>
<path d="M12.8335 1.00005C12.8335 1.00005 11.9765 4.7005 10.2626 8.08932C7.30228 14.0879 5.00411 13.6984 5.00411 16.1913C5.00411 16.1913 4.73145 18.1 8.62665 20.0086C12.5998 21.9173 13.4567 22.8132 16.3002 26.8252C17.1182 27.9548 18.4036 28.656 19.8059 28.656H28.0247C28.648 28.656 29.1154 28.0327 28.9206 27.4095L28.7648 26.9031C28.4532 25.9293 27.5184 25.2672 26.5056 25.2672H25.5318C24.6749 25.2672 23.8569 24.8387 23.3895 24.1376L19.8059 18.9959C18.1309 16.5809 17.7025 13.5426 18.6373 10.7381L21.9093 1.00005" stroke="#553091" stroke-width="2" stroke-miterlimit="10" stroke-linecap="round" stroke-linejoin="round"/>
<path d="M29.001 35.0001L7.00098 35.0001" stroke="#EFEDF9" stroke-width="2" stroke-linecap="round" stroke-linejoin="round"/>
<path d="M1 35L1 1" stroke="#EFEDF9" stroke-width="2" stroke-linecap="round" stroke-linejoin="round"/>
<path d="M29.001 35.0001L26.001 35.0001" stroke="#553091" stroke-width="2" stroke-linecap="round" stroke-linejoin="round"/>
<path d="M1 35L1 32" stroke="#553091" stroke-width="2" stroke-linecap="round" stroke-linejoin="round"/>
<path d="M8.00098 35.0001L5.00098 35.0001" stroke="#553091" stroke-width="2" stroke-linecap="round" stroke-linejoin="round"/>
<path d="M1 4L1 1" stroke="#553091" stroke-width="2" stroke-linecap="round" stroke-linejoin="round"/>
</svg>
