<svg width="296" height="44" viewBox="0 0 296 44" fill="none" xmlns="http://www.w3.org/2000/svg">
<path d="M173.556 12.4796C173.556 10.4212 174.07 9.00595 175.228 7.84806C176.386 6.81882 177.93 6.3042 179.86 6.3042H186.421V15.1814H181.918V10.5498H180.117C178.702 10.5498 178.059 11.3217 178.059 12.7369V17.6258H186.421V22.1288H178.059V33.4504H181.79V27.4036H186.293V37.696H173.556V12.4796Z" fill="#553091"/>
<path d="M105.755 12.4796C105.755 10.4212 106.27 9.00596 107.427 7.84807C108.714 6.94748 110.129 6.43286 112.059 6.43286H118.62V15.3101H114.117V10.5498H112.445C111.03 10.5498 110.386 11.3217 110.386 12.737V17.6258H118.749V22.1288H110.386V33.4504H114.117V27.4036H118.62V37.696H105.884V12.4796H105.755Z" fill="#553091"/>
<path d="M57.2516 8.10536C58.4095 6.81881 60.082 6.17554 62.3978 6.17554C64.585 6.17554 66.2575 6.81881 67.4154 8.10536C68.5733 9.39191 69.0879 11.1931 69.0879 13.3802V15.1814H64.585V14.1521C64.585 12.8656 64.4563 11.965 64.0703 11.3217C63.6844 10.6785 63.1698 10.4212 62.3978 10.4212C61.4972 10.4212 60.9826 10.6785 60.5967 11.3217C60.2107 11.965 60.082 12.8656 60.082 14.1521L60.5967 30.8773C60.5967 31.9065 60.854 32.5498 61.1113 33.0644C61.3686 33.579 61.8832 33.7077 62.3978 33.7077C63.0411 33.7077 63.4271 33.4504 63.6844 33.0644C63.9417 32.5498 64.0704 31.9065 64.199 30.8773L64.4563 24.5732H68.9592L68.7019 31.5206C68.5733 33.579 68.0587 35.1229 67.0294 36.2808C66.0002 37.4387 64.4563 37.9533 62.5265 37.9533C60.5967 37.9533 58.9241 37.31 57.8949 36.1521C56.8657 34.9942 56.3511 33.4504 56.2224 31.3919L55.7078 13.5089C55.5791 11.1931 56.0937 9.39191 57.2516 8.10536Z" fill="#553091"/>
<path d="M72.3047 12.4796C72.3047 10.4212 72.8193 9.00596 73.9772 7.84807C75.1351 6.94748 76.679 6.43286 78.6088 6.43286H85.1702V15.3101H80.6673V10.5498H78.9947C77.5795 10.5498 76.9363 11.3217 76.9363 12.737V17.6258H85.2988V22.1288H76.9363V33.4504H80.6673V27.4036H85.1702V37.696H72.4333V12.4796H72.3047Z" fill="#553091"/>
<path d="M88.9004 6.43286H102.409V9.39193C102.409 13.8948 101.509 17.1112 99.8361 19.2984C101.38 20.7136 102.281 22.772 102.281 25.3451V26.2457L101.637 37.696H89.029V6.43286H88.9004ZM96.6197 15.9533C97.5203 14.7954 97.9062 13.1229 97.9062 11.0644V10.5498H93.4033V17.6258C94.6899 17.7545 95.7191 17.1112 96.6197 15.9533ZM97.263 33.4504L97.6489 26.2457C97.7776 23.9299 97.263 22.3861 95.9764 21.6141C95.2045 21.8715 94.3039 21.8715 93.2747 21.8715V33.4504H97.263Z" fill="#553091"/>
<path d="M122.351 6.43286H135.859V11.7077C135.859 20.0703 132.9 24.3159 126.854 24.3159V37.696H122.351V6.43286ZM130.07 18.2691C130.97 17.1112 131.356 15.5674 131.356 13.3802V10.5498H126.854V19.9416C128.14 20.0703 129.169 19.427 130.07 18.2691Z" fill="#553091"/>
<path d="M139.205 6.43286H143.708V17.7545H148.082V6.43286H152.585V37.696H148.082V21.8715H143.708V37.696H139.205V6.43286Z" fill="#553091"/>
<path d="M157.989 8.10536C159.147 6.81881 160.948 6.17554 163.264 6.17554C165.58 6.17554 167.252 6.81881 168.41 8.10536C169.568 9.39191 170.083 11.1931 170.083 13.3802L169.568 31.2633C169.439 33.3217 168.925 34.8656 167.895 36.0235C166.866 37.1814 165.322 37.696 163.264 37.696C161.205 37.696 159.661 37.1814 158.632 36.0235C157.603 34.8656 157.088 33.3217 156.96 31.2633L156.445 13.3802C156.316 11.1931 156.831 9.39191 157.989 8.10536ZM161.334 30.7486C161.334 31.7779 161.591 32.5498 161.849 32.9358C162.106 33.4504 162.621 33.579 163.264 33.579C163.907 33.579 164.422 33.3217 164.679 32.9358C164.936 32.4212 165.065 31.7779 165.194 30.7486L165.58 14.0235C165.58 12.7369 165.451 11.8364 165.065 11.1931C164.679 10.5498 164.164 10.2925 163.264 10.2925C162.363 10.2925 161.72 10.5498 161.463 11.1931C161.077 11.965 160.819 12.8656 160.819 14.1521L161.334 30.7486Z" fill="#553091"/>
<path d="M282.526 12.4796C282.526 10.4212 283.041 9.00595 284.199 7.84806C285.357 6.81882 286.901 6.3042 288.83 6.3042H295.392V15.1814H290.76V10.5498H289.088C287.673 10.5498 287.029 11.3217 287.029 12.7369V17.6258H295.392V22.1288H287.029V33.4504H290.76V27.4036H295.263V37.696H282.526V12.4796Z" fill="#8CD3E4"/>
<path d="M197.228 8.10536C198.386 6.81881 200.059 6.17554 202.374 6.17554C204.562 6.17554 206.234 6.81881 207.392 8.10536C208.55 9.39191 209.064 11.1931 209.064 13.3802V15.1814H204.562V14.1521C204.562 12.8656 204.433 11.965 204.047 11.3217C203.661 10.6785 203.146 10.4212 202.374 10.4212C201.474 10.4212 200.959 10.6785 200.573 11.3217C200.187 11.965 200.059 12.8656 200.059 14.1521L200.573 30.8773C200.573 31.9065 200.831 32.5498 201.088 33.0644C201.345 33.579 201.86 33.7077 202.374 33.7077C203.018 33.7077 203.404 33.4504 203.661 33.0644C203.918 32.5498 204.047 31.9065 204.176 30.8773L204.433 24.5732H208.936L208.678 31.5206C208.55 33.579 208.035 35.1229 207.006 36.2808C205.977 37.4387 204.433 37.9533 202.503 37.9533C200.445 37.9533 198.901 37.4387 197.871 36.2808C196.842 35.1229 196.328 33.579 196.199 31.5206L195.556 13.5089C195.556 11.1931 196.07 9.39191 197.228 8.10536Z" fill="#8CD3E4"/>
<path d="M212.538 6.43286H217.041V18.7837L221.544 14.9241V6.43286H225.918V37.696H221.544V20.4563L217.041 24.1872V37.696H212.538V6.43286Z" fill="#8CD3E4"/>
<path d="M229.649 6.43286H243.158V37.696H238.655V21.8715C237.626 21.8715 236.725 21.7428 235.953 21.6141C234.796 22.3861 234.152 23.9299 234.281 26.2457L235.053 37.696H230.55L229.907 26.2457V25.3451C229.907 22.772 230.679 20.7136 232.351 19.2984C230.679 17.2399 229.778 13.8948 229.778 9.39193V6.43286H229.649ZM235.439 15.9533C236.339 17.1112 237.369 17.6258 238.527 17.6258V10.5498H234.152V11.0644C234.152 13.2516 234.538 14.7954 235.439 15.9533Z" fill="#8CD3E4"/>
<path d="M247.275 6.43286H251.778V17.7545H256.281V6.43286H260.784V37.696H256.281V21.8715H251.778V37.696H247.275V6.43286Z" fill="#8CD3E4"/>
<path d="M264.9 6.43286H269.403V18.7837L273.906 14.9241V6.43286H278.409V37.696H273.906V20.4563L269.403 24.1872V37.696H264.9V6.43286Z" fill="#8CD3E4"/>
</svg>
