<svg width="19" height="19" viewBox="0 0 19 19" fill="none" xmlns="http://www.w3.org/2000/svg">
<path d="M18.9435 5.58026C18.8966 4.5704 18.7353 3.87807 18.501 3.27424C18.2564 2.64958 17.9336 2.11862 17.4079 1.59287C16.8821 1.06712 16.3512 0.739176 15.7265 0.499724C15.1227 0.265479 14.4304 0.104109 13.4205 0.0572601C12.4054 0.0104109 12.0827 0 9.50599 0C6.92408 0 6.60135 0.0104109 5.59149 0.0572601C4.58163 0.104109 3.8893 0.265479 3.28547 0.499724C2.66081 0.744381 2.12985 1.06712 1.6041 1.59287C1.07835 2.11862 0.750406 2.64958 0.510955 3.27424C0.276709 3.87807 0.11534 4.5704 0.0684905 5.58026C0.0216414 6.59532 0.0112305 6.91806 0.0112305 9.49476C0.0112305 12.0767 0.0216414 12.3994 0.0684905 13.4093C0.11534 14.4191 0.276709 15.1115 0.510955 15.7153C0.755612 16.3399 1.07835 16.8709 1.6041 17.3967C2.12985 17.9224 2.66081 18.2504 3.28547 18.4898C3.8893 18.724 4.58163 18.8854 5.59149 18.9323C6.60655 18.9791 6.92929 18.9895 9.50599 18.9895C12.0879 18.9895 12.4106 18.9791 13.4205 18.9323C14.4304 18.8854 15.1227 18.724 15.7265 18.4898C16.3512 18.2451 16.8821 17.9224 17.4079 17.3967C17.9336 16.8709 18.2616 16.3399 18.501 15.7153C18.7353 15.1115 18.8966 14.4191 18.9435 13.4093C18.9903 12.3942 19.0008 12.0715 19.0008 9.49476C19.0008 6.91806 18.9903 6.59012 18.9435 5.58026ZM17.2361 13.3312C17.1945 14.2578 17.0383 14.7627 16.9082 15.0958C16.7364 15.5383 16.5282 15.8558 16.195 16.189C15.8619 16.5221 15.5443 16.7252 15.1019 16.9021C14.7687 17.0323 14.2638 17.1884 13.3372 17.2301C12.3378 17.2769 12.0358 17.2873 9.50079 17.2873C6.96573 17.2873 6.66381 17.2769 5.66436 17.2301C4.73779 17.1884 4.23286 17.0323 3.89971 16.9021C3.45725 16.7304 3.13971 16.5221 2.80656 16.189C2.47341 15.8558 2.2704 15.5383 2.09342 15.0958C1.96328 14.7627 1.80711 14.2578 1.76547 13.3312C1.71862 12.3317 1.70821 12.0298 1.70821 9.49476C1.70821 6.9597 1.71862 6.65779 1.76547 5.65834C1.80711 4.73176 1.96328 4.22684 2.09342 3.89369C2.2652 3.45122 2.47341 3.13369 2.80656 2.80054C3.13971 2.46739 3.45725 2.26438 3.89971 2.08739C4.23286 1.95725 4.73779 1.80109 5.66436 1.75945C6.66381 1.7126 6.96573 1.70219 9.50079 1.70219C12.0358 1.70219 12.3378 1.7126 13.3372 1.75945C14.2638 1.80109 14.7687 1.95725 15.1019 2.08739C15.5443 2.25917 15.8619 2.46739 16.195 2.80054C16.5282 3.13369 16.7312 3.45122 16.9082 3.89369C17.0383 4.22684 17.1945 4.73176 17.2361 5.65834C17.283 6.65779 17.2934 6.9597 17.2934 9.49476C17.2934 12.0298 17.2777 12.3317 17.2361 13.3312Z" fill="#8CD3E4"/>
<path d="M9.50008 4.61719C6.80365 4.61719 4.62256 6.80348 4.62256 9.49471C4.62256 12.1911 6.80885 14.3722 9.50008 14.3722C12.1913 14.3722 14.3776 12.1859 14.3776 9.49471C14.3776 6.79828 12.1965 4.61719 9.50008 4.61719ZM9.50008 12.6596C7.75104 12.6596 6.33516 11.2437 6.33516 9.49471C6.33516 7.74567 7.75104 6.32978 9.50008 6.32978C11.2491 6.32978 12.665 7.74567 12.665 9.49471C12.665 11.2437 11.2491 12.6596 9.50008 12.6596Z" fill="#8CD3E4"/>
<path d="M14.5697 5.56466C15.1993 5.56466 15.7097 5.05427 15.7097 4.42466C15.7097 3.79506 15.1993 3.28467 14.5697 3.28467C13.9401 3.28467 13.4297 3.79506 13.4297 4.42466C13.4297 5.05427 13.9401 5.56466 14.5697 5.56466Z" fill="#8CD3E4"/>
<mask id="mask0" mask-type="alpha" maskUnits="userSpaceOnUse" x="0" y="0" width="19" height="19">
<path d="M0 9.49476C0 12.0767 0.0104109 12.3994 0.0572601 13.4093C0.104109 14.4191 0.265479 15.1115 0.499724 15.7153C0.744381 16.3399 1.06712 16.8709 1.59287 17.3967C2.11862 17.9224 2.64958 18.2504 3.27424 18.4898C3.87807 18.724 4.5704 18.8854 5.58026 18.9323C6.59532 18.9791 6.91806 18.9895 9.49476 18.9895C12.0767 18.9895 12.3994 18.9791 13.4093 18.9323C14.4191 18.8854 15.1115 18.724 15.7153 18.4898C16.3399 18.2451 16.8709 17.9224 17.3967 17.3967C17.9224 16.8709 18.2504 16.3399 18.4898 15.7153C18.724 15.1115 18.8854 14.4191 18.9323 13.4093C18.9791 12.3942 18.9895 12.0715 18.9895 9.49476C18.9895 6.91285 18.9791 6.59012 18.9323 5.58026C18.8854 4.5704 18.724 3.87807 18.4898 3.27424C18.2451 2.64958 17.9224 2.11862 17.3967 1.59287C16.8709 1.06712 16.3399 0.739176 15.7153 0.499724C15.1115 0.265479 14.4191 0.104109 13.4093 0.0572601C12.3942 0.0104109 12.0715 0 9.49476 0C6.91285 0 6.59012 0.0104109 5.58026 0.0572601C4.5704 0.104109 3.87807 0.265479 3.27424 0.499724C2.64958 0.744381 2.11862 1.06712 1.59287 1.59287C1.06712 2.11862 0.739176 2.64958 0.499724 3.27424C0.265479 3.87807 0.104109 4.5704 0.0572601 5.58026C0.0104109 6.59012 0 6.91285 0 9.49476ZM1.7126 9.49476C1.7126 6.9597 1.72301 6.65779 1.76986 5.65834C1.8115 4.73176 1.96766 4.22684 2.0978 3.89369C2.26958 3.45122 2.4778 3.13369 2.81095 2.80054C3.1441 2.46739 3.46163 2.26438 3.9041 2.08739C4.23725 1.95725 4.74218 1.80109 5.66875 1.75945C6.6682 1.7126 6.97011 1.70219 9.50517 1.70219C12.0402 1.70219 12.3421 1.7126 13.3416 1.75945C14.2682 1.80109 14.7731 1.95725 15.1063 2.08739C15.5487 2.25917 15.8662 2.46739 16.1994 2.80054C16.5325 3.13369 16.7356 3.45122 16.9125 3.89369C17.0427 4.22684 17.1988 4.73176 17.2405 5.65834C17.2873 6.65779 17.2978 6.9597 17.2978 9.49476C17.2978 12.0298 17.2873 12.3317 17.2405 13.3312C17.1988 14.2578 17.0427 14.7627 16.9125 15.0958C16.7408 15.5383 16.5325 15.8558 16.1994 16.189C15.8662 16.5221 15.5487 16.7252 15.1063 16.9021C14.7731 17.0323 14.2682 17.1884 13.3416 17.2301C12.3421 17.2769 12.0402 17.2873 9.50517 17.2873C6.97011 17.2873 6.6682 17.2769 5.66875 17.2301C4.74218 17.1884 4.23725 17.0323 3.9041 16.9021C3.46163 16.7304 3.1441 16.5221 2.81095 16.189C2.4778 15.8558 2.27479 15.5383 2.0978 15.0958C1.96766 14.7627 1.8115 14.2578 1.76986 13.3312C1.72301 12.3317 1.7126 12.0298 1.7126 9.49476Z" fill="#8CD3E4"/>
</mask>
<g mask="url(#mask0)">
<path d="M0 9.49476C0 12.0767 0.0104109 12.3994 0.0572601 13.4093C0.104109 14.4191 0.265479 15.1115 0.499724 15.7153C0.744381 16.3399 1.06712 16.8709 1.59287 17.3967C2.11862 17.9224 2.64958 18.2504 3.27424 18.4898C3.87807 18.724 4.5704 18.8854 5.58026 18.9323C6.59532 18.9791 6.91806 18.9895 9.49476 18.9895C12.0767 18.9895 12.3994 18.9791 13.4093 18.9323C14.4191 18.8854 15.1115 18.724 15.7153 18.4898C16.3399 18.2451 16.8709 17.9224 17.3967 17.3967C17.9224 16.8709 18.2504 16.3399 18.4898 15.7153C18.724 15.1115 18.8854 14.4191 18.9323 13.4093C18.9791 12.3942 18.9895 12.0715 18.9895 9.49476C18.9895 6.91285 18.9791 6.59012 18.9323 5.58026C18.8854 4.5704 18.724 3.87807 18.4898 3.27424C18.2451 2.64958 17.9224 2.11862 17.3967 1.59287C16.8709 1.06712 16.3399 0.739176 15.7153 0.499724C15.1115 0.265479 14.4191 0.104109 13.4093 0.0572601C12.3942 0.0104109 12.0715 0 9.49476 0C6.91285 0 6.59012 0.0104109 5.58026 0.0572601C4.5704 0.104109 3.87807 0.265479 3.27424 0.499724C2.64958 0.744381 2.11862 1.06712 1.59287 1.59287C1.06712 2.11862 0.739176 2.64958 0.499724 3.27424C0.265479 3.87807 0.104109 4.5704 0.0572601 5.58026C0.0104109 6.59012 0 6.91285 0 9.49476ZM1.7126 9.49476C1.7126 6.9597 1.72301 6.65779 1.76986 5.65834C1.8115 4.73176 1.96766 4.22684 2.0978 3.89369C2.26958 3.45122 2.4778 3.13369 2.81095 2.80054C3.1441 2.46739 3.46163 2.26438 3.9041 2.08739C4.23725 1.95725 4.74218 1.80109 5.66875 1.75945C6.6682 1.7126 6.97011 1.70219 9.50517 1.70219C12.0402 1.70219 12.3421 1.7126 13.3416 1.75945C14.2682 1.80109 14.7731 1.95725 15.1063 2.08739C15.5487 2.25917 15.8662 2.46739 16.1994 2.80054C16.5325 3.13369 16.7356 3.45122 16.9125 3.89369C17.0427 4.22684 17.1988 4.73176 17.2405 5.65834C17.2873 6.65779 17.2978 6.9597 17.2978 9.49476C17.2978 12.0298 17.2873 12.3317 17.2405 13.3312C17.1988 14.2578 17.0427 14.7627 16.9125 15.0958C16.7408 15.5383 16.5325 15.8558 16.1994 16.189C15.8662 16.5221 15.5487 16.7252 15.1063 16.9021C14.7731 17.0323 14.2682 17.1884 13.3416 17.2301C12.3421 17.2769 12.0402 17.2873 9.50517 17.2873C6.97011 17.2873 6.6682 17.2769 5.66875 17.2301C4.74218 17.1884 4.23725 17.0323 3.9041 16.9021C3.46163 16.7304 3.1441 16.5221 2.81095 16.189C2.4778 15.8558 2.27479 15.5383 2.0978 15.0958C1.96766 14.7627 1.8115 14.2578 1.76986 13.3312C1.72301 12.3317 1.7126 12.0298 1.7126 9.49476Z" fill="#8CD3E4"/>
</g>
</svg>
