<svg width="45" height="44" viewBox="0 0 45 44" fill="none" xmlns="http://www.w3.org/2000/svg">
<path d="M44.0899 21.9997C44.0899 34.1312 34.2217 43.9994 22.0902 43.9994C9.86817 44.0899 0 34.2217 0 21.9997C0 9.86817 9.86817 0 21.9997 0C34.2217 0 44.0899 9.86817 44.0899 21.9997Z" fill="#553091"/>
<path d="M30.6909 31.8678C26.3453 31.8678 22.1807 29.7855 19.6458 26.2547L18.6499 24.8967C18.1067 24.1724 17.0203 24.1724 16.4771 24.8967L10.864 32.5921C10.6829 32.8637 10.6829 33.2258 10.9545 33.4069C13.8516 36.2134 17.654 37.9336 21.9996 37.9336C26.6168 37.9336 30.6909 35.9418 33.5879 32.8637C33.9501 32.5015 33.6785 31.8678 33.1353 31.8678H30.6909Z" fill="white"/>
<path class="ss-03" opacity="0.7" d="M21.9092 6.06567L13.5801 18.1067L7.69541 26.4358C7.42381 26.7979 6.8806 26.7074 6.69954 26.2547C6.51847 25.7115 6.42794 25.1683 6.3374 24.5346L18.9216 6.33728C19.9175 6.15621 20.9133 6.06567 21.9092 6.06567Z" fill="#8CD3E4"/>
<path class="ss-02" d="M33.3165 10.7734L25.1685 22.5428C26.0738 23.086 27.3413 22.9955 28.1561 22.1807L34.765 12.5841C34.4029 11.9504 33.8597 11.3166 33.3165 10.7734Z" fill="#8CD3E4"/>
<path class="ss-01" opacity="0.3" d="M37.5717 25.4398C37.9338 24.0818 38.0244 22.5427 37.9338 20.9131L35.3083 24.7155L36.3948 26.2546C36.6664 26.6167 37.2096 26.5262 37.3906 26.0735C37.4812 25.8924 37.4812 25.7114 37.5717 25.5303V25.4398Z" fill="#8CD3E4"/>
<path class="ss-08" opacity="0.3" d="M27.1603 6.88032C26.436 6.60872 25.6212 6.42765 24.8064 6.24658L19.1028 14.4852L20.5513 16.3864L27.1603 6.88032Z" fill="#8CD3E4"/>
<path class="ss-04" opacity="0.7" d="M37.3 17.3824C37.0284 16.5676 36.6662 15.6622 36.3041 14.8474L32.4111 20.4605L33.7691 22.4522L37.3 17.3824Z" fill="#8CD3E4"/>
<path class="ss-06" d="M6.15649 20.3698L14.9383 7.78564C10.14 10.1395 6.79023 14.8473 6.15649 20.3698Z" fill="#8CD3E4"/>
<path class="ss-05" opacity="0.7" d="M31.4155 9.14398C30.7818 8.69131 30.1481 8.32918 29.5143 7.96704L22.0906 18.65L23.5391 20.5512L31.4155 9.14398Z" fill="#8CD3E4"/>
</svg>
