<svg width="240" height="32" viewBox="0 0 240 32" fill="none" xmlns="http://www.w3.org/2000/svg">
<path d="M117.867 6.47964C117.867 4.42116 118.382 3.00595 119.54 1.84806C120.698 0.818819 122.241 0.304199 124.171 0.304199H130.733V9.18139H126.23V4.54981H124.429C123.013 4.54981 122.37 5.32174 122.37 6.73695V11.6258H130.733V16.1288H122.37V27.4504H126.101V21.4036H130.604V31.696H117.867V6.47964Z" fill="#553091"/>
<path d="M50.0664 6.47964C50.0664 4.42116 50.581 3.00596 51.7389 1.84807C53.0255 0.947481 54.4407 0.432861 56.3705 0.432861H62.9319V9.31005H58.429V4.54982H56.7565C55.3413 4.54982 54.698 5.32175 54.698 6.73695V11.6258H63.0606V16.1288H54.698V27.4504H58.429V21.4036H62.9319V31.696H50.1951V6.47964H50.0664Z" fill="#553091"/>
<path d="M1.56316 2.10536C2.72105 0.818812 4.39357 0.175537 6.70936 0.175537C8.89649 0.175537 10.569 0.818812 11.7269 2.10536C12.8848 3.39191 13.3994 5.19308 13.3994 7.38021V9.18139H8.89649V8.15214C8.89649 6.8656 8.76784 5.96501 8.38187 5.32174C7.99591 4.67846 7.48129 4.42115 6.70936 4.42115C5.80877 4.42115 5.29415 4.67846 4.90819 5.32174C4.52222 5.96501 4.39357 6.8656 4.39357 8.15214L4.90819 24.8773C4.90819 25.9065 5.1655 26.5498 5.42281 27.0644C5.68012 27.579 6.19474 27.7077 6.70936 27.7077C7.35263 27.7077 7.7386 27.4504 7.99591 27.0644C8.25322 26.5498 8.38187 25.9065 8.51053 24.8773L8.76783 18.5732H13.2708L13.0135 25.5206C12.8848 27.579 12.3702 29.1229 11.3409 30.2808C10.3117 31.4387 8.76783 31.9533 6.83801 31.9533C4.90819 31.9533 3.23567 31.31 2.20643 30.1521C1.17719 28.9942 0.662575 27.4504 0.53392 25.3919L0.0192982 7.50887C-0.109357 5.19308 0.405264 3.39191 1.56316 2.10536Z" fill="#553091"/>
<path d="M16.6162 6.47964C16.6162 4.42116 17.1308 3.00596 18.2887 1.84807C19.4466 0.947481 20.9905 0.432861 22.9203 0.432861H29.4817V9.31005H24.9788V4.54982H23.3063C21.8911 4.54982 21.2478 5.32175 21.2478 6.73695V11.6258H29.6104V16.1288H21.2478V27.4504H24.9788V21.4036H29.4817V31.696H16.7449V6.47964H16.6162Z" fill="#553091"/>
<path d="M33.2119 0.432861H46.7207V3.39193C46.7207 7.89485 45.8201 11.1112 44.1476 13.2984C45.6914 14.7136 46.592 16.772 46.592 19.3451V20.2457L45.9488 31.696H33.3406V0.432861H33.2119ZM40.9312 9.95333C41.8318 8.79543 42.2178 7.12292 42.2178 5.06444V4.54982H37.7148V11.6258C39.0014 11.7545 40.0306 11.1112 40.9312 9.95333ZM41.5745 27.4504L41.9605 20.2457C42.0891 17.9299 41.5745 16.3861 40.2879 15.6141C39.516 15.8715 38.6154 15.8715 37.5862 15.8715V27.4504H41.5745Z" fill="#553091"/>
<path d="M66.6621 0.432861H80.1709V5.70772C80.1709 14.0703 77.2118 18.3159 71.165 18.3159V31.696H66.6621V0.432861ZM74.3814 12.2691C75.282 11.1112 75.668 9.56736 75.668 7.38023V4.54982H71.165V13.9416C72.4516 14.0703 73.4808 13.427 74.3814 12.2691Z" fill="#553091"/>
<path d="M83.5166 0.432861H88.0195V11.7545H92.3938V0.432861H96.8967V31.696H92.3938V15.8715H88.0195V31.696H83.5166V0.432861Z" fill="#553091"/>
<path d="M102.3 2.10536C103.458 0.818812 105.26 0.175537 107.575 0.175537C109.891 0.175537 111.564 0.818812 112.722 2.10536C113.879 3.39191 114.394 5.19308 114.394 7.38021L113.879 25.2633C113.751 27.3217 113.236 28.8656 112.207 30.0235C111.178 31.1814 109.634 31.696 107.575 31.696C105.517 31.696 103.973 31.1814 102.944 30.0235C101.915 28.8656 101.4 27.3217 101.271 25.2633L100.757 7.38021C100.628 5.19308 101.143 3.39191 102.3 2.10536ZM105.645 24.7486C105.645 25.7779 105.903 26.5498 106.16 26.9358C106.417 27.4504 106.932 27.579 107.575 27.579C108.219 27.579 108.733 27.3217 108.991 26.9358C109.248 26.4212 109.376 25.7779 109.505 24.7486L109.891 8.02349C109.891 6.73694 109.762 5.83636 109.376 5.19308C108.991 4.54981 108.476 4.2925 107.575 4.2925C106.675 4.2925 106.031 4.54981 105.774 5.19308C105.388 5.96501 105.131 6.8656 105.131 8.15214L105.645 24.7486Z" fill="#553091"/>
<path d="M226.838 6.47964C226.838 4.42116 227.352 3.00595 228.51 1.84806C229.668 0.818819 231.212 0.304199 233.142 0.304199H239.703V9.18139H235.072V4.54981H233.399C231.984 4.54981 231.341 5.32174 231.341 6.73695V11.6258H239.703V16.1288H231.341V27.4504H235.072V21.4036H239.575V31.696H226.838V6.47964Z" fill="#8CD3E4"/>
<path d="M141.54 2.10536C142.698 0.818812 144.37 0.175537 146.686 0.175537C148.873 0.175537 150.546 0.818812 151.703 2.10536C152.861 3.39191 153.376 5.19308 153.376 7.38021V9.18139H148.873V8.15214C148.873 6.8656 148.744 5.96501 148.358 5.32174C147.972 4.67846 147.458 4.42115 146.686 4.42115C145.785 4.42115 145.271 4.67846 144.885 5.32174C144.499 5.96501 144.37 6.8656 144.37 8.15214L144.885 24.8773C144.885 25.9065 145.142 26.5498 145.399 27.0644C145.657 27.579 146.171 27.7077 146.686 27.7077C147.329 27.7077 147.715 27.4504 147.972 27.0644C148.23 26.5498 148.358 25.9065 148.487 24.8773L148.744 18.5732H153.247L152.99 25.5206C152.861 27.579 152.347 29.1229 151.317 30.2808C150.288 31.4387 148.744 31.9533 146.815 31.9533C144.756 31.9533 143.212 31.4387 142.183 30.2808C141.154 29.1229 140.639 27.579 140.51 25.5206L139.867 7.50887C139.867 5.19308 140.382 3.39191 141.54 2.10536Z" fill="#8CD3E4"/>
<path d="M156.85 0.432861H161.353V12.7837L165.855 8.92409V0.432861H170.23V31.696H165.855V14.4563L161.353 18.1872V31.696H156.85V0.432861Z" fill="#8CD3E4"/>
<path d="M173.961 0.432861H187.47V31.696H182.967V15.8715C181.938 15.8715 181.037 15.7428 180.265 15.6141C179.107 16.3861 178.464 17.9299 178.593 20.2457L179.364 31.696H174.862L174.218 20.2457V19.3451C174.218 16.772 174.99 14.7136 176.663 13.2984C174.99 11.2399 174.09 7.89485 174.09 3.39193V0.432861H173.961ZM179.75 9.95333C180.651 11.1112 181.68 11.6258 182.838 11.6258V4.54982H178.464V5.06444C178.464 7.25157 178.85 8.79543 179.75 9.95333Z" fill="#8CD3E4"/>
<path d="M191.587 0.432861H196.09V11.7545H200.593V0.432861H205.096V31.696H200.593V15.8715H196.09V31.696H191.587V0.432861Z" fill="#8CD3E4"/>
<path d="M209.212 0.432861H213.715V12.7837L218.218 8.92409V0.432861H222.721V31.696H218.218V14.4563L213.715 18.1872V31.696H209.212V0.432861Z" fill="#8CD3E4"/>
</svg>
