<svg width="204" height="90" viewBox="0 0 204 90" fill="none" xmlns="http://www.w3.org/2000/svg">
<path d="M183.051 10.5259C183.051 7.368 183.84 4.99959 185.682 3.42065C187.524 1.84172 189.893 1.05225 192.788 1.05225H202.788V14.7364H195.945V7.63116H193.314C191.209 7.63116 190.156 8.68378 190.156 11.0522V18.6837H203.051V25.7889H190.156V43.1573H195.945V33.6836H202.788V49.473H183.051V10.5259Z" fill="#553091"/>
<path d="M78.3145 10.5259C78.3145 7.368 79.1039 4.99959 80.946 3.42065C82.7881 1.84172 85.1565 1.05225 88.0513 1.05225H98.0512V14.7364H91.2091V7.63116H88.5776C86.4723 7.63116 85.4197 8.68378 85.4197 11.0522V18.6837H98.3144V25.7889H85.4197V43.1573H91.2091V33.6836H98.0512V49.473H78.3145V10.5259Z" fill="#553091"/>
<path d="M3.31516 3.94694C5.15725 1.84169 7.78882 0.789062 11.2098 0.789062C14.6309 0.789062 17.2624 1.84169 19.1045 3.94694C20.9466 6.05219 21.7361 8.68375 21.7361 12.1048V14.7364H14.894V13.1574C14.894 11.3153 14.6309 9.73638 14.1046 8.94691C13.5783 7.89429 12.7888 7.36797 11.473 7.36797C10.1572 7.36797 9.36775 7.89429 8.84144 8.94691C8.05197 9.73638 7.78882 11.3153 7.78882 13.1574L8.57829 38.9467C8.57829 40.5257 8.84144 41.5783 9.36775 42.3678C9.89407 43.1572 10.4204 43.4204 11.473 43.4204C12.5256 43.4204 13.0519 43.1572 13.5783 42.3678C14.1046 41.5783 14.3677 40.5257 14.3677 38.9467L14.6309 29.21H21.4729L20.9466 39.7362C20.6835 42.8941 19.894 45.2625 18.3151 47.1046C16.7361 48.9467 14.3677 49.7362 11.2098 49.7362C8.05197 49.7362 5.68356 48.9467 4.10462 47.1046C2.52569 45.2625 1.73622 42.8941 1.47306 39.7362L0.683594 12.1048C0.683594 8.68375 1.47306 5.78903 3.31516 3.94694Z" fill="#553091"/>
<path d="M26.4727 10.5259C26.4727 7.368 27.2621 4.99959 29.1042 3.42065C30.9463 1.84172 33.3147 1.05225 36.2094 1.05225H46.2094V14.7364H39.3673V7.63116H36.7358C34.6305 7.63116 33.5779 8.68378 33.5779 11.0522V18.6837H46.4725V25.7889H33.5779V43.1573H39.3673V33.6836H46.2094V49.473H26.4727V10.5259Z" fill="#553091"/>
<path d="M52.2627 1.31567H73.052V5.78933C73.052 12.6314 71.7363 17.8945 69.1047 21.0524C71.4731 23.1577 72.7889 26.3155 72.7889 30.526V32.105L71.7363 49.7365H52.2627V1.31567ZM64.1047 16.0524C65.4205 14.2103 65.9468 11.5788 65.9468 8.4209V7.63143H59.1048V18.684C60.9469 18.684 62.789 17.8945 64.1047 16.0524ZM65.1574 42.8944L65.9468 31.5787C66.21 28.1576 65.4205 25.7892 63.3153 24.4734C61.9995 24.7366 60.6837 24.9997 59.1048 24.9997V42.8944H65.1574Z" fill="#553091"/>
<path d="M103.841 1.31567H124.63V9.47352C124.63 22.3682 119.893 28.9471 110.683 28.9471V49.7365H103.841V1.31567ZM115.683 19.4735C116.999 17.6314 117.788 15.263 117.788 12.1051V7.63143H110.946V22.3682C112.788 22.3682 114.367 21.3156 115.683 19.4735Z" fill="#553091"/>
<path d="M129.894 1.31567H136.736V18.684H143.578V1.31567H150.683V49.4733H143.578V24.9997H136.736V49.4733H129.894V1.31567Z" fill="#553091"/>
<path d="M159.104 3.94697C160.946 1.84172 163.577 1.05225 167.261 1.05225C170.682 1.05225 173.577 2.10487 175.156 4.21012C176.998 6.31537 177.788 8.94694 177.788 12.368L176.998 39.9994C176.735 43.1573 175.945 45.5257 174.367 47.3678C172.788 49.2099 170.419 49.9993 167.261 49.9993C164.103 49.9993 161.735 49.2099 160.156 47.3678C158.577 45.5257 157.788 43.1573 157.525 39.9994L156.735 12.368C156.209 8.68378 157.261 5.78906 159.104 3.94697ZM164.103 38.9468C164.103 40.5257 164.367 41.5783 164.893 42.3678C165.419 43.1573 165.946 43.4204 166.998 43.4204C168.051 43.4204 168.84 43.1573 169.103 42.3678C169.63 41.5783 169.893 40.5257 169.893 38.9468L170.682 13.1574C170.682 11.3153 170.419 9.73641 169.893 8.68378C169.367 7.63116 168.314 7.368 166.998 7.368C165.682 7.368 164.63 7.89431 164.103 8.94694C163.577 9.73641 163.314 11.3153 163.314 13.1574L164.103 38.9468Z" fill="#553091"/>
<path d="M85.6836 65.7899C85.6836 63.9478 86.2099 62.3689 87.2625 61.3162C88.3152 60.2636 89.8941 59.7373 91.7362 59.7373H98.0519V68.4215H93.8414V63.9478H92.2625C90.9467 63.9478 90.1572 64.7373 90.1572 66.0531V70.7899H98.0519V75.2635H90.1572V86.0529H93.8414V80.2635H98.0519V90.0003H85.9467V65.7899H85.6836Z" fill="#8CD3E4"/>
<path d="M3.84183 61.5792C4.89445 60.2634 6.47339 59.7371 8.84179 59.7371C10.947 59.7371 12.526 60.2634 13.5786 61.5792C14.6312 62.8949 15.1576 64.4739 15.1576 66.5791V68.1581H10.947V67.1054C10.947 66.0528 10.6839 65.0002 10.4207 64.4739C10.1576 63.9476 9.63126 63.6844 8.84179 63.6844C8.05232 63.6844 7.52601 63.9476 7.26286 64.4739C6.9997 65.0002 6.73654 66.0528 6.73654 67.1054L7.26286 83.158C7.26286 84.2106 7.52602 84.7369 7.78917 85.2632C8.05233 85.7895 8.57864 86.0527 9.10496 86.0527C9.63127 86.0527 10.1576 85.7895 10.4207 85.2632C10.6839 84.7369 10.947 84.2106 10.947 83.158L11.2102 77.1054H15.4207L15.1576 83.6843C15.1576 85.5264 14.3681 87.1053 13.5786 88.1579C12.526 89.2106 11.2102 89.7369 9.10496 89.7369C7.26286 89.7369 5.68392 89.2106 4.63129 88.1579C3.57867 87.1053 3.05235 85.5264 3.05235 83.6843L2.52605 66.5791C2.26289 64.4739 2.7892 62.8949 3.84183 61.5792Z" fill="#8CD3E4"/>
<path d="M18.5791 59.7373H23.0528V71.5793L27.2633 68.1583V59.7373H31.4738V89.7371H27.2633V73.4214L23.0528 76.8425V89.7371H18.5791V59.7373Z" fill="#8CD3E4"/>
<path d="M35.1572 59.7373H48.0519V89.7371H43.8414V74.7372C42.7888 74.7372 41.9993 74.7372 41.2098 74.4741C40.1572 75.2635 39.6309 76.8425 39.6309 78.9477L40.4204 90.0003H36.2099L35.1572 78.9477V78.1583C35.1572 75.5267 35.9467 73.6846 37.5256 72.3688C35.9467 70.2636 35.1572 67.1057 35.1572 62.8952V59.7373ZM40.6835 68.9478C41.473 70.0004 42.5256 70.5267 43.5782 70.5267V63.6847H39.3677V64.211C39.3677 66.3162 39.894 67.8952 40.6835 68.9478Z" fill="#8CD3E4"/>
<path d="M51.999 59.7373H56.4727V70.7899H60.6832V59.7373H64.8937V89.7371H60.6832V74.7372H56.4727V89.7371H51.999V59.7373Z" fill="#8CD3E4"/>
<path d="M69.1045 59.7373H73.315V71.5793L77.5255 68.1583V59.7373H81.736V89.7371H77.5255V73.4214L73.315 76.8425V89.7371H69.1045V59.7373Z" fill="#8CD3E4"/>
</svg>
