<svg width="117" height="34" viewBox="0 0 117 34" fill="none" xmlns="http://www.w3.org/2000/svg">
<path d="M109.39 3.66495C109.39 2.51022 109.741 1.60652 110.394 1.00405C111.046 0.401577 111.95 0.100342 113.055 0.100342H116.82V5.22133H114.209V2.56043H113.205C112.402 2.56043 112 3.01228 112 3.81557V6.6773H116.82V9.288H112V15.8148H114.159V12.3004H116.77V18.2748H109.39V3.66495Z" fill="#553091"/>
<path d="M70.0791 3.66495C70.0791 2.51022 70.4305 1.60652 71.0832 1.00405C71.7359 0.401577 72.6396 0.100342 73.7441 0.100342H77.5096V5.22133H74.8989V2.56043H73.8947C73.0914 2.56043 72.6898 3.01228 72.6898 3.81557V6.6773H77.5096V9.288H72.6898V15.8148H74.8487V12.3004H77.4594V18.2748H70.0791V3.66495Z" fill="#553091"/>
<path d="M41.9127 1.15473C42.5654 0.401646 43.5695 0 44.9251 0C46.1802 0 47.1844 0.401646 47.837 1.15473C48.4897 1.90782 48.8411 2.96214 48.7909 4.26749L48.7407 5.27161H46.13V4.61893C46.13 3.91605 46.0296 3.36379 45.8288 3.01235C45.628 2.66091 45.3267 2.46008 44.8749 2.46008C44.3728 2.46008 44.0214 2.66091 43.8206 3.01235C43.6699 3.36379 43.5695 3.86585 43.5695 4.61893L43.8206 14.3087C43.8708 14.8609 43.9712 15.3128 44.1218 15.5638C44.2724 15.8148 44.5234 15.9654 44.9251 15.9654C45.2765 15.9654 45.5276 15.8148 45.6782 15.5638C45.8288 15.3128 45.9292 14.8609 45.9794 14.3087L46.13 10.6436H48.7407L48.5901 14.6601C48.5399 15.8148 48.1885 16.7687 47.586 17.4214C46.9835 18.0741 46.13 18.4255 44.9251 18.4255C43.7704 18.4255 42.8667 18.0741 42.2642 17.4214C41.6617 16.7687 41.3103 15.8148 41.3103 14.6601L40.9588 4.21729C40.9086 2.91194 41.2601 1.90782 41.9127 1.15473Z" fill="#553091"/>
<path d="M50.6484 3.66495C50.6484 2.51022 50.9999 1.60652 51.6526 1.00405C52.3052 0.401577 53.2089 0.100342 54.3135 0.100342H58.0789V5.22133H55.4682V2.56043H54.4641C53.6608 2.56043 53.2591 3.01228 53.2591 3.81557V6.6773H58.0789V9.288H53.2591V15.8148H55.418V12.3004H58.0287V18.2748H50.6484V3.66495Z" fill="#553091"/>
<path d="M60.2881 0.150635H68.07V1.85763C68.07 4.46833 67.5679 6.37615 66.5638 7.58109C67.4675 8.43459 67.9696 9.58932 67.9696 11.0955L67.9194 11.6478L67.5679 18.2749H60.2881V0.150635ZM64.7062 5.67327C65.2083 5.0206 65.4593 4.06669 65.4593 2.86175V2.56051H62.8486V6.67739C63.6017 6.67739 64.2041 6.37615 64.7062 5.67327ZM65.1078 15.8148L65.3589 11.5976C65.4091 10.2922 65.1078 9.3885 64.405 8.88644C63.9531 8.98686 63.4008 9.08727 62.8486 9.08727V15.8148H65.1078Z" fill="#553091"/>
<path d="M79.7178 0.150635H87.5499V3.21319C87.5499 8.08315 85.7927 10.493 82.3285 10.493V18.2749H79.7178V0.150635ZM84.1359 7.02883C84.6379 6.37615 84.889 5.42224 84.889 4.2173V2.56051H82.2783V8.03294C83.0314 8.03294 83.6338 7.73171 84.1359 7.02883Z" fill="#553091"/>
<path d="M89.458 0.150635H92.0687V6.67739H94.6292V0.150635H97.2399V18.2749H94.6292V9.13747H92.0687V18.2749H89.458V0.150635Z" fill="#553091"/>
<path d="M100.403 1.10453C101.106 0.351441 102.11 0 103.415 0C104.72 0 105.724 0.401646 106.427 1.15473C107.13 1.90782 107.431 2.96214 107.381 4.26749L107.08 14.6601C107.03 15.8148 106.678 16.7687 106.076 17.4214C105.473 18.0741 104.62 18.4255 103.415 18.4255C102.21 18.4255 101.306 18.0741 100.704 17.4214C100.101 16.7687 99.75 15.8148 99.75 14.6601L99.4487 4.26749C99.3985 2.91194 99.6998 1.85761 100.403 1.10453ZM102.31 14.3087C102.361 14.9111 102.461 15.3128 102.612 15.614C102.762 15.865 103.064 16.0157 103.415 16.0157C103.817 16.0157 104.068 15.865 104.218 15.614C104.369 15.363 104.469 14.9111 104.52 14.3087L104.771 4.61893C104.771 3.86585 104.67 3.36379 104.469 2.96214C104.268 2.6107 103.917 2.40988 103.415 2.40988C102.913 2.40988 102.561 2.6107 102.361 2.96214C102.16 3.31358 102.059 3.86585 102.059 4.56873L102.31 14.3087Z" fill="#553091"/>
<path d="M72.8916 24.3499C72.8916 23.647 73.0924 23.0948 73.4941 22.6931C73.8957 22.3417 74.448 22.1409 75.1509 22.1409H77.5105V25.3038H75.9039V23.647H75.3015C74.7994 23.647 74.5484 23.8981 74.5484 24.4503V26.2075H77.5607V27.8643H74.5484V31.931H75.9039V29.7219H77.5105V33.4372H72.9418V24.3499H72.8916Z" fill="#8CD3E4"/>
<path d="M42.165 22.7935C42.5666 22.2914 43.2193 22.0906 44.0226 22.0906C44.8259 22.0906 45.4283 22.3416 45.83 22.7935C46.2316 23.2453 46.4325 23.898 46.4325 24.7013V25.354H44.7757V24.9523C44.7757 24.5005 44.7255 24.149 44.5748 23.9482C44.5246 23.6972 44.3238 23.5968 44.0226 23.5968C43.7213 23.5968 43.5205 23.6972 43.3699 23.9482C43.2695 24.1992 43.1691 24.5005 43.1691 24.9523L43.3197 30.977C43.3197 31.3284 43.4201 31.5795 43.5205 31.7803C43.6209 31.9309 43.7716 32.0313 44.0226 32.0313C44.2234 32.0313 44.374 31.9309 44.4744 31.7803C44.5748 31.6297 44.6251 31.3284 44.6753 30.977L44.7757 28.7177H46.3823L46.2818 31.1778C46.2316 31.8807 46.0308 32.4832 45.6794 32.8848C45.3279 33.2865 44.7757 33.4873 44.0226 33.4873C43.3197 33.4873 42.7674 33.2865 42.3658 32.8848C41.9641 32.4832 41.7633 31.8807 41.7633 31.1778L41.5625 24.7013C41.5625 23.898 41.7633 23.2453 42.165 22.7935Z" fill="#8CD3E4"/>
<path d="M47.6885 22.1409H49.2951V26.6092L50.9016 25.2536V22.1409H52.5082V33.4372H50.9016V27.2117L49.2951 28.5672V33.4372H47.6885V22.1409Z" fill="#8CD3E4"/>
<path d="M53.8633 22.1409H58.7332V33.387H57.1267V27.7639C56.7752 27.7639 56.4238 27.7137 56.1727 27.6635C55.7209 27.9647 55.5703 28.517 55.5703 29.3203L55.8213 33.4372H54.2147L53.9637 29.3203V28.9689C53.9637 28.0149 54.2649 27.3121 54.8172 26.7598C54.2147 26.0067 53.9135 24.8018 53.9135 23.1952V22.1409H53.8633ZM55.9217 25.6051C56.223 26.0067 56.6246 26.2075 57.0765 26.2075V23.647H55.4699V23.8479C55.4699 24.601 55.6205 25.2034 55.9217 25.6051Z" fill="#8CD3E4"/>
<path d="M60.2393 22.1409H61.8458V26.2577H63.4524V22.1409H65.059V33.4372H63.4524V27.7639H61.8458V33.4372H60.2393V22.1409Z" fill="#8CD3E4"/>
<path d="M66.5654 22.1409H68.2222V26.6092L69.8288 25.2536V22.1409H71.4354V33.4372H69.8288V27.2117L68.2222 28.5672V33.4372H66.5654V22.1409Z" fill="#8CD3E4"/>
<path d="M33.9227 16.9976C33.9227 26.3214 26.3843 33.8598 17.0605 33.8598C7.73675 33.8598 0 26.5198 0 16.9976C0 7.67387 7.53837 0.135498 16.8621 0.135498C26.1859 0.135498 33.9227 7.67387 33.9227 16.9976Z" fill="#553091"/>
<path d="M14.2829 10.8478L18.8456 16.9975C19.6391 17.9894 21.2261 17.9894 21.8213 16.9975L22.8132 15.6089C23.2099 15.0137 24.2018 15.0137 24.5986 15.6089L27.971 20.5683C28.1694 20.7667 28.5661 20.7667 28.7645 20.37C29.558 17.5927 29.558 14.0219 27.3759 10.6494C25.3921 7.67375 22.218 5.49159 18.6472 4.89645C11.1088 3.90456 4.76074 9.65753 4.76074 16.9975C4.76074 18.1878 4.95912 19.1797 5.1575 20.37C5.35588 20.7667 5.75263 20.7667 5.95101 20.5683L12.6959 11.0462C13.0926 10.451 13.8861 10.2527 14.2829 10.8478Z" fill="#8CD3E4"/>
<path d="M23.6064 24.536C20.234 24.536 17.0599 22.9489 15.0761 20.1716L14.2826 19.1797C13.8859 18.5846 13.0923 18.5846 12.6956 19.1797L8.52964 25.1311C8.33126 25.3295 8.33126 25.5278 8.52964 25.7262C10.7118 27.9084 13.6875 29.297 17.0599 29.297C20.6307 29.297 23.8048 27.71 25.9869 25.3295C26.1853 24.9327 25.9869 24.536 25.5902 24.536H23.6064Z" fill="white"/>
</svg>
