<svg width="133" height="32" viewBox="0 0 133 32" fill="none" xmlns="http://www.w3.org/2000/svg">
<path d="M8.5 15.6002C8.5 14.0002 8.3 12.9002 7.9 12.2002C7.5 11.5002 6.8 11.2002 5.7 11.2002C5.3 11.2002 4.9 11.2002 4.4 11.3002C3.9 11.4002 3.6 11.4002 3.4 11.4002V23.5002H0V9.0002C0.7 8.8002 1.5 8.6002 2.6 8.5002C3.7 8.3002 4.8 8.2002 6 8.2002C7 8.2002 7.9 8.3002 8.5 8.6002C9.2 8.9002 9.7 9.2002 10.1 9.7002C10.3 9.5002 10.6 9.4002 10.9 9.2002C11.2 9.0002 11.6 8.9002 12 8.7002C12.4 8.6002 12.8 8.4002 13.3 8.3002C13.7 8.2002 14.2 8.2002 14.7 8.2002C15.9 8.2002 16.8 8.4002 17.6 8.7002C18.4 9.0002 18.9 9.5002 19.4 10.1002C19.8 10.7002 20.1 11.4002 20.3 12.3002C20.5 13.1002 20.5 14.1002 20.5 15.1002V23.5002H17V15.6002C17 14.0002 16.8 12.9002 16.4 12.2002C16 11.5002 15.3 11.2002 14.2 11.2002C13.6 11.2002 13.1 11.3002 12.6 11.5002C12.1 11.7002 11.7 11.9002 11.5 12.0002C11.7 12.5002 11.8 13.0002 11.8 13.5002C12 14.0002 12 14.6002 12 15.2002V23.5002H8.5V15.6002Z" fill="#553091"/>
<path d="M21.4004 16.1001C21.4004 14.8001 21.6004 13.6001 22.0004 12.6001C22.4004 11.6001 22.9004 10.8001 23.6004 10.1001C24.2004 9.4001 25.0004 8.9001 25.8004 8.6001C26.6004 8.3001 27.5004 8.1001 28.4004 8.1001C30.5004 8.1001 32.1004 8.7001 33.2004 10.0001C34.4004 11.3001 34.9004 13.2001 34.9004 15.7001C34.9004 15.9001 34.9004 16.1001 34.9004 16.3001C34.9004 16.5001 34.9004 16.8001 34.9004 16.9001H25.0004C25.1004 18.1001 25.5004 19.0001 26.3004 19.7001C27.1004 20.4001 28.1004 20.7001 29.6004 20.7001C30.4004 20.7001 31.2004 20.6001 31.9004 20.5001C32.6004 20.3001 33.1004 20.2001 33.5004 20.0001L34.0004 22.8001C33.8004 22.9001 33.5004 23.0001 33.2004 23.1001C32.9004 23.2001 32.5004 23.3001 32.1004 23.4001C31.7004 23.5001 31.2004 23.6001 30.7004 23.6001C30.2004 23.7001 29.7004 23.7001 29.2004 23.7001C27.9004 23.7001 26.7004 23.5001 25.8004 23.1001C24.8004 22.7001 24.0004 22.2001 23.4004 21.5001C22.8004 20.8001 22.3004 20.0001 22.0004 19.0001C21.5004 18.2001 21.4004 17.2001 21.4004 16.1001ZM31.4004 14.5001C31.4004 14.0001 31.3004 13.6001 31.2004 13.1001C31.1004 12.7001 30.9004 12.3001 30.6004 12.0001C30.3004 11.7001 30.0004 11.4001 29.7004 11.3001C29.3004 11.1001 28.9004 11.0001 28.4004 11.0001C27.9004 11.0001 27.4004 11.1001 27.0004 11.3001C26.6004 11.5001 26.3004 11.8001 26.0004 12.1001C25.7004 12.4001 25.5004 12.8001 25.4004 13.2001C25.2004 13.6001 25.1004 14.0001 25.1004 14.5001H31.4004Z" fill="#553091"/>
<path d="M48.5998 21.9002C48.5998 24.3002 47.9998 26.0002 46.7998 27.1002C45.5998 28.2002 43.6998 28.8002 41.1998 28.8002C40.2998 28.8002 39.3998 28.7002 38.4998 28.6002C37.5998 28.4002 36.7998 28.2002 36.0998 28.0002L36.6998 25.1002C37.2998 25.3002 37.9998 25.5002 38.6998 25.7002C39.4998 25.9002 40.2998 25.9002 41.0998 25.9002C42.4998 25.9002 43.4998 25.6002 44.0998 25.0002C44.6998 24.4002 44.9998 23.6002 44.9998 22.5002V21.9002C44.6998 22.1002 44.1998 22.2002 43.5998 22.4002C42.9998 22.6002 42.3998 22.7002 41.6998 22.7002C40.6998 22.7002 39.8998 22.5002 39.0998 22.2002C38.2998 21.9002 37.5998 21.4002 37.0998 20.9002C36.4998 20.3002 36.0998 19.6002 35.7998 18.7002C35.4998 17.8002 35.2998 16.8002 35.2998 15.6002C35.2998 14.5002 35.4998 13.5002 35.7998 12.6002C36.0998 11.7002 36.5998 10.9002 37.2998 10.3002C37.8998 9.70021 38.6998 9.10021 39.5998 8.80021C40.4998 8.40021 41.5998 8.30021 42.6998 8.30021C43.9998 8.20021 44.9998 8.30021 45.9998 8.40021C46.9998 8.60021 47.8998 8.80021 48.5998 8.90021V21.9002ZM38.9998 15.6002C38.9998 17.1002 39.2998 18.1002 39.9998 18.8002C40.5998 19.5002 41.4998 19.8002 42.4998 19.8002C43.0998 19.8002 43.5998 19.7002 44.0998 19.6002C44.5998 19.4002 44.9998 19.3002 45.2998 19.1002V11.3002C45.0998 11.2002 44.6998 11.2002 44.3998 11.1002C43.9998 11.1002 43.5998 11.0002 42.9998 11.0002C41.6998 11.0002 40.7998 11.4002 40.0998 12.2002C39.2998 13.1002 38.9998 14.2002 38.9998 15.6002Z" fill="#553091"/>
<path d="M55.4004 8.1001C56.5004 8.1001 57.5004 8.2001 58.3004 8.5001C59.1004 8.8001 59.7004 9.2001 60.2004 9.7001C60.7004 10.2001 61.0004 10.8001 61.2004 11.6001C61.4004 12.3001 61.5004 13.1001 61.5004 14.0001V23.1001C61.0004 23.2001 60.2004 23.4001 59.1004 23.5001C58.0004 23.7001 56.8004 23.7001 55.4004 23.7001C54.5004 23.7001 53.7004 23.6001 52.9004 23.4001C52.2004 23.2001 51.5004 23.0001 51.0004 22.6001C50.5004 22.2001 50.1004 21.7001 49.8004 21.1001C49.5004 20.5001 49.4004 19.7001 49.4004 18.8001C49.4004 17.9001 49.6004 17.2001 49.9004 16.6001C50.2004 16.0001 50.7004 15.5001 51.3004 15.2001C51.9004 14.8001 52.5004 14.6001 53.3004 14.4001C54.1004 14.2001 54.8004 14.2001 55.7004 14.2001C56.1004 14.2001 56.5004 14.2001 56.9004 14.3001C57.3004 14.3001 57.8004 14.4001 58.2004 14.5001V14.0001C58.2004 13.6001 58.2004 13.2001 58.1004 12.9001C58.0004 12.5001 57.8004 12.2001 57.6004 11.9001C57.4004 11.6001 57.0004 11.4001 56.7004 11.3001C56.3004 11.1001 55.8004 11.1001 55.2004 11.1001C54.4004 11.1001 53.7004 11.2001 53.0004 11.3001C52.3004 11.4001 51.8004 11.5001 51.4004 11.7001L51.0004 8.9001C51.4004 8.7001 52.1004 8.6001 52.9004 8.4001C53.6004 8.2001 54.5004 8.1001 55.4004 8.1001ZM55.7004 21.0001C56.8004 21.0001 57.6004 20.9001 58.1004 20.8001V17.0001C57.9004 16.9001 57.6004 16.9001 57.3004 16.8001C56.9004 16.7001 56.5004 16.7001 56.1004 16.7001C55.7004 16.7001 55.3004 16.7001 54.9004 16.8001C54.5004 16.9001 54.2004 17.0001 53.8004 17.1001C53.5004 17.3001 53.2004 17.5001 53.0004 17.7001C52.8004 18.0001 52.7004 18.3001 52.7004 18.7001C52.7004 19.5001 53.0004 20.1001 53.5004 20.4001C54.1004 20.9001 54.8004 21.0001 55.7004 21.0001Z" fill="#553091"/>
<path d="M72.0004 15.6C72.0004 14 71.8004 12.9 71.4004 12.2C71.0004 11.5 70.3004 11.2 69.2004 11.2C68.8004 11.2 68.4004 11.2 67.9004 11.3C67.4004 11.4 67.1004 11.4 66.9004 11.4V23.5H63.4004V8.99995C64.1004 8.79995 64.9004 8.59995 66.0004 8.49995C67.1004 8.29995 68.2004 8.19995 69.4004 8.19995C70.4004 8.19995 71.3004 8.29995 71.9004 8.59995C72.6004 8.89995 73.1004 9.19995 73.5004 9.69995C73.7004 9.49995 74.0004 9.39995 74.3004 9.19995C74.6004 8.99995 75.0004 8.89995 75.4004 8.69995C75.8004 8.59995 76.2004 8.39995 76.7004 8.29995C77.1004 8.19995 77.6004 8.19995 78.1004 8.19995C79.3004 8.19995 80.2004 8.39995 81.0004 8.69995C81.8004 8.99995 82.3004 9.49995 82.8004 10.1C83.2004 10.7 83.5004 11.4 83.7004 12.3C83.9004 13.1 84.0004 14 84.0004 15V23.4H80.5004V15.5C80.5004 13.9 80.3004 12.8 79.9004 12.1C79.5004 11.4 78.8004 11.1 77.7004 11.1C77.1004 11.1 76.6004 11.2 76.1004 11.4C75.6004 11.6 75.2004 11.8 75.0004 11.9C75.1004 12.4 75.3004 12.9 75.3004 13.4C75.4004 13.9 75.4004 14.5 75.4004 15.1V23.4H72.0004V15.6Z" fill="#8CD3E4"/>
<path d="M89.5008 4.7C89.5008 5.3 89.3008 5.9 88.9008 6.2C88.5008 6.6 88.0008 6.8 87.4008 6.8C86.8008 6.8 86.3008 6.6 85.9008 6.2C85.5008 5.8 85.3008 5.3 85.3008 4.7C85.3008 4 85.5008 3.5 85.9008 3.1C86.3008 2.7 86.8008 2.5 87.4008 2.5C88.0008 2.5 88.5008 2.7 88.9008 3.1C89.3008 3.5 89.5008 4 89.5008 4.7Z" fill="#8CD3E4"/>
<path d="M89.2002 8.5H85.7002V23.5H89.2002V8.5Z" fill="#8CD3E4"/>
<path d="M99.2 11.5C98.9 11.4 98.8 11.4 98.3 11.3C97.8 11.2 97.2 11.1 96.5 11.1C96.1 11.1 95.7 11.1 95.3 11.2C94.9 11.3 94.6 11.3 94.4 11.4V23.4H91V9.19995C91.7 8.99995 92.5 8.69995 93.5 8.49995C94.5 8.29995 95.6 8.19995 96.8 8.19995C97 8.19995 97.3 8.19995 97.6 8.19995C97.9 8.19995 98.2 8.29995 98.5 8.29995C98.8 8.29995 99.1 8.39995 99.4 8.49995C99.7 8.59995 99.9 8.59995 100.1 8.69995L99.2 11.5Z" fill="#8CD3E4"/>
<path d="M112.7 6.2999C112.7 5.7999 112.3 5.3999 111.8 5.3999C111.3 5.3999 110.9 5.7999 110.9 6.2999C110.9 6.7999 111.3 7.1999 111.8 7.1999C112.3 7.1999 112.7 6.7999 112.7 6.2999Z" fill="#553091"/>
<path d="M116.5 0C107.7 0 100.5 7.2 100.5 16C100.5 21.3 103.1 26.1 107.2 29L111.5 24.8V23.3V10.1V8.6C111.5 8.1 111.3 7.9 111 7.7C110.5 7.4 110.2 6.9 110.2 6.3C110.2 5.4 111 4.6 111.9 4.6C112.8 4.6 113.6 5.4 113.6 6.3C113.6 6.9 113.3 7.4 112.8 7.7C112.5 7.9 112.3 8.1 112.3 8.5V10.1V23.3V25L107.9 29.3C110.4 30.9 113.4 31.9 116.6 31.9C125.4 31.9 132.6 24.7 132.6 15.9C132.5 7.2 125.3 0 116.5 0ZM110.7 10.1V23.3H109.9V10.1H110.7ZM113.7 23.3H113V10.1H113.8V23.3H113.7ZM123.4 23.3C122.8 23.5 122.1 23.6 121.4 23.6C120.5 23.6 119.8 23.5 119.2 23.3C118.6 23.1 118.1 22.7 117.8 22.3C117.4 21.8 117.2 21.3 117.1 20.6C117 19.9 116.9 19.2 116.9 18.3V6.4L119.3 6V10.1H124.3V12.1H119.3V18.2C119.3 18.9 119.4 19.4 119.5 19.8C119.6 20.2 119.8 20.6 120 20.8C120.2 21 120.5 21.2 120.8 21.3C121.1 21.4 121.5 21.5 121.9 21.5C122.6 21.5 123.2 21.4 123.6 21.3C124 21.1 124.3 21 124.5 21L125 23C124.4 22.9 124 23.1 123.4 23.3Z" fill="#553091"/>
</svg>
