<svg width="34" height="53" viewBox="0 0 34 53" fill="none" xmlns="http://www.w3.org/2000/svg">
<path d="M30.2833 51.5551H3.09895C1.98121 51.5551 1.07428 50.6496 1.07216 49.5318L1 3.75338C0.998587 2.78703 1.67489 1.95721 2.62143 1.76338C5.3889 1.19743 11.4247 0.359838 18.6291 1.79238C19.5785 1.98127 20.2661 2.81674 20.2661 3.78521V10.9465C20.2661 20.2464 17.7144 32.8471 19.391 36.4239C21.7489 41.4544 32.7537 38.8603 32.7537 45.8561C32.7537 45.8561 32.7537 48.1616 32.2401 50.0667C32.0024 50.9481 31.1959 51.5551 30.2833 51.5551Z" stroke="#B9B8B8" stroke-width="1.5" stroke-miterlimit="10" stroke-linecap="round" stroke-linejoin="round" stroke-dasharray="4 6"/>
<path d="M27.5374 48.1374H5.92191C5.23853 48.1374 4.68461 47.5842 4.6839 46.9008L4.67188 38.8856C4.67117 38.5341 4.82044 38.198 5.08219 37.9632L12.8646 30.9674C13.6668 30.2458 14.9317 30.8252 14.9303 31.904C14.9247 35.9717 15.584 39.3186 17.7445 40.9429C23.0643 44.9398 28.8157 42.9307 28.8157 45.7958C28.8157 45.7958 28.8646 46.3356 28.7683 47.048C28.6842 47.6677 28.1635 48.1374 27.5374 48.1374Z" stroke="#B9B8B8" stroke-width="1.5" stroke-miterlimit="10"/>
<path d="M15.5134 5.2695C16.1437 5.33953 16.6248 5.86798 16.6248 6.50184V11.0966C16.6248 14.1527 16.1932 17.7818 15.7617 21.4604V21.4675L6.7165 29.5909C5.91993 30.3061 4.65222 29.7416 4.65081 28.6713L4.62109 6.42049C4.62039 5.80644 5.06536 5.28648 5.67233 5.1938C7.18199 4.9646 10.3626 4.6979 15.5134 5.2695Z" stroke="#B9B8B8" stroke-width="1.5" stroke-miterlimit="10"/>
</svg>
