<svg width="34" height="52" viewBox="0 0 34 52" fill="none" xmlns="http://www.w3.org/2000/svg">
<path d="M30.5494 51.171H3.58218C2.47337 51.171 1.57369 50.2727 1.57158 49.1639L1.5 3.75116C1.4986 2.79253 2.1695 1.96934 3.10848 1.77705C5.85383 1.21563 11.8414 0.384728 18.9883 1.80583C19.9301 1.9932 20.6122 2.822 20.6122 3.78274V10.8868C20.6122 20.1124 18.0809 32.6125 19.7441 36.1607C22.0831 41.151 33 38.5776 33 45.5175C33 45.5175 33 47.8046 32.4905 49.6944C32.2547 50.5689 31.4547 51.171 30.5494 51.171Z" stroke="#B9B8B8" stroke-width="1.5" stroke-miterlimit="10" stroke-linecap="round" stroke-linejoin="round" stroke-dasharray="4 6"/>
<path d="M27.7547 47.782H7.68526C5.73713 47.782 5.15465 47.1953 5.15325 46.471L5.0957 6.46831C5.095 5.81706 5.5666 5.26266 6.21083 5.16792C7.72877 4.94475 10.8405 4.69983 15.8245 5.24511C16.4926 5.3181 17.0042 5.87952 17.0042 6.55183V11.0369C17.0042 20.7874 12.5612 36.4693 18.1151 40.6449C23.3918 44.612 29.0916 42.6127 29.0916 45.4619C29.0916 45.4619 29.1393 45.9566 29.0572 46.6247C28.9765 47.283 28.4186 47.782 27.7547 47.782Z" stroke="#B9B8B8" stroke-width="1.5" stroke-miterlimit="10"/>
</svg>
