<svg width="40" height="39" viewBox="0 0 40 39" fill="none" xmlns="http://www.w3.org/2000/svg">
<path d="M10.5742 13.7033C13.2178 13.4336 15.6995 13.7033 18.3431 13.9731C21.5262 14.2968 24.9251 14.6205 28.8635 14.1349C28.9714 13.5954 28.9174 13.0559 28.7556 12.5164C24.8711 13.0559 21.6341 12.6783 18.5049 12.3546C16.0232 12.0848 13.5415 11.869 10.9519 12.0308C10.6821 12.5704 10.5742 13.1099 10.5742 13.7033Z" fill="#282A61"/>
<path d="M15.8082 0C15.1068 0.269753 14.4594 0.593456 13.9199 1.02506C15.5924 1.72642 17.4267 2.26592 19.6926 2.26592C21.419 2.26592 23.4692 1.94222 25.843 1.13296C25.3035 0.701357 24.6561 0.323703 23.9008 0C20.4479 0.917159 17.9123 0.647406 15.8082 0Z" fill="#282A61"/>
<path d="M12.3569 17.3182C15.0544 16.9945 17.698 17.1564 20.4495 17.2643C22.6075 17.3722 24.8194 17.4801 27.1933 17.3722C27.3551 16.9406 27.517 16.5629 27.6249 16.1313C27.7867 16.0234 27.9486 15.8616 28.1104 15.6997C25.4129 15.8616 22.9312 15.7536 20.5574 15.6457C17.5901 15.4839 14.6767 15.376 11.6016 15.8076C11.7095 15.9155 11.8713 16.0234 11.9792 16.1313C12.0871 16.5629 12.195 16.9406 12.3569 17.3182Z" fill="#282A61"/>
<path d="M13.5414 1.99608C13.3795 1.94213 13.2177 1.88818 13.0558 1.83423C12.7321 2.26583 12.4084 2.69744 12.1387 3.23694C12.4084 3.34484 12.7321 3.45274 13.0019 3.56065C15.3757 4.42385 17.9114 5.28706 21.0945 5.28706C23.0367 5.28706 25.1947 4.96336 27.7304 4.1541C27.5685 3.6146 27.3527 3.12904 27.029 2.64349C20.8247 4.58571 17.0482 3.23694 13.5414 1.99608Z" fill="#282A61"/>
<path d="M16.6724 8.95576C14.892 8.63205 13.1117 8.3623 11.2773 8.30835V9.92687C13.0038 9.98082 14.6223 10.3045 16.4026 10.5743C19.8555 11.1677 23.5241 11.7612 28.1639 10.9519V9.27946C23.5781 10.1427 20.0713 9.54921 16.6724 8.95576Z" fill="#282A61"/>
<path d="M15.0527 5.50287C13.9197 5.23311 12.7867 4.90941 11.5998 4.74756C11.4919 5.23311 11.384 5.77262 11.3301 6.36607C12.4091 6.58188 13.4881 6.85163 14.6211 7.12138C18.3436 8.09249 22.3899 9.0636 28.1626 7.60694V7.12138C28.1626 6.68978 28.1087 6.31212 28.1087 5.93447C22.4978 7.39113 18.6674 6.42002 15.0527 5.50287Z" fill="#282A61"/>
<path d="M13.8105 24.8172C17.4792 24.0079 21.0399 23.9 24.7086 23.7381C24.6546 23.6842 24.6546 23.5763 24.6007 23.5223V22.1196C21.3636 22.2275 18.1805 22.3354 14.8896 22.9289V23.5223C14.7817 23.9 14.404 24.3316 13.8105 24.8172Z" fill="#282A61"/>
<path d="M37.388 35.6073C38.0894 35.5533 38.7907 35.4454 39.4921 35.3915V33.7729C38.7368 33.8809 37.9815 33.9348 37.1722 34.0427C29.9428 34.852 22.4977 35.7152 14.8906 38.5745H20.0699C26.0044 36.9021 31.7771 36.2547 37.388 35.6073Z" fill="#282A61"/>
<path d="M33.9349 32.7481C35.7692 32.5863 37.6575 32.3705 39.5458 32.1547C39.5458 31.5612 39.1681 31.0756 38.6286 30.8598C38.4668 30.8059 38.3049 30.7519 38.1431 30.644C36.6864 30.8059 35.2297 30.9677 33.7731 31.1296C24.9252 31.9928 15.8615 32.91 6.15039 38.5208H9.49532C17.8577 34.3666 25.7344 33.5574 33.9349 32.7481Z" fill="#282A61"/>
<path d="M39.5479 37.1719V37.01C36.0411 37.4416 32.4264 37.8732 28.7578 38.6285H38.1452C38.9005 38.5746 39.5479 37.9272 39.5479 37.1719Z" fill="#282A61"/>
<path d="M22.7136 20.555C23.6307 20.555 24.5479 20.555 25.465 20.555C25.8427 20.0695 26.1664 19.53 26.4901 18.9365C25.1953 18.9905 23.9544 18.9365 22.7136 18.9365C19.5844 18.9365 16.5093 18.9365 13.3262 19.4221C13.6499 19.9616 13.9736 20.4471 14.3512 20.8787C17.1027 20.5011 19.8542 20.555 22.7136 20.555Z" fill="#282A61"/>
<path d="M27.8385 26.8133C28.2161 26.8133 28.5938 26.7594 28.9714 26.7594C28.0003 26.2738 27.0832 25.7883 26.3818 25.3027C17.9116 25.7883 9.7111 26.6515 0 33.773V35.8231C10.3046 27.8924 18.8287 27.3529 27.8385 26.8133Z" fill="#282A61"/>
<path d="M1.40323 38.5746H2.32039C12.4631 31.3452 21.3649 30.5899 30.7523 29.8346C32.155 29.7267 33.5577 29.6188 35.0144 29.4569C33.9354 29.0253 32.8564 28.5398 31.8853 28.1082C31.4537 28.1621 31.076 28.1621 30.6444 28.2161C20.7175 29.0253 11.2762 29.8346 0.324219 38.0351C0.540021 38.3588 0.971625 38.5746 1.40323 38.5746Z" fill="#282A61"/>
</svg>
