<svg width="31" height="30" viewBox="0 0 31 30" fill="none" xmlns="http://www.w3.org/2000/svg">
<path d="M10.7391 27.7826C10.7391 28.4522 10.1913 29 9.52174 29H2.21739C1.54783 29 1 28.4522 1 27.7826V2.21739C1 1.54783 1.54783 1 2.21739 1H9.52174C10.1913 1 10.7391 1.54783 10.7391 2.21739V27.7826Z" stroke="#EFEDF9" stroke-width="2" stroke-miterlimit="10" stroke-linecap="round" stroke-linejoin="round"/>
<path d="M10.7344 5.79652L13.0718 2.03478C13.4248 1.46869 14.1857 1.28608 14.7518 1.63304L20.9544 5.41912C21.5266 5.76608 21.697 6.51478 21.3318 7.07478L10.9231 23.193" stroke="#EFEDF9" stroke-width="2" stroke-miterlimit="10" stroke-linecap="round" stroke-linejoin="round"/>
<path d="M18.3187 11.7435L23.1457 8.94954C23.7239 8.61476 24.4726 8.81563 24.8074 9.39389L28.2587 15.3652C28.5935 15.9435 28.3926 16.6922 27.8144 17.0269L10.7344 26.9122" stroke="#EFEDF9" stroke-width="2" stroke-miterlimit="10" stroke-linecap="round" stroke-linejoin="round"/>
<path d="M23.9685 19.2609H27.785C28.4546 19.2609 29.0024 19.8087 29.0024 20.4783V27.7826C29.0024 28.4522 28.4546 29 27.785 29H8.35547" stroke="#EFEDF9" stroke-width="2" stroke-miterlimit="10" stroke-linecap="round" stroke-linejoin="round"/>
</svg>
