<svg width="27" height="30" viewBox="0 0 27 30" fill="none" xmlns="http://www.w3.org/2000/svg">
<path d="M1 3.77775C1 9.3333 1 26.9259 1 26.9259C1 26.9259 3.77778 30.6296 11.6481 26.9259C19.5185 23.2222 26 26.4629 26 26.4629C26 26.4629 26 11.6481 26 3.77775C23.6852 0.0740436 2.85185 0.0740436 1 3.77775Z" stroke="#EFEDF9" stroke-width="2" stroke-miterlimit="10" stroke-linecap="round" stroke-linejoin="round"/>
<path d="M1 3.77774C3.31481 7.48144 24.1481 7.48144 26 3.77774" stroke="#EFEDF9" stroke-width="2" stroke-miterlimit="10" stroke-linecap="round" stroke-linejoin="round"/>
<path d="M1 17.2037C3.31481 20.9074 24.1481 20.9074 26 17.2037" stroke="#EFEDF9" stroke-width="2" stroke-miterlimit="10" stroke-linecap="round" stroke-linejoin="round"/>
<path d="M17.9881 13.2171L13.5 8.729L9.01188 13.2171L13.5 17.7052L17.9881 13.2171Z" stroke="#EFEDF9" stroke-width="2" stroke-miterlimit="10" stroke-linecap="round" stroke-linejoin="round"/>
<path d="M8.6101 19.7314C6.63325 18.2453 5.35547 15.8796 5.35547 13.2175C5.35547 10.3333 6.85547 7.80088 9.11473 6.35181" stroke="#EFEDF9" stroke-width="2" stroke-miterlimit="10" stroke-linecap="round" stroke-linejoin="round"/>
<path d="M17.9219 6.37958C20.1626 7.82865 21.6395 10.3518 21.6395 13.2175C21.6395 15.9027 20.3385 18.2824 18.3339 19.7685" stroke="#EFEDF9" stroke-width="2" stroke-miterlimit="10" stroke-linecap="round" stroke-linejoin="round"/>
</svg>
