<svg width="27" height="30" viewBox="0 0 27 30" fill="none" xmlns="http://www.w3.org/2000/svg">
<path d="M25.1985 28.9999H11.7762C11.3519 28.9999 11.0079 28.652 11.0075 28.2222L11 23.1812C10.9996 22.9601 11.0923 22.7487 11.2548 22.601L16.0873 18.2011C16.5855 17.7473 17.3709 18.1117 17.3701 18.7902C17.3665 21.3486 17.776 21.9262 19.1175 22.9478C22.4209 25.4616 25.9923 24.198 25.9923 25.9999C25.9923 25.9999 26.0226 27.8667 25.9629 28.3148C25.9106 28.7045 25.5873 28.9999 25.1985 28.9999Z" stroke="#EFEDF9" stroke-width="2" stroke-miterlimit="10"/>
<path d="M17.3519 1.21913C17.7195 1.26398 18 1.60242 18 2.00837V4.95102C18 6.90825 17.7484 9.23247 17.4967 11.5884V11.9999L12.2219 17.2025C11.7574 17.6605 11.0182 17.299 11.0173 16.6135L11 1.95627C10.9996 1.56301 11.2591 1.23 11.613 1.17065C12.4934 1.02386 14.3482 0.853055 17.3519 1.21913Z" stroke="#EFEDF9" stroke-width="2" stroke-miterlimit="10"/>
<path d="M6 0.999939V28.9999" stroke="#EFEDF9" stroke-width="2" stroke-linecap="round" stroke-linejoin="round"/>
<path d="M1 0.999939V28.9999" stroke="#EFEDF9" stroke-width="2" stroke-linecap="round" stroke-linejoin="round"/>
</svg>
