<svg width="42" height="40" viewBox="0 0 42 40" fill="none" xmlns="http://www.w3.org/2000/svg">
<path d="M10.194 8.39842C10.0814 8.96165 10.0251 9.52489 9.96875 10.0881C14.9816 11.2709 20.7829 11.8905 30.5832 6.87767C30.4143 6.37076 30.1327 5.86385 29.851 5.35693C20.445 10.2008 14.9252 9.52489 10.194 8.39842Z" fill="#ffffff"/>
<path d="M13.1799 2.87883C12.673 3.38575 12.2224 3.94898 11.8281 4.51222C12.335 4.56854 12.842 4.62487 13.3489 4.62487C16.4467 4.62487 20.2767 3.66737 25.4021 0.963825C24.7263 0.625883 23.9941 0.344264 23.2618 0.175293C18.9812 2.25927 15.7708 2.93516 13.1799 2.87883Z" fill="#ffffff"/>
<path d="M31.7665 14.6506C31.6539 14.031 31.5975 13.4678 31.4849 12.9045C23.149 16.2276 17.404 15.6644 12.1095 15.1012C11.2083 14.9885 10.2508 14.9322 9.34966 14.8195C9.23701 15.3828 9.12437 15.946 9.01172 16.5093C9.96922 16.5656 10.9267 16.6782 11.9406 16.7909C17.4603 17.4104 23.318 18.03 31.7665 14.6506Z" fill="#ffffff"/>
<path d="M14.1377 20.3393C19.4321 20.6209 25.1208 20.8462 32.5555 18.3679C32.3865 17.8047 32.2739 17.2415 32.1613 16.6782C24.9518 19.1565 19.3758 18.8748 14.2503 18.6496C12.3353 18.5369 10.4766 18.4806 8.61792 18.5369C8.44895 19.1565 8.27998 19.7197 8.05469 20.2266C10.0823 20.114 12.0537 20.2266 14.1377 20.3393Z" fill="#ffffff"/>
<path d="M10.2524 11.609C10.1397 11.609 9.97075 11.5526 9.85811 11.5526C9.80178 12.0032 9.74546 12.5665 9.63281 13.2423C9.74546 13.2423 9.85811 13.2987 9.97076 13.2987C15.4905 14.2562 21.5734 15.27 31.2611 10.8204C31.2611 10.7078 31.2611 10.6515 31.2611 10.6515C31.2611 10.0882 31.2048 9.5813 31.1485 9.01807C21.5171 13.524 15.6595 12.5101 10.2524 11.609Z" fill="#ffffff"/>
<path d="M11.1524 5.63877C10.8708 6.14569 10.6455 6.70893 10.4766 7.21584C11.8283 7.55378 13.2364 7.77908 14.8698 7.77908C18.4182 7.77908 22.7551 6.76525 28.6691 3.5548C28.2749 3.10421 27.8806 2.70994 27.43 2.31567C19.8263 6.31466 14.9825 6.48363 11.1524 5.63877Z" fill="#ffffff"/>
<path d="M28.2751 36.4479C32.4993 35.9973 36.8363 35.603 41.2295 34.7018V33.2374C41.2295 33.1248 41.2295 33.0685 41.1732 32.9558C36.7236 33.9133 32.3867 34.3639 28.1061 34.7582C20.615 35.5467 12.955 36.3352 4.95703 39.6583H9.74455C15.9402 37.687 22.0231 37.1238 28.2751 36.4479Z" fill="#ffffff"/>
<path d="M31.8787 39.4331C35.0328 39.0951 38.1306 38.7008 41.1721 38.2503V36.5605C38.0743 37.0675 34.8639 37.4054 31.6534 37.7997C27.2602 38.3066 22.8106 38.8135 18.3047 39.7147H29.7384C30.4706 39.602 31.2028 39.5457 31.8787 39.4331Z" fill="#ffffff"/>
<path d="M9.01018 23.9439C11.4884 23.7186 13.9667 23.7186 16.5576 23.7186C21.683 23.7186 27.2591 23.775 33.9616 21.7473C33.68 21.2967 33.3984 20.7898 33.1731 20.2266C26.7522 22.0852 21.5141 22.0852 16.5576 22.0852C13.2345 22.0852 9.96768 22.0852 6.58826 22.5922C6.47561 22.6485 6.41929 22.7048 6.30664 22.7611C6.30664 22.7048 7.09517 23.3807 9.01018 23.9439Z" fill="#ffffff"/>
<path d="M0.45059 39.2639C8.95548 34.7016 16.7845 34.0821 24.9514 33.4062C29.57 33.0119 34.2448 32.6177 39.145 31.5475C37.9059 31.1533 36.6668 30.8153 35.4276 30.5337C31.8229 31.1533 28.2745 31.4349 24.7824 31.7165C16.5592 32.3924 8.61753 33.0683 0 37.5742V38.25C0 38.6443 0.168971 39.0386 0.45059 39.2639Z" fill="#ffffff"/>
<path d="M19.0933 27.0418C21.1773 26.9855 23.3739 26.9292 25.6269 26.7039V25.0142C23.3739 25.1831 21.1773 25.2395 19.037 25.3521C17.8542 25.4084 16.7277 25.4084 15.5449 25.4648V27.1545C16.7277 27.0981 17.9105 27.0418 19.0933 27.0418Z" fill="#ffffff"/>
<path d="M0 35.0396C7.71635 31.0969 14.6442 30.7027 21.9099 30.2521C24.7261 30.0831 27.5986 29.9141 30.5275 29.5199C28.5561 29.1256 26.9791 28.7877 26.1905 28.2808C24.7261 28.3934 23.2617 28.5061 21.7973 28.5624C14.5878 29.013 7.66003 29.4072 0 33.1246C0 33.1809 0 33.1809 0 33.2373V35.0396Z" fill="#ffffff"/>
</svg>
